<?xml version="1.0" encoding="UTF-8"?>
<svg xmlns="http://www.w3.org/2000/svg" xmlns:xlink="http://www.w3.org/1999/xlink" version="1.2" >
<font id="Helios Antique Light">
<font-face  font-family="Helios Antique" units-per-em="1000" ascent="955" descent="-255" font-style="normal" font-weight="300" font-stretch="normal" cap-height="730" x-height="545" underline-position="-75" underline-thickness="50" />
<missing-glyph  horiz-adv-x="706" d="M99 739 L99 0 L606 0 L606 739 L99 739 Z M548 79 L211 680 L548 680 L548 79 Z M158 658 L494 59 L158 59 L158 658 Z " />
<glyph glyph-name="NULL" d="" />
<glyph glyph-name="CR" unicode="&#xd;" horiz-adv-x="250" d="" />
<glyph glyph-name="space" unicode="&#x20;" horiz-adv-x="288" d="" />
<glyph glyph-name="exclam" unicode="&#x21;" horiz-adv-x="267" d="M117 194 L152 194 L158 608 L158 735 L110 735 L110 608 L117 194 Z M135 -5 C158 -5 176 13 176 36 C176 59 158 77 135 77 C112 77 94 59 94 36 C94 13 112 -5 135 -5 L135 -5 Z " />
<glyph glyph-name="quotedbl" unicode="&#x22;" horiz-adv-x="319" d="M78 500 L106 500 L121 712 C121 732 109 746 92 746 C75 746 62 732 62 712 L78 500 Z M214 500 L241 500 L256 712 C256 732 244 746 227 746 C210 746 198 732 198 712 L214 500 Z " />
<glyph glyph-name="numbersign" unicode="&#x23;" horiz-adv-x="672" d="M389 0 L430 0 L472 223 L618 223 L618 263 L479 263 L519 476 L647 476 L647 515 L526 515 L565 730 L525 730 L485 515 L255 515 L295 730 L254 730 L214 515 L57 515 L57 476 L208 476 L168 263 L28 263 L28 223 L160 223 L119 0 L160 0 L201 223 L431 223 L389 0 Z M209 263 L249 476 L478 476 L438 263 L209 263 Z " />
<glyph glyph-name="dollar" unicode="&#x24;" horiz-adv-x="658" d="M585 190 C585 318 471 366 356 397 L356 700 C419 696 485 676 541 646 L557 689 C491 721 429 742 356 745 L356 859 L318 859 L318 745 C175 739 77 674 77 559 C77 425 202 386 318 356 L318 29 C233 31 157 55 86 95 L66 53 C148 11 223 -14 318 -15 L318 -119 L356 -119 L356 -14 C483 -4 585 70 585 190 L585 190 Z M126 560 C126 648 208 697 318 701 L318 406 C216 433 126 467 126 560 L126 560 Z M356 30 L356 346 C454 317 535 277 535 190 C535 96 457 40 356 30 L356 30 Z " />
<glyph glyph-name="percent" unicode="&#x25;" horiz-adv-x="882" d="M228 401 C326 401 395 476 395 572 C395 667 326 742 228 742 C131 742 63 667 63 572 C63 476 131 401 228 401 L228 401 Z M228 0 L275 0 L653 730 L606 730 L228 0 Z M228 438 C155 438 103 498 103 572 C103 645 155 705 228 705 C302 705 354 646 354 572 C354 498 302 438 228 438 L228 438 Z M653 -12 C751 -12 820 63 820 158 C820 254 751 329 653 329 C556 329 488 254 488 158 C488 63 556 -12 653 -12 L653 -12 Z M653 24 C579 24 527 84 527 158 C527 233 579 293 653 293 C728 293 779 233 779 158 C779 84 728 24 653 24 L653 24 Z " />
<glyph glyph-name="ampersand" unicode="&#x26;" horiz-adv-x="704" d="M727 0 L591 133 C637 193 665 268 665 350 L619 350 C618 281 595 217 557 165 L320 395 C397 448 467 519 467 603 C467 688 400 745 301 745 C200 745 133 688 133 603 C133 531 182 472 256 399 C163 341 66 284 66 172 C66 63 155 -15 297 -15 C397 -15 494 29 563 101 L667 0 L727 0 Z M180 603 C180 663 227 703 300 703 C372 703 420 663 420 603 C420 531 361 471 292 423 C226 488 180 538 180 603 L180 603 Z M298 29 C183 29 115 88 115 173 C115 267 199 317 284 371 L530 132 C471 69 388 29 298 29 L298 29 Z " />
<glyph glyph-name="quotesingle" unicode="&#x27;" horiz-adv-x="184" d="M78 500 L106 500 L121 712 C121 732 109 746 92 746 C75 746 62 732 62 712 L78 500 Z " />
<glyph glyph-name="parenleft" unicode="&#x28;" horiz-adv-x="361" d="M319 -145 L340 -112 C185 -14 108 126 108 299 C108 472 185 612 340 711 L319 742 C151 640 64 490 64 299 C64 107 151 -42 319 -145 L319 -145 Z " />
<glyph glyph-name="parenright" unicode="&#x29;" horiz-adv-x="361" d="M42 -145 C210 -42 297 107 297 299 C297 490 210 640 42 742 L21 711 C175 612 252 472 252 299 C252 126 175 -14 21 -112 L42 -145 Z " />
<glyph glyph-name="asterisk" unicode="&#x2a;" horiz-adv-x="369" d="M165 475 L203 475 L198 605 L308 533 L329 566 L211 629 L329 690 L308 723 L198 651 L203 785 L165 785 L170 652 L61 723 L40 690 L158 629 L40 566 L61 533 L170 604 L165 475 Z " />
<glyph glyph-name="plus" unicode="&#x2b;" horiz-adv-x="531" d="M245 125 L286 125 L286 332 L493 332 L493 372 L286 372 L286 579 L245 579 L245 372 L38 372 L38 332 L245 332 L245 125 Z " />
<glyph glyph-name="comma" unicode="&#x2c;" horiz-adv-x="206" d="M85 -109 C126 -78 149 -34 149 19 C149 54 132 77 105 77 C82 77 65 59 65 36 C65 14 81 -4 103 -4 L111 -4 C107 -36 90 -63 58 -86 L85 -109 Z " />
<glyph glyph-name="hyphen" unicode="&#x2d;" horiz-adv-x="349" d="M39 265 L310 265 L310 307 L39 307 L39 265 Z " />
<glyph glyph-name="period" unicode="&#x2e;" horiz-adv-x="236" d="M118 -5 C141 -5 159 13 159 36 C159 59 141 77 118 77 C95 77 77 59 77 36 C77 13 95 -5 118 -5 L118 -5 Z " />
<glyph glyph-name="slash" unicode="&#x2f;" horiz-adv-x="414" d="M6 -42 L52 -42 L407 770 L360 770 L6 -42 Z " />
<glyph glyph-name="zero" unicode="0" horiz-adv-x="757" d="M378 745 C195 745 68 590 68 365 C68 140 195 -15 378 -15 C562 -15 689 140 689 365 C689 590 562 745 378 745 L378 745 Z M378 30 C225 30 117 168 117 365 C117 562 225 700 378 700 C532 701 639 564 639 365 C639 166 532 29 378 30 L378 30 Z " />
<glyph glyph-name="one" unicode="1" horiz-adv-x="406" d="M276 730 L35 664 L49 625 L265 679 L265 0 L313 0 L313 730 L276 730 Z " />
<glyph glyph-name="two" unicode="2" horiz-adv-x="657" d="M145 44 L351 237 C466 340 534 439 534 534 C534 667 435 745 303 745 C221 745 140 714 64 666 L86 628 C155 672 230 700 306 700 C409 700 484 640 484 534 C484 453 421 362 312 263 L67 36 L67 0 L560 0 L560 44 L145 44 Z " />
<glyph glyph-name="three" unicode="3" horiz-adv-x="590" d="M283 -15 C427 -15 524 69 524 192 C524 287 460 360 355 380 C457 398 509 468 509 553 C509 668 407 745 280 745 C196 744 115 721 50 677 L71 638 C125 674 195 700 277 700 C383 700 461 637 461 553 C461 461 386 399 269 399 L180 399 L180 355 L269 355 C397 355 476 293 476 193 C476 94 398 28 281 28 C200 28 126 58 68 98 L47 60 C104 17 192 -15 283 -15 L283 -15 Z " />
<glyph glyph-name="four" unicode="4" horiz-adv-x="673" d="M500 249 L500 730 L437 730 L45 243 L45 205 L453 205 L453 0 L500 0 L500 205 L628 205 L628 249 L500 249 Z M105 249 L452 678 L453 249 L105 249 Z " />
<glyph glyph-name="five" unicode="5" horiz-adv-x="639" d="M320 -15 C468 -15 572 80 572 215 C572 349 476 444 340 444 C272 444 209 423 156 380 L201 686 L537 686 L537 730 L161 730 L104 348 L147 330 C205 379 267 401 331 401 C444 401 525 324 525 215 C525 106 440 28 320 28 C250 28 165 54 105 98 L83 60 C149 12 235 -15 320 -15 L320 -15 Z " />
<glyph glyph-name="six" unicode="6" horiz-adv-x="638" d="M335 458 C231 458 144 399 115 312 C114 318 114 326 114 334 C116 550 231 700 397 700 C446 700 492 687 520 669 L540 709 C506 731 454 745 398 745 C203 745 68 573 68 329 C68 83 180 -15 327 -15 C470 -15 571 82 571 222 C571 361 474 458 335 458 L335 458 Z M326 28 C210 28 129 110 129 222 C129 335 210 414 327 414 C443 414 523 335 523 222 C523 107 443 28 326 28 L326 28 Z " />
<glyph glyph-name="seven" unicode="7" horiz-adv-x="592" d="M170 0 L220 0 C266 293 424 547 550 694 L550 730 L43 730 L43 686 L491 686 C345 517 198 231 170 0 L170 0 Z " />
<glyph glyph-name="eight" unicode="8" horiz-adv-x="642" d="M322 -15 C470 -15 574 69 574 189 C574 279 513 349 418 376 C505 403 561 469 561 553 C561 666 462 745 322 745 C181 745 82 666 82 553 C82 469 139 403 225 376 C130 349 68 279 68 189 C68 69 173 -15 322 -15 L322 -15 Z M322 397 C209 397 129 460 129 551 C129 639 209 700 322 700 C435 700 514 639 514 551 C514 460 435 397 322 397 L322 397 Z M322 28 C201 28 116 96 116 191 C116 288 201 356 322 356 C442 356 526 288 526 191 C526 96 442 28 322 28 L322 28 Z " />
<glyph glyph-name="nine" unicode="9" horiz-adv-x="637" d="M310 745 C167 745 66 648 66 508 C66 369 162 272 302 272 C406 272 492 331 521 419 C522 412 522 404 522 395 C521 179 406 30 240 30 C190 30 145 43 117 61 L97 21 C131 -1 182 -15 239 -15 C434 -15 569 155 569 399 C569 645 457 745 310 745 L310 745 Z M310 316 C194 316 113 395 113 508 C113 623 194 702 311 702 C427 702 507 620 507 508 C507 395 427 316 310 316 L310 316 Z " />
<glyph glyph-name="colon" unicode="&#x3a;" horiz-adv-x="236" d="M118 476 C141 476 159 494 159 517 C159 539 141 557 118 557 C95 557 77 539 77 517 C77 494 95 476 118 476 L118 476 Z M118 -5 C141 -5 159 13 159 36 C159 59 141 77 118 77 C95 77 77 59 77 36 C77 13 95 -5 118 -5 L118 -5 Z " />
<glyph glyph-name="semicolon" unicode="&#x3b;" horiz-adv-x="247" d="M125 476 C148 476 166 494 166 517 C166 539 148 557 125 557 C103 557 84 539 84 517 C84 494 103 476 125 476 L125 476 Z M105 -109 C146 -78 170 -34 170 19 C170 54 153 77 125 77 C102 77 85 59 85 36 C85 14 101 -4 123 -4 L131 -4 C128 -36 110 -63 78 -86 L105 -109 Z " />
<glyph glyph-name="less" unicode="&#x3c;" horiz-adv-x="538" d="M491 97 L491 147 L97 352 L491 557 L491 608 L45 374 L45 330 L491 97 Z " />
<glyph glyph-name="equal" unicode="&#x3d;" horiz-adv-x="531" d="M41 441 L490 441 L490 482 L41 482 L41 441 Z M41 222 L490 222 L490 262 L41 262 L41 222 Z " />
<glyph glyph-name="greater" unicode="&#x3e;" horiz-adv-x="538" d="M45 97 L491 330 L491 374 L45 608 L45 557 L440 352 L45 147 L45 97 Z " />
<glyph glyph-name="question" unicode="&#x3f;" horiz-adv-x="512" d="M202 207 L242 207 L242 264 C242 384 463 402 463 578 C463 676 384 745 252 745 C183 745 110 720 44 682 L61 641 C116 676 186 700 254 700 C350 700 414 648 414 579 C414 427 200 412 200 269 L202 207 Z M222 -5 C245 -5 263 13 263 36 C263 59 245 77 222 77 C199 77 181 59 181 36 C181 13 199 -5 222 -5 L222 -5 Z " />
<glyph glyph-name="at" unicode="&#x40;" horiz-adv-x="950" d="M435 -127 C515 -126 609 -103 678 -67 L665 -43 C603 -75 515 -96 435 -96 C231 -96 100 33 100 235 C101 461 292 651 524 651 C720 651 849 519 849 321 C849 176 786 88 711 88 C663 88 627 123 641 188 L708 504 L665 504 L645 412 C628 482 576 523 498 523 C358 523 230 385 231 233 C233 124 299 51 397 51 C477 51 549 95 596 165 C591 94 633 51 695 51 C799 51 882 155 882 322 C882 536 735 684 524 683 C275 683 68 477 68 232 C68 17 214 -127 435 -127 L435 -127 Z M410 89 C330 89 277 146 277 236 C277 370 382 485 500 485 C594 485 643 407 620 292 C593 164 509 89 410 89 L410 89 Z " />
<glyph glyph-name="A" unicode="A" horiz-adv-x="750" d="M29 0 L80 0 L164 193 L584 193 L667 0 L719 0 L400 730 L350 730 L29 0 Z M183 236 L375 677 L566 236 L183 236 Z " />
<glyph glyph-name="B" unicode="B" horiz-adv-x="717" d="M96 0 L357 0 C536 0 642 65 642 193 C642 284 587 349 476 370 C545 383 596 457 596 541 C596 660 511 730 364 730 L96 730 L96 0 Z M144 389 L144 686 L363 686 C479 686 547 634 547 540 C547 444 489 389 392 389 L144 389 Z M144 44 L144 344 L387 344 C524 344 592 287 592 193 C592 91 505 44 358 44 L144 44 Z " />
<glyph glyph-name="C" unicode="C" horiz-adv-x="731" d="M434 -15 C528 -15 606 2 685 41 L669 85 C609 51 523 30 437 30 C246 30 118 162 118 360 C118 564 251 700 450 700 C519 700 607 679 666 646 L683 689 C607 727 534 745 448 745 C220 745 68 591 68 360 C68 135 214 -15 434 -15 L434 -15 Z " />
<glyph glyph-name="D" unicode="D" horiz-adv-x="783" d="M96 0 L300 0 C541 0 715 147 715 360 C715 579 541 730 299 730 L96 730 L96 0 Z M144 45 L144 686 L300 686 C511 686 665 552 665 360 C665 174 511 44 300 44 L144 45 Z " />
<glyph glyph-name="E" unicode="E" horiz-adv-x="679" d="M144 44 L144 338 L562 338 L562 383 L144 383 L144 686 L606 686 L606 730 L96 730 L96 0 L607 0 L607 44 L144 44 Z " />
<glyph glyph-name="F" unicode="F" horiz-adv-x="655" d="M96 0 L144 0 L144 335 L563 335 L563 379 L144 379 L144 686 L606 686 L606 730 L96 730 L96 0 Z " />
<glyph glyph-name="G" unicode="G" horiz-adv-x="777" d="M439 -15 C542 -15 625 11 711 51 L711 359 L431 359 L431 315 L663 315 L663 80 C606 53 526 30 445 30 C252 30 118 159 118 359 C118 567 257 700 458 700 C532 700 615 678 675 645 L693 688 C616 727 544 745 455 745 C225 745 68 594 68 359 C68 131 220 -15 439 -15 L439 -15 Z " />
<glyph glyph-name="H" unicode="H" horiz-adv-x="771" d="M96 0 L144 0 L144 337 L628 337 L627 0 L675 0 L675 730 L628 730 L628 382 L144 382 L144 730 L96 730 L96 0 Z " />
<glyph glyph-name="I" unicode="I" horiz-adv-x="239" d="M96 0 L144 0 L144 730 L96 730 L96 0 Z " />
<glyph glyph-name="J" unicode="J" horiz-adv-x="469" d="M172 -15 C301 -14 374 50 373 174 L373 730 L326 730 L326 174 C326 81 269 30 172 30 C117 30 61 43 15 66 L13 64 L-2 24 C49 -2 112 -15 172 -15 L172 -15 Z " />
<glyph glyph-name="K" unicode="K" horiz-adv-x="697" d="M595 0 L656 0 L297 392 L626 730 L564 730 L144 297 L144 730 L96 730 L96 0 L144 0 L144 235 L263 357 L595 0 Z " />
<glyph glyph-name="L" unicode="L" horiz-adv-x="633" d="M96 0 L588 0 L588 44 L144 44 L144 730 L96 730 L96 0 Z " />
<glyph glyph-name="M" unicode="M" horiz-adv-x="912" d="M767 730 L456 288 L146 730 L96 730 L96 0 L143 0 L143 652 L449 220 L463 220 L770 653 L770 0 L816 0 L816 730 L767 730 Z " />
<glyph glyph-name="N" unicode="N" horiz-adv-x="795" d="M652 730 L652 75 L143 730 L96 730 L96 0 L144 0 L144 654 L654 0 L699 0 L699 730 L652 730 Z " />
<glyph glyph-name="O" unicode="O" horiz-adv-x="869" d="M435 -15 C647 -15 801 145 801 365 C801 585 647 745 435 745 C222 745 68 585 68 365 C68 145 222 -15 435 -15 L435 -15 Z M435 29 C251 29 117 170 117 365 C117 560 251 701 435 701 C618 701 752 560 752 365 C752 170 618 29 435 29 L435 29 Z " />
<glyph glyph-name="P" unicode="P" horiz-adv-x="662" d="M96 0 L144 0 L144 296 L372 296 C515 296 616 385 616 513 C616 641 515 730 371 730 L96 730 L96 0 Z M144 340 L144 686 L370 686 C486 686 567 616 567 513 C567 409 486 340 371 340 L144 340 Z " />
<glyph glyph-name="Q" unicode="Q" horiz-adv-x="869" d="M808 -121 L647 50 C742 116 801 229 801 365 C801 585 647 745 435 745 C222 745 68 585 68 365 C68 145 222 -15 435 -15 C499 -15 557 -1 607 25 L745 -121 L808 -121 Z M117 365 C117 560 251 701 435 701 C618 701 752 560 752 365 C752 170 618 29 435 29 C251 29 117 170 117 365 L117 365 Z " />
<glyph glyph-name="R" unicode="R" horiz-adv-x="693" d="M685 0 L431 327 C544 346 618 420 618 523 C618 648 519 730 374 730 L96 730 L96 0 L144 0 L144 322 L371 322 L378 322 L627 0 L685 0 Z M144 365 L144 686 L374 686 C490 686 570 623 570 523 C570 427 490 365 374 365 L144 365 Z " />
<glyph glyph-name="S" unicode="S" horiz-adv-x="667" d="M329 -15 C472 -15 591 61 591 190 C591 323 467 369 346 400 C234 428 127 459 127 560 C127 651 217 701 338 701 C405 701 484 680 547 646 L563 689 C491 723 423 744 341 745 C186 746 78 679 78 559 C78 423 208 385 325 355 C440 326 542 287 542 190 C542 87 446 29 330 29 C241 29 160 54 87 95 L67 53 C152 10 229 -15 329 -15 L329 -15 Z " />
<glyph glyph-name="T" unicode="T" horiz-adv-x="728" d="M680 730 L48 730 L48 686 L341 686 L341 0 L388 0 L388 686 L680 686 L680 730 Z " />
<glyph glyph-name="U" unicode="U" horiz-adv-x="775" d="M387 -15 C571 -15 679 85 679 258 L679 730 L632 730 L632 258 C632 112 542 30 387 30 C234 30 144 112 144 258 L144 730 L96 730 L96 258 C96 85 204 -15 387 -15 L387 -15 Z " />
<glyph glyph-name="V" unicode="V" horiz-adv-x="738" d="M355 0 L405 0 L724 730 L672 730 L380 54 L85 730 L34 730 L355 0 Z " />
<glyph glyph-name="W" unicode="W" horiz-adv-x="1135" d="M294 0 L350 0 L567 672 L783 0 L838 0 L1099 730 L1047 730 L811 56 L595 731 L538 731 L322 55 L85 730 L33 730 L294 0 Z " />
<glyph glyph-name="X" unicode="X" horiz-adv-x="677" d="M31 0 L87 0 L338 331 L588 0 L646 0 L366 370 L638 730 L584 730 L339 406 L94 730 L38 730 L310 369 L31 0 Z " />
<glyph glyph-name="Y" unicode="Y" horiz-adv-x="666" d="M309 0 L357 0 L357 313 L647 730 L591 730 L334 356 L74 730 L20 730 L309 313 L309 0 Z " />
<glyph glyph-name="Z" unicode="Z" horiz-adv-x="714" d="M125 42 L645 698 L645 730 L84 730 L84 687 L582 687 L63 32 L63 0 L651 0 L651 42 L125 42 Z " />
<glyph glyph-name="bracketleft" unicode="&#x5b;" horiz-adv-x="313" d="M66 -135 L273 -135 L273 -95 L112 -95 L112 691 L273 691 L273 731 L66 731 L66 -135 Z " />
<glyph glyph-name="backslash" unicode="&#x5c;" horiz-adv-x="414" d="M412 -42 L58 770 L11 770 L366 -42 L412 -42 Z " />
<glyph glyph-name="bracketright" unicode="&#x5d;" horiz-adv-x="313" d="M247 -135 L247 731 L41 731 L41 691 L201 691 L201 -95 L41 -95 L41 -135 L247 -135 Z " />
<glyph glyph-name="asciicircum" unicode="&#x5e;" horiz-adv-x="464" d="M29 384 L75 384 L232 708 L388 384 L436 384 L253 756 L210 756 L29 384 Z " />
<glyph glyph-name="underscore" unicode="&#x5f;" horiz-adv-x="571" d="M7 -94 L564 -94 L564 -50 L7 -50 L7 -94 Z " />
<glyph glyph-name="grave" unicode="&#x60;" horiz-adv-x="250" d="M200 643 L108 775 L50 775 L153 643 L200 643 Z " />
<glyph glyph-name="a" unicode="a" horiz-adv-x="676" d="M321 -14 C421 -14 498 39 536 128 L536 0 L583 0 L583 545 L536 545 L536 418 C498 506 422 560 322 560 C171 560 67 444 66 273 C67 102 170 -14 321 -14 L321 -14 Z M328 28 C201 28 115 127 114 273 C114 419 201 517 328 517 C452 517 536 419 536 273 C536 127 452 28 328 28 L328 28 Z " />
<glyph glyph-name="b" unicode="b" horiz-adv-x="676" d="M356 -14 C507 -14 609 102 610 273 C609 444 507 560 356 560 C255 560 178 506 140 418 L140 770 L93 770 L93 0 L140 0 L140 128 C178 39 255 -14 356 -14 L356 -14 Z M348 28 C224 28 140 127 140 273 C140 419 224 517 348 517 C475 517 561 419 562 273 C561 127 475 28 348 28 L348 28 Z " />
<glyph glyph-name="c" unicode="c" horiz-adv-x="587" d="M345 -15 C405 -15 468 -5 536 35 L522 75 C460 38 398 28 346 28 C212 28 114 125 114 273 C114 420 212 517 346 517 C396 517 454 509 523 470 L537 510 C466 551 404 560 346 560 C181 560 66 442 66 273 C66 103 181 -15 345 -15 L345 -15 Z " />
<glyph glyph-name="d" unicode="d" horiz-adv-x="676" d="M321 -14 C421 -14 498 39 536 128 L536 0 L583 0 L583 770 L536 770 L536 418 C498 506 421 560 321 560 C170 560 67 444 66 273 C67 102 170 -14 321 -14 L321 -14 Z M328 28 C201 28 115 127 114 273 C114 419 201 517 328 517 C452 517 536 419 536 273 C536 127 452 28 328 28 L328 28 Z " />
<glyph glyph-name="e" unicode="e" horiz-adv-x="632" d="M566 301 C562 458 467 560 322 560 C170 560 66 444 66 273 C66 101 179 -15 345 -15 C420 -15 501 7 552 39 L537 76 C486 47 412 28 346 28 C209 28 117 124 114 267 L563 267 C565 277 566 291 566 301 L566 301 Z M321 517 C440 517 516 435 519 307 L116 307 C128 434 207 517 321 517 L321 517 Z " />
<glyph glyph-name="f" unicode="f" horiz-adv-x="428" d="M314 745 C343 745 374 740 418 726 L431 763 C385 779 347 785 312 785 C214 785 156 730 156 617 L156 545 L26 545 L26 503 L156 503 L156 0 L202 0 L202 503 L382 503 L382 545 L202 545 L202 618 C202 704 240 745 314 745 L314 745 Z " />
<glyph glyph-name="g" unicode="g" horiz-adv-x="673" d="M322 -215 C473 -215 579 -140 579 -8 L579 545 L532 545 L532 422 C493 507 417 560 319 560 C169 560 67 445 66 276 C67 107 169 -7 319 -7 C418 -7 494 46 532 133 L532 -8 C532 -114 448 -172 323 -172 C266 -172 203 -160 143 -135 L131 -176 C195 -202 261 -215 322 -215 L322 -215 Z M326 35 C200 35 115 132 114 276 C114 420 200 517 326 517 C449 517 532 420 532 276 C532 132 449 35 326 35 L326 35 Z " />
<glyph glyph-name="h" unicode="h" horiz-adv-x="627" d="M93 0 L140 0 L140 299 C140 429 218 517 333 517 C427 517 488 458 488 363 L488 0 L534 0 L534 367 C534 485 458 560 342 560 C249 560 176 512 140 433 L140 770 L93 770 L93 0 Z " />
<glyph glyph-name="i" unicode="i" horiz-adv-x="236" d="M118 670 C139 670 156 687 156 708 C156 729 139 746 118 746 C96 746 80 729 80 708 C80 687 96 670 118 670 L118 670 Z M95 0 L141 0 L141 545 L95 545 L95 0 Z " />
<glyph glyph-name="j" unicode="j" horiz-adv-x="233" d="M115 670 C136 670 153 687 153 708 C153 729 136 746 115 746 C93 746 76 729 76 708 C76 687 93 670 115 670 L115 670 Z M8 -216 C90 -216 138 -163 138 -77 L138 545 L91 545 L91 -78 C91 -140 56 -175 3 -175 C-13 -175 -29 -173 -46 -166 L-57 -204 C-37 -212 -13 -216 8 -216 L8 -216 Z " />
<glyph glyph-name="k" unicode="k" horiz-adv-x="566" d="M491 0 L550 0 L286 302 L543 545 L484 545 L140 219 L140 770 L93 770 L93 0 L140 0 L140 163 L256 272 L491 0 Z " />
<glyph glyph-name="l" unicode="l" horiz-adv-x="233" d="M93 0 L140 0 L140 770 L93 770 L93 0 Z " />
<glyph glyph-name="m" unicode="m" horiz-adv-x="1021" d="M93 0 L140 0 L140 299 C140 429 216 517 329 517 C425 517 487 456 487 363 L487 0 L534 0 L534 299 C534 431 608 517 722 517 C818 517 881 458 881 366 L881 0 L928 0 L928 371 C928 486 851 560 732 560 C634 560 560 508 526 422 C508 507 438 560 339 560 C248 560 176 513 140 434 L140 545 L93 545 L93 0 Z " />
<glyph glyph-name="n" unicode="n" horiz-adv-x="641" d="M93 0 L140 0 L140 299 C140 429 220 517 338 517 C437 517 501 456 501 363 L501 0 L548 0 L548 367 C548 485 469 560 348 560 C252 560 177 512 140 431 L140 545 L93 545 L93 0 Z " />
<glyph glyph-name="o" unicode="o" horiz-adv-x="690" d="M345 -15 C508 -15 624 104 624 273 C624 441 508 560 345 560 C182 560 66 441 66 273 C66 104 182 -15 345 -15 L345 -15 Z M345 27 C210 27 115 128 115 273 C115 417 210 518 345 518 C480 518 575 417 575 273 C575 128 480 27 345 27 L345 27 Z " />
<glyph glyph-name="p" unicode="p" horiz-adv-x="676" d="M93 -200 L140 -200 L140 128 C178 39 255 -14 356 -14 C507 -14 609 102 610 273 C609 444 507 560 356 560 C255 560 178 506 140 418 L140 545 L93 545 L93 -200 Z M348 28 C224 28 140 127 140 273 C140 419 224 517 348 517 C475 517 561 419 562 273 C561 127 475 28 348 28 L348 28 Z " />
<glyph glyph-name="q" unicode="q" horiz-adv-x="676" d="M536 -200 L583 -200 L583 545 L536 545 L536 418 C497 506 420 560 320 560 C169 560 67 444 66 273 C67 102 169 -14 320 -14 C420 -14 497 39 536 128 L536 -200 Z M327 28 C200 28 115 127 114 273 C115 419 200 517 327 517 C451 517 536 419 536 273 C536 127 451 28 327 28 L327 28 Z " />
<glyph glyph-name="r" unicode="r" horiz-adv-x="393" d="M140 416 L140 545 L93 545 L93 0 L140 0 L140 260 C140 403 213 511 361 511 L376 511 L376 560 C262 560 181 507 140 416 L140 416 Z " />
<glyph glyph-name="s" unicode="s" horiz-adv-x="534" d="M255 -15 C380 -15 465 45 465 143 C465 243 359 273 269 300 C192 323 112 350 112 419 C112 482 171 517 265 517 C323 517 375 504 426 474 L442 515 C392 544 329 560 266 560 C140 560 65 503 65 418 C65 317 168 283 256 257 C335 234 418 212 418 141 C418 69 355 28 252 28 C190 28 125 48 73 82 L55 43 C111 5 186 -15 255 -15 L255 -15 Z " />
<glyph glyph-name="t" unicode="t" horiz-adv-x="452" d="M297 -15 C338 -15 396 -4 426 13 L426 57 C395 38 342 28 303 28 C243 28 203 64 203 120 L203 503 L415 503 L415 545 L203 545 L203 703 L157 703 L157 545 L26 545 L26 503 L157 503 L157 117 C157 39 213 -15 297 -15 L297 -15 Z " />
<glyph glyph-name="u" unicode="u" horiz-adv-x="641" d="M293 -15 C389 -15 464 33 501 114 L501 0 L548 0 L548 545 L501 545 L501 246 C501 116 422 28 303 28 C205 28 140 89 140 182 L140 545 L93 545 L93 178 C93 60 172 -15 293 -15 L293 -15 Z " />
<glyph glyph-name="v" unicode="v" horiz-adv-x="569" d="M255 0 L313 0 L553 545 L501 545 L284 50 L67 545 L16 545 L255 0 Z " />
<glyph glyph-name="w" unicode="w" horiz-adv-x="858" d="M212 0 L261 0 L429 490 L597 0 L647 0 L842 545 L792 545 L621 56 L455 545 L405 545 L239 56 L66 545 L16 545 L212 0 Z " />
<glyph glyph-name="x" unicode="x" horiz-adv-x="574" d="M28 0 L83 0 L286 249 L490 0 L545 0 L315 282 L528 545 L473 545 L285 314 L95 545 L38 545 L255 281 L28 0 Z " />
<glyph glyph-name="y" unicode="y" horiz-adv-x="563" d="M496 545 L277 63 L66 545 L16 545 L252 10 L155 -200 L205 -200 L546 545 L496 545 Z " />
<glyph glyph-name="z" unicode="z" horiz-adv-x="593" d="M130 40 L525 517 L525 545 L81 545 L81 505 L460 505 L66 29 L66 0 L528 0 L528 40 L130 40 Z " />
<glyph glyph-name="braceleft" unicode="&#x7b;" horiz-adv-x="302" d="M206 -136 L271 -136 L271 -98 L213 -98 C156 -98 131 -68 131 -10 L131 209 C131 255 106 289 76 303 C106 317 131 351 131 397 L131 606 C131 665 156 694 213 694 L271 694 L271 732 L206 732 C128 732 85 688 85 609 L85 399 C85 347 54 319 9 319 L9 287 C54 287 85 259 85 207 L85 -13 C85 -92 131 -136 206 -136 L206 -136 Z " />
<glyph glyph-name="bar" unicode="&#x7c;" horiz-adv-x="239" d="M97 -80 L145 -80 L145 785 L97 785 L97 -80 Z " />
<glyph glyph-name="braceright" unicode="&#x7d;" horiz-adv-x="302" d="M96 -136 C171 -136 217 -92 217 -13 L217 207 C217 259 248 287 293 287 L293 319 C248 319 217 347 217 399 L217 609 C217 688 174 732 96 732 L31 732 L31 694 L89 694 C146 694 171 665 171 606 L171 397 C171 351 196 317 226 303 C196 289 171 255 171 209 L171 -10 C171 -68 146 -98 89 -98 L31 -98 L31 -136 L96 -136 Z " />
<glyph glyph-name="asciitilde" unicode="&#x7e;" horiz-adv-x="495" d="M33 497 L71 497 C82 626 113 697 162 697 C246 697 216 499 333 499 C411 499 450 588 462 731 L423 731 C413 602 382 531 333 531 C249 531 282 730 162 730 C84 730 45 640 33 497 L33 497 Z " />
<glyph glyph-name="exclamdown" unicode="&#xa1;" horiz-adv-x="267" d="M132 515 C155 515 173 534 173 556 C173 579 155 597 132 597 C109 597 91 579 91 556 C91 534 109 515 132 515 L132 515 Z M108 -143 L156 -143 L156 -16 L150 398 L114 398 L108 -16 L108 -143 Z " />
<glyph glyph-name="cent" unicode="&#xa2;" horiz-adv-x="554" d="M490 75 C434 39 378 29 331 28 L331 517 C376 517 429 508 491 470 L504 510 C440 550 383 560 331 560 L331 643 L294 643 L294 558 C159 542 66 430 66 273 C66 115 159 2 294 -13 L294 -98 L331 -98 L331 -15 C385 -14 442 -4 504 35 L490 75 Z M114 273 C114 404 186 499 294 515 L294 30 C186 46 114 141 114 273 L114 273 Z " />
<glyph glyph-name="sterling" unicode="&#xa3;" horiz-adv-x="588" d="M33 0 L549 0 L549 44 L177 44 L177 322 L424 322 L424 366 L177 366 L177 525 C177 632 241 700 341 700 C406 700 459 678 505 645 L528 684 C476 720 415 745 346 745 C213 745 129 663 129 535 L129 366 L33 366 L33 322 L129 322 L129 44 L33 44 L33 0 Z " />
<glyph glyph-name="currency" unicode="&#xa4;" horiz-adv-x="565" d="M65 146 L145 227 C183 196 231 178 284 178 C336 178 384 195 421 225 L500 146 L528 175 L450 254 C481 292 499 339 499 392 C499 446 480 494 448 533 L528 613 L499 642 L419 561 C382 590 336 606 284 606 C231 606 185 589 148 559 L65 642 L36 614 L119 531 C87 492 69 445 69 392 C69 340 86 294 117 256 L37 175 L65 146 Z M284 222 C188 222 118 299 118 392 C118 485 188 562 284 562 C379 562 450 487 450 392 C450 299 380 222 284 222 L284 222 Z " />
<glyph glyph-name="yen" unicode="&#xa5;" horiz-adv-x="668" d="M647 730 L592 730 L334 356 L75 730 L20 730 L289 343 L109 343 L109 305 L310 305 L310 211 L109 211 L109 172 L310 172 L310 0 L357 0 L357 172 L558 172 L558 211 L357 211 L357 305 L558 305 L558 343 L378 343 L647 730 Z " />
<glyph glyph-name="brokenbar" unicode="&#xa6;" horiz-adv-x="239" d="M97 423 L145 423 L145 785 L97 785 L97 423 Z M97 -80 L145 -80 L145 299 L97 299 L97 -80 Z " />
<glyph glyph-name="section" unicode="&#xa7;" horiz-adv-x="641" d="M484 339 L162 659 C199 688 253 702 320 702 C382 702 458 680 520 647 L536 690 C464 723 395 746 320 746 C168 746 67 678 67 554 C67 503 95 444 145 394 L471 74 C435 45 381 30 315 30 C241 30 172 52 106 88 L88 46 C163 9 228 -14 314 -14 C465 -14 565 55 565 179 C565 228 536 287 484 339 L484 339 Z M113 554 C113 581 119 604 131 624 L445 312 C493 265 519 216 519 179 C519 152 513 128 501 109 L184 421 C139 466 113 515 113 554 L113 554 Z " />
<glyph glyph-name="dieresis" unicode="&#xa8;" horiz-adv-x="363" d="M87 670 C107 670 124 687 124 708 C124 728 107 744 87 744 C66 744 50 728 50 708 C50 687 66 670 87 670 L87 670 Z M276 670 C296 670 313 687 313 708 C313 728 296 744 276 744 C255 744 239 728 239 708 C239 687 255 670 276 670 L276 670 Z " />
<glyph glyph-name="copyright" unicode="&#xa9;" horiz-adv-x="896" d="M448 -15 C658 -15 827 157 827 366 C827 574 658 745 448 745 C239 745 68 574 68 366 C68 157 239 -15 448 -15 L448 -15 Z M448 17 C256 17 101 174 101 366 C101 557 256 713 448 713 C639 713 795 558 795 366 C795 174 639 17 448 17 L448 17 Z M458 157 C502 157 556 170 592 189 L583 220 C552 201 503 189 459 189 C358 189 288 261 289 365 C289 472 360 546 465 546 C502 546 550 534 582 517 L591 547 C555 565 507 578 464 578 C339 578 253 491 253 365 C253 243 336 157 458 157 L458 157 Z " />
<glyph glyph-name="ordfeminine" unicode="&#xaa;" horiz-adv-x="407" d="M202 425 C254 425 298 453 319 498 L319 434 L353 434 L353 737 L319 737 L319 673 C298 717 254 746 202 746 C115 746 55 681 55 585 C55 490 115 425 202 425 L202 425 Z M206 456 C138 456 91 507 90 585 C89 663 136 714 206 714 C274 714 317 660 317 585 C317 511 274 456 206 456 L206 456 Z " />
<glyph glyph-name="guillemotleft" unicode="&#xab;" horiz-adv-x="433" d="M192 93 L240 93 L84 273 L238 450 L189 450 L36 273 L192 93 Z M350 93 L397 93 L242 273 L395 450 L346 450 L193 273 L350 93 Z " />
<glyph glyph-name="logicalnot" unicode="&#xac;" horiz-adv-x="503" d="M420 273 L461 273 L461 452 L38 452 L38 412 L420 412 L420 273 Z " />
<glyph glyph-name="uni00AD" unicode="&#xad;" horiz-adv-x="332" d="M42 265 L290 265 L290 307 L42 307 L42 265 Z " />
<glyph glyph-name="registered" unicode="&#xae;" horiz-adv-x="896" d="M448 745 C239 745 68 574 68 366 C68 157 239 -15 448 -15 C658 -15 827 157 827 366 C827 574 658 745 448 745 L448 745 Z M448 17 C256 17 101 174 101 366 C101 557 256 713 448 713 C639 713 795 558 795 366 C795 174 639 17 448 17 L448 17 Z M611 457 C611 527 553 572 468 572 L306 572 L306 164 L341 164 L341 340 L466 340 L470 340 L608 164 L649 164 L507 344 C570 356 611 399 611 457 L611 457 Z M341 541 L468 541 C534 541 576 508 576 457 C576 406 534 372 468 372 L341 372 L341 541 Z " />
<glyph glyph-name="macron" unicode="&#xaf;" horiz-adv-x="365" d="M50 675 L315 675 L315 712 L50 712 L50 675 Z " />
<glyph glyph-name="degree" unicode="&#xb0;" horiz-adv-x="341" d="M170 523 C243 523 301 582 301 654 C301 727 243 785 170 785 C98 785 40 727 40 654 C40 582 98 523 170 523 L170 523 Z M170 562 C120 562 79 603 79 654 C79 707 120 748 170 748 C222 748 263 707 263 654 C263 603 222 562 170 562 L170 562 Z " />
<glyph glyph-name="plusminus" unicode="&#xb1;" horiz-adv-x="531" d="M245 125 L286 125 L286 332 L493 332 L493 372 L286 372 L286 579 L245 579 L245 372 L38 372 L38 332 L245 332 L245 125 Z M41 0 L490 0 L490 40 L41 40 L41 0 Z " />
<glyph glyph-name="uni00B2" unicode="&#xb2;" horiz-adv-x="387" d="M54 472 L335 472 L335 505 L111 505 L225 599 C314 668 330 720 330 767 C330 840 273 887 193 888 C146 889 97 869 52 841 L65 812 C106 837 149 855 193 855 C250 855 294 820 294 766 C294 726 278 679 198 617 L54 501 L54 472 Z " />
<glyph glyph-name="uni00B3" unicode="&#xb3;" horiz-adv-x="368" d="M189 465 C272 465 329 514 329 584 C329 635 288 675 234 683 C285 692 323 730 323 779 C323 844 268 889 188 889 C145 889 96 875 54 852 L66 821 C100 841 145 857 184 857 C244 857 288 824 288 777 C288 728 243 698 179 698 L126 698 L126 665 L179 665 C246 665 293 635 293 586 C293 534 249 497 187 497 C140 497 97 516 62 540 L47 510 C88 482 138 465 189 465 L189 465 Z " />
<glyph glyph-name="acute" unicode="&#xb4;" horiz-adv-x="250" d="M50 643 L97 643 L200 775 L142 775 L50 643 Z " />
<glyph glyph-name="uni00B5" unicode="&#xb5;" horiz-adv-x="641" d="M501 545 L501 246 C501 116 422 28 303 28 C205 28 140 89 140 182 L140 545 L93 545 L93 -200 L138 -200 L133 53 C168 10 224 -15 293 -15 C389 -15 464 33 501 114 L501 0 L548 0 L548 545 L501 545 Z " />
<glyph glyph-name="paragraph" unicode="&#xb6;" horiz-adv-x="537" d="M255 730 C129 730 34 657 34 554 C34 456 129 388 255 388 L274 388 L274 -1 L314 -1 L314 688 L406 688 L406 -1 L447 -1 L447 730 L255 730 Z " />
<glyph glyph-name="periodcentered" unicode="&#xb7;" horiz-adv-x="236" d="M118 299 C141 299 159 317 159 340 C159 362 141 380 118 380 C95 380 77 362 77 340 C77 317 95 299 118 299 L118 299 Z " />
<glyph glyph-name="cedilla" unicode="&#xb8;" horiz-adv-x="190" d="M50 -201 L91 -201 L140 -51 L95 -51 L50 -201 Z " />
<glyph glyph-name="uni00B9" unicode="&#xb9;" horiz-adv-x="241" d="M146 473 L182 473 L182 881 L149 881 L18 829 L31 801 L146 844 L146 473 Z " />
<glyph glyph-name="ordmasculine" unicode="&#xba;" horiz-adv-x="424" d="M211 424 C305 424 369 491 369 586 C369 679 305 745 211 745 C119 745 55 679 55 586 C55 491 119 424 211 424 L211 424 Z M211 457 C139 457 89 510 89 586 C89 661 139 713 211 713 C284 713 334 661 334 586 C334 510 284 457 211 457 L211 457 Z " />
<glyph glyph-name="guillemotright" unicode="&#xbb;" horiz-adv-x="433" d="M36 93 L84 93 L240 273 L87 450 L39 450 L192 273 L36 93 Z M193 93 L241 93 L397 273 L244 450 L196 450 L349 273 L193 93 Z " />
<glyph glyph-name="onequarter" unicode="&#xbc;" horiz-adv-x="765" d="M145 323 L182 323 L182 731 L149 731 L17 679 L30 651 L145 694 L145 323 Z M116 0 L158 0 L605 730 L563 730 L116 0 Z M617 0 L653 0 L653 114 L724 114 L724 146 L653 146 L653 408 L608 408 L396 141 L396 114 L617 114 L617 0 Z M438 146 L617 369 L617 146 L438 146 Z " />
<glyph glyph-name="onehalf" unicode="&#xbd;" horiz-adv-x="805" d="M145 323 L182 323 L182 731 L149 731 L17 679 L30 651 L145 694 L145 323 Z M116 0 L158 0 L605 730 L563 730 L116 0 Z M472 0 L753 0 L753 33 L530 33 L643 127 C732 196 748 248 748 295 C748 368 691 415 612 416 C564 417 515 397 470 369 L483 340 C524 365 567 383 611 383 C668 383 712 348 712 294 C712 254 696 207 616 144 L472 29 L472 0 Z " />
<glyph glyph-name="threequarters" unicode="&#xbe;" horiz-adv-x="867" d="M189 314 C272 314 328 363 328 433 C328 484 287 525 233 533 C285 541 323 579 323 628 C323 693 267 738 187 738 C144 738 95 724 53 701 L66 671 C100 690 145 706 183 706 C243 706 287 673 287 626 C287 578 243 547 178 547 L125 547 L125 514 L179 514 C245 514 292 484 292 435 C292 383 248 346 187 346 C139 346 97 365 61 389 L47 359 C87 331 137 314 189 314 L189 314 Z M218 0 L260 0 L707 730 L665 730 L218 0 Z M719 0 L755 0 L755 114 L826 114 L826 146 L755 146 L755 408 L710 408 L498 141 L498 114 L719 114 L719 0 Z M540 146 L719 369 L719 146 L540 146 Z " />
<glyph glyph-name="questiondown" unicode="&#xbf;" horiz-adv-x="513" d="M297 597 C274 597 256 579 256 556 C256 533 274 516 297 516 C320 516 338 533 338 556 C338 579 320 597 297 597 L297 597 Z M317 385 L278 385 L278 329 C278 208 57 191 57 14 C57 -83 136 -153 267 -153 C337 -153 410 -127 475 -90 L459 -48 C403 -84 333 -107 265 -107 C170 -107 106 -55 106 14 C106 165 320 181 320 323 L317 385 Z " />
<glyph glyph-name="Agrave" unicode="&#xc0;" horiz-adv-x="750" d="M341 801 L388 801 L296 933 L238 933 L341 801 Z M29 0 L80 0 L164 193 L584 193 L667 0 L719 0 L400 730 L350 730 L29 0 Z M183 236 L375 677 L566 236 L183 236 Z " />
<glyph glyph-name="Aacute" unicode="&#xc1;" horiz-adv-x="750" d="M348 799 L395 799 L498 931 L440 931 L348 799 Z M29 0 L80 0 L164 193 L584 193 L667 0 L719 0 L400 730 L350 730 L29 0 Z M183 236 L375 677 L566 236 L183 236 Z " />
<glyph glyph-name="Acircumflex" unicode="&#xc2;" horiz-adv-x="750" d="M241 793 L288 793 L371 886 L454 793 L503 793 L391 916 L350 916 L241 793 Z M29 0 L80 0 L164 193 L584 193 L667 0 L719 0 L400 730 L350 730 L29 0 Z M183 236 L375 677 L566 236 L183 236 Z " />
<glyph glyph-name="Atilde" unicode="&#xc3;" horiz-adv-x="750" d="M437 813 C487 813 517 855 517 908 L483 908 C481 870 463 850 435 850 C391 850 363 909 304 909 C252 909 219 870 219 815 L254 815 C255 852 276 873 306 873 C346 873 379 813 437 813 L437 813 Z M29 0 L80 0 L164 193 L584 193 L667 0 L719 0 L400 730 L350 730 L29 0 Z M183 236 L375 677 L566 236 L183 236 Z " />
<glyph glyph-name="Adieresis" unicode="&#xc4;" horiz-adv-x="750" d="M278 825 C298 825 315 842 315 863 C315 883 298 899 278 899 C257 899 241 883 241 863 C241 842 257 825 278 825 L278 825 Z M467 825 C487 825 504 842 504 863 C504 883 487 899 467 899 C446 899 430 883 430 863 C430 842 446 825 467 825 L467 825 Z M29 0 L80 0 L164 193 L584 193 L667 0 L719 0 L400 730 L350 730 L29 0 Z M183 236 L375 677 L566 236 L183 236 Z " />
<glyph glyph-name="Aring" unicode="&#xc5;" horiz-adv-x="750" d="M374 765 C427 765 464 801 464 851 C464 902 427 938 374 938 C320 938 283 902 283 851 C283 801 320 765 374 765 L374 765 Z M374 796 C340 796 317 818 316 851 C317 884 340 907 374 907 C407 907 430 884 430 851 C430 818 407 796 374 796 L374 796 Z M29 0 L80 0 L164 193 L584 193 L667 0 L719 0 L400 730 L350 730 L29 0 Z M183 236 L375 677 L566 236 L183 236 Z " />
<glyph glyph-name="AE" unicode="&#xc6;" horiz-adv-x="1104" d="M29 0 L81 0 L214 193 L554 193 L554 0 L1032 0 L1032 44 L602 44 L602 338 L995 338 L995 383 L602 383 L602 686 L1031 686 L1031 730 L524 730 L29 0 Z M243 236 L552 687 L554 687 L554 236 L243 236 Z " />
<glyph glyph-name="Ccedilla" unicode="&#xc7;" horiz-adv-x="731" d="M434 -15 C528 -15 606 2 685 41 L669 85 C609 51 523 30 437 30 C246 30 118 162 118 360 C118 564 251 700 450 700 C519 700 607 679 666 646 L683 689 C607 727 534 745 448 745 C220 745 68 591 68 360 C68 135 214 -15 434 -15 L434 -15 Z M368 -201 L409 -201 L458 -51 L413 -51 L368 -201 Z " />
<glyph glyph-name="Egrave" unicode="&#xc8;" horiz-adv-x="679" d="M359 801 L267 933 L209 933 L312 801 L359 801 Z M144 44 L144 338 L562 338 L562 383 L144 383 L144 686 L606 686 L606 730 L96 730 L96 0 L607 0 L607 44 L144 44 Z " />
<glyph glyph-name="Eacute" unicode="&#xc9;" horiz-adv-x="679" d="M469 931 L411 931 L319 799 L366 799 L469 931 Z M144 44 L144 338 L562 338 L562 383 L144 383 L144 686 L606 686 L606 730 L96 730 L96 0 L607 0 L607 44 L144 44 Z " />
<glyph glyph-name="Ecircumflex" unicode="&#xca;" horiz-adv-x="679" d="M342 886 L425 793 L474 793 L362 916 L321 916 L212 793 L259 793 L342 886 Z M144 44 L144 338 L562 338 L562 383 L144 383 L144 686 L606 686 L606 730 L96 730 L96 0 L607 0 L607 44 L144 44 Z " />
<glyph glyph-name="Edieresis" unicode="&#xcb;" horiz-adv-x="679" d="M249 825 C269 825 286 842 286 863 C286 883 269 899 249 899 C228 899 212 883 212 863 C212 842 228 825 249 825 L249 825 Z M438 825 C458 825 475 842 475 863 C475 883 458 899 438 899 C417 899 401 883 401 863 C401 842 417 825 438 825 L438 825 Z M144 44 L144 338 L562 338 L562 383 L144 383 L144 686 L606 686 L606 730 L96 730 L96 0 L607 0 L607 44 L144 44 Z " />
<glyph glyph-name="Igrave" unicode="&#xcc;" horiz-adv-x="239" d="M89 801 L136 801 L44 933 L-14 933 L89 801 Z M96 0 L144 0 L144 730 L96 730 L96 0 Z " />
<glyph glyph-name="Iacute" unicode="&#xcd;" horiz-adv-x="239" d="M96 799 L143 799 L246 931 L188 931 L96 799 Z M96 0 L144 0 L144 730 L96 730 L96 0 Z " />
<glyph glyph-name="Icircumflex" unicode="&#xce;" horiz-adv-x="239" d="M-11 793 L36 793 L119 886 L202 793 L251 793 L139 916 L98 916 L-11 793 Z M96 0 L144 0 L144 730 L96 730 L96 0 Z " />
<glyph glyph-name="Idieresis" unicode="&#xcf;" horiz-adv-x="239" d="M26 825 C46 825 63 842 63 863 C63 883 46 899 26 899 C5 899 -11 883 -11 863 C-11 842 5 825 26 825 L26 825 Z M215 825 C235 825 252 842 252 863 C252 883 235 899 215 899 C194 899 178 883 178 863 C178 842 194 825 215 825 L215 825 Z M96 0 L144 0 L144 730 L96 730 L96 0 Z " />
<glyph glyph-name="Eth" unicode="&#xd0;" horiz-adv-x="758" d="M308 730 L105 730 L105 383 L26 383 L26 344 L105 344 L105 0 L309 0 C550 0 724 147 724 360 C724 579 550 730 308 730 L308 730 Z M309 44 L153 45 L153 344 L365 344 L365 383 L153 383 L153 686 L309 686 C520 686 674 552 674 360 C674 174 520 44 309 44 L309 44 Z " />
<glyph glyph-name="Ntilde" unicode="&#xd1;" horiz-adv-x="795" d="M331 873 C371 873 404 813 462 813 C512 813 542 855 542 908 L508 908 C506 870 488 850 460 850 C416 850 388 909 329 909 C277 909 244 870 244 815 L279 815 C280 852 301 873 331 873 L331 873 Z M652 730 L652 75 L143 730 L96 730 L96 0 L144 0 L144 654 L654 0 L699 0 L699 730 L652 730 Z " />
<glyph glyph-name="Ograve" unicode="&#xd2;" horiz-adv-x="869" d="M403 802 L450 802 L358 934 L300 934 L403 802 Z M435 -15 C647 -15 801 145 801 365 C801 585 647 745 435 745 C222 745 68 585 68 365 C68 145 222 -15 435 -15 L435 -15 Z M435 29 C251 29 117 170 117 365 C117 560 251 701 435 701 C618 701 752 560 752 365 C752 170 618 29 435 29 L435 29 Z " />
<glyph glyph-name="Oacute" unicode="&#xd3;" horiz-adv-x="869" d="M410 800 L457 800 L560 932 L502 932 L410 800 Z M435 -15 C647 -15 801 145 801 365 C801 585 647 745 435 745 C222 745 68 585 68 365 C68 145 222 -15 435 -15 L435 -15 Z M435 29 C251 29 117 170 117 365 C117 560 251 701 435 701 C618 701 752 560 752 365 C752 170 618 29 435 29 L435 29 Z " />
<glyph glyph-name="Ocircumflex" unicode="&#xd4;" horiz-adv-x="869" d="M303 794 L350 794 L433 887 L516 794 L565 794 L453 917 L412 917 L303 794 Z M435 -15 C647 -15 801 145 801 365 C801 585 647 745 435 745 C222 745 68 585 68 365 C68 145 222 -15 435 -15 L435 -15 Z M435 29 C251 29 117 170 117 365 C117 560 251 701 435 701 C618 701 752 560 752 365 C752 170 618 29 435 29 L435 29 Z " />
<glyph glyph-name="Otilde" unicode="&#xd5;" horiz-adv-x="869" d="M499 814 C549 814 579 856 579 909 L545 909 C543 871 525 851 497 851 C453 851 425 910 366 910 C314 910 281 871 281 816 L316 816 C317 853 338 874 368 874 C408 874 441 814 499 814 L499 814 Z M435 -15 C647 -15 801 145 801 365 C801 585 647 745 435 745 C222 745 68 585 68 365 C68 145 222 -15 435 -15 L435 -15 Z M435 29 C251 29 117 170 117 365 C117 560 251 701 435 701 C618 701 752 560 752 365 C752 170 618 29 435 29 L435 29 Z " />
<glyph glyph-name="Odieresis" unicode="&#xd6;" horiz-adv-x="869" d="M340 826 C360 826 377 843 377 864 C377 884 360 900 340 900 C319 900 303 884 303 864 C303 843 319 826 340 826 L340 826 Z M529 826 C549 826 566 843 566 864 C566 884 549 900 529 900 C508 900 492 884 492 864 C492 843 508 826 529 826 L529 826 Z M435 -15 C647 -15 801 145 801 365 C801 585 647 745 435 745 C222 745 68 585 68 365 C68 145 222 -15 435 -15 L435 -15 Z M435 29 C251 29 117 170 117 365 C117 560 251 701 435 701 C618 701 752 560 752 365 C752 170 618 29 435 29 L435 29 Z " />
<glyph glyph-name="multiply" unicode="&#xd7;" horiz-adv-x="535" d="M110 165 L267 324 L425 165 L455 194 L296 352 L455 510 L425 539 L268 380 L111 539 L80 510 L239 352 L80 194 L110 165 Z " />
<glyph glyph-name="Oslash" unicode="&#xd8;" horiz-adv-x="869" d="M703 632 L791 730 L738 730 L674 659 C611 714 529 745 435 745 C222 745 68 585 68 365 C68 258 105 165 167 97 L79 0 L133 0 L196 70 C259 16 341 -15 435 -15 C647 -15 801 145 801 365 C801 472 765 565 703 632 L703 632 Z M117 365 C117 560 251 701 435 701 C517 701 588 673 643 625 L199 133 C147 192 117 272 117 365 L117 365 Z M435 29 C353 29 282 57 227 104 L671 597 C722 538 752 457 752 365 C752 170 618 29 435 29 L435 29 Z " />
<glyph glyph-name="Ugrave" unicode="&#xd9;" horiz-adv-x="775" d="M395 801 L442 801 L350 933 L292 933 L395 801 Z M387 -15 C571 -15 679 85 679 258 L679 730 L632 730 L632 258 C632 112 542 30 387 30 C234 30 144 112 144 258 L144 730 L96 730 L96 258 C96 85 204 -15 387 -15 L387 -15 Z " />
<glyph glyph-name="Uacute" unicode="&#xda;" horiz-adv-x="775" d="M322 799 L369 799 L472 931 L414 931 L322 799 Z M387 -15 C571 -15 679 85 679 258 L679 730 L632 730 L632 258 C632 112 542 30 387 30 C234 30 144 112 144 258 L144 730 L96 730 L96 258 C96 85 204 -15 387 -15 L387 -15 Z " />
<glyph glyph-name="Ucircumflex" unicode="&#xdb;" horiz-adv-x="775" d="M257 793 L304 793 L387 886 L470 793 L519 793 L407 916 L366 916 L257 793 Z M387 -15 C571 -15 679 85 679 258 L679 730 L632 730 L632 258 C632 112 542 30 387 30 C234 30 144 112 144 258 L144 730 L96 730 L96 258 C96 85 204 -15 387 -15 L387 -15 Z " />
<glyph glyph-name="Udieresis" unicode="&#xdc;" horiz-adv-x="775" d="M294 825 C314 825 331 842 331 863 C331 883 314 899 294 899 C273 899 257 883 257 863 C257 842 273 825 294 825 L294 825 Z M483 825 C503 825 520 842 520 863 C520 883 503 899 483 899 C462 899 446 883 446 863 C446 842 462 825 483 825 L483 825 Z M387 -15 C571 -15 679 85 679 258 L679 730 L632 730 L632 258 C632 112 542 30 387 30 C234 30 144 112 144 258 L144 730 L96 730 L96 258 C96 85 204 -15 387 -15 L387 -15 Z " />
<glyph glyph-name="Yacute" unicode="&#xdd;" horiz-adv-x="666" d="M308 799 L355 799 L458 931 L400 931 L308 799 Z M309 0 L357 0 L357 313 L647 730 L591 730 L334 356 L74 730 L20 730 L309 313 L309 0 Z " />
<glyph glyph-name="Thorn" unicode="&#xde;" horiz-adv-x="638" d="M93 0 L141 0 L141 170 L337 170 C476 170 574 258 574 386 C574 515 476 603 337 603 L141 603 L141 730 L93 730 L93 0 Z M141 214 L141 559 L336 559 C447 559 525 490 525 386 C525 283 447 214 336 214 L141 214 Z " />
<glyph glyph-name="germandbls" unicode="&#xdf;" horiz-adv-x="673" d="M426 -15 C548 -15 632 52 632 150 C632 260 529 282 449 308 C398 324 355 343 355 388 C355 439 392 460 427 489 C459 514 492 544 492 608 C492 690 416 745 304 745 C179 745 93 675 93 570 L93 0 L140 0 L140 568 C140 649 206 702 303 702 C388 702 445 663 445 604 C445 562 420 538 391 514 C353 482 308 453 308 388 C308 311 367 286 430 266 C504 242 584 227 584 150 C584 77 520 27 426 27 C374 27 315 42 265 69 L244 32 C300 2 368 -15 426 -15 L426 -15 Z " />
<glyph glyph-name="agrave" unicode="&#xe0;" horiz-adv-x="676" d="M341 643 L249 775 L191 775 L294 643 L341 643 Z M321 -14 C421 -14 498 39 536 128 L536 0 L583 0 L583 545 L536 545 L536 418 C498 506 422 560 322 560 C171 560 67 444 66 273 C67 102 170 -14 321 -14 L321 -14 Z M328 28 C201 28 115 127 114 273 C114 419 201 517 328 517 C452 517 536 419 536 273 C536 127 452 28 328 28 L328 28 Z " />
<glyph glyph-name="aacute" unicode="&#xe1;" horiz-adv-x="676" d="M298 643 L345 643 L448 775 L390 775 L298 643 Z M321 -14 C421 -14 498 39 536 128 L536 0 L583 0 L583 545 L536 545 L536 418 C498 506 422 560 322 560 C171 560 67 444 66 273 C67 102 170 -14 321 -14 L321 -14 Z M328 28 C201 28 115 127 114 273 C114 419 201 517 328 517 C452 517 536 419 536 273 C536 127 452 28 328 28 L328 28 Z " />
<glyph glyph-name="acircumflex" unicode="&#xe2;" horiz-adv-x="676" d="M300 764 L191 640 L238 640 L321 734 L404 640 L453 640 L341 764 L300 764 Z M321 -14 C421 -14 498 39 536 128 L536 0 L583 0 L583 545 L536 545 L536 418 C498 506 422 560 322 560 C171 560 67 444 66 273 C67 102 170 -14 321 -14 L321 -14 Z M328 28 C201 28 115 127 114 273 C114 419 201 517 328 517 C452 517 536 419 536 273 C536 127 452 28 328 28 L328 28 Z " />
<glyph glyph-name="atilde" unicode="&#xe3;" horiz-adv-x="676" d="M390 654 C440 654 470 696 470 749 L436 749 C434 711 416 691 388 691 C344 691 316 750 257 750 C205 750 172 711 172 656 L207 656 C208 693 229 714 259 714 C299 714 332 654 390 654 L390 654 Z M321 -14 C421 -14 498 39 536 128 L536 0 L583 0 L583 545 L536 545 L536 418 C498 506 422 560 322 560 C171 560 67 444 66 273 C67 102 170 -14 321 -14 L321 -14 Z M328 28 C201 28 115 127 114 273 C114 419 201 517 328 517 C452 517 536 419 536 273 C536 127 452 28 328 28 L328 28 Z " />
<glyph glyph-name="adieresis" unicode="&#xe4;" horiz-adv-x="676" d="M226 670 C246 670 263 687 263 708 C263 728 246 744 226 744 C205 744 189 728 189 708 C189 687 205 670 226 670 L226 670 Z M415 670 C435 670 452 687 452 708 C452 728 435 744 415 744 C394 744 378 728 378 708 C378 687 394 670 415 670 L415 670 Z M321 -14 C421 -14 498 39 536 128 L536 0 L583 0 L583 545 L536 545 L536 418 C498 506 422 560 322 560 C171 560 67 444 66 273 C67 102 170 -14 321 -14 L321 -14 Z M328 28 C201 28 115 127 114 273 C114 419 201 517 328 517 C452 517 536 419 536 273 C536 127 452 28 328 28 L328 28 Z " />
<glyph glyph-name="aring" unicode="&#xe5;" horiz-adv-x="676" d="M322 627 C375 627 412 663 412 713 C412 764 375 800 322 800 C268 800 231 764 231 713 C231 663 268 627 322 627 L322 627 Z M322 658 C288 658 265 680 264 713 C265 746 288 769 322 769 C355 769 378 746 378 713 C378 680 355 658 322 658 L322 658 Z M321 -14 C421 -14 498 39 536 128 L536 0 L583 0 L583 545 L536 545 L536 418 C498 506 422 560 322 560 C171 560 67 444 66 273 C67 102 170 -14 321 -14 L321 -14 Z M328 28 C201 28 115 127 114 273 C114 419 201 517 328 517 C452 517 536 419 536 273 C536 127 452 28 328 28 L328 28 Z " />
<glyph glyph-name="ae" unicode="&#xe6;" horiz-adv-x="1102" d="M321 -14 C421 -14 498 39 536 128 L536 0 L583 0 L583 114 C628 33 710 -15 815 -15 C890 -15 971 7 1022 39 L1007 76 C956 47 882 28 816 28 C680 28 588 123 585 267 L1033 267 C1035 277 1036 291 1036 301 C1033 458 937 560 792 560 C698 560 623 514 583 437 L583 545 L536 545 L536 418 C498 506 421 560 321 560 C170 560 67 444 66 273 C67 102 170 -14 321 -14 L321 -14 Z M328 28 C201 28 115 127 114 273 C114 419 201 517 328 517 C452 517 536 419 536 273 C536 127 452 28 328 28 L328 28 Z M586 307 C597 434 677 517 791 517 C909 517 986 435 990 307 L586 307 Z " />
<glyph glyph-name="ccedilla" unicode="&#xe7;" horiz-adv-x="587" d="M345 -15 C405 -15 468 -5 536 35 L522 75 C460 38 398 28 346 28 C212 28 114 125 114 273 C114 420 212 517 346 517 C396 517 454 509 523 470 L537 510 C466 551 404 560 346 560 C181 560 66 442 66 273 C66 103 181 -15 345 -15 L345 -15 Z M285 -201 L326 -201 L375 -51 L330 -51 L285 -201 Z " />
<glyph glyph-name="egrave" unicode="&#xe8;" horiz-adv-x="632" d="M342 643 L250 775 L192 775 L295 643 L342 643 Z M566 301 C562 458 467 560 322 560 C170 560 66 444 66 273 C66 101 179 -15 345 -15 C420 -15 501 7 552 39 L537 76 C486 47 412 28 346 28 C209 28 117 124 114 267 L563 267 C565 277 566 291 566 301 L566 301 Z M321 517 C440 517 516 435 519 307 L116 307 C128 434 207 517 321 517 L321 517 Z " />
<glyph glyph-name="eacute" unicode="&#xe9;" horiz-adv-x="632" d="M449 775 L391 775 L299 643 L346 643 L449 775 Z M566 301 C562 458 467 560 322 560 C170 560 66 444 66 273 C66 101 179 -15 345 -15 C420 -15 501 7 552 39 L537 76 C486 47 412 28 346 28 C209 28 117 124 114 267 L563 267 C565 277 566 291 566 301 L566 301 Z M321 517 C440 517 516 435 519 307 L116 307 C128 434 207 517 321 517 L321 517 Z " />
<glyph glyph-name="ecircumflex" unicode="&#xea;" horiz-adv-x="632" d="M322 734 L405 640 L454 640 L342 764 L301 764 L192 640 L239 640 L322 734 Z M566 301 C562 458 467 560 322 560 C170 560 66 444 66 273 C66 101 179 -15 345 -15 C420 -15 501 7 552 39 L537 76 C486 47 412 28 346 28 C209 28 117 124 114 267 L563 267 C565 277 566 291 566 301 L566 301 Z M321 517 C440 517 516 435 519 307 L116 307 C128 434 207 517 321 517 L321 517 Z " />
<glyph glyph-name="edieresis" unicode="&#xeb;" horiz-adv-x="632" d="M227 670 C247 670 264 687 264 708 C264 728 247 744 227 744 C206 744 190 728 190 708 C190 687 206 670 227 670 L227 670 Z M416 670 C436 670 453 687 453 708 C453 728 436 744 416 744 C395 744 379 728 379 708 C379 687 395 670 416 670 L416 670 Z M566 301 C562 458 467 560 322 560 C170 560 66 444 66 273 C66 101 179 -15 345 -15 C420 -15 501 7 552 39 L537 76 C486 47 412 28 346 28 C209 28 117 124 114 267 L563 267 C565 277 566 291 566 301 L566 301 Z M321 517 C440 517 516 435 519 307 L116 307 C128 434 207 517 321 517 L321 517 Z " />
<glyph glyph-name="igrave" unicode="&#xec;" horiz-adv-x="233" d="M136 643 L44 775 L-14 775 L89 643 L136 643 Z M93 0 L140 0 L140 545 L93 545 L93 0 Z " />
<glyph glyph-name="iacute" unicode="&#xed;" horiz-adv-x="233" d="M93 643 L140 643 L243 775 L185 775 L93 643 Z M93 0 L140 0 L140 545 L93 545 L93 0 Z " />
<glyph glyph-name="icircumflex" unicode="&#xee;" horiz-adv-x="233" d="M95 764 L-14 640 L33 640 L116 734 L199 640 L248 640 L136 764 L95 764 Z M93 0 L140 0 L140 545 L93 545 L93 0 Z " />
<glyph glyph-name="idieresis" unicode="&#xef;" horiz-adv-x="233" d="M21 670 C41 670 58 687 58 708 C58 728 41 744 21 744 C0 744 -16 728 -16 708 C-16 687 0 670 21 670 L21 670 Z M210 670 C230 670 247 687 247 708 C247 728 230 744 210 744 C189 744 173 728 173 708 C173 687 189 670 210 670 L210 670 Z M93 0 L140 0 L140 545 L93 545 L93 0 Z " />
<glyph glyph-name="eth" unicode="&#xf0;" horiz-adv-x="697" d="M350 -15 C526 -15 631 117 631 290 C631 448 536 597 422 702 L533 750 L519 780 L394 726 C360 754 324 779 290 799 L242 780 C279 757 312 735 349 705 L237 657 L250 627 L377 682 C444 624 506 554 542 476 C494 527 428 560 341 560 C183 560 66 436 66 272 C66 105 182 -15 350 -15 L350 -15 Z M350 26 C212 26 113 128 113 272 C113 411 211 519 348 519 C486 519 583 420 583 282 C583 135 487 26 350 26 L350 26 Z " />
<glyph glyph-name="ntilde" unicode="&#xf1;" horiz-adv-x="641" d="M393 653 C443 653 473 695 473 748 L439 748 C437 710 419 690 391 690 C347 690 319 749 260 749 C208 749 175 710 175 655 L210 655 C211 692 232 713 262 713 C302 713 335 653 393 653 L393 653 Z M93 0 L140 0 L140 299 C140 429 220 517 338 517 C437 517 501 456 501 363 L501 0 L548 0 L548 367 C548 485 469 560 348 560 C252 560 177 512 140 431 L140 545 L93 545 L93 0 Z " />
<glyph glyph-name="ograve" unicode="&#xf2;" horiz-adv-x="690" d="M365 643 L273 775 L215 775 L318 643 L365 643 Z M345 -15 C508 -15 624 104 624 273 C624 441 508 560 345 560 C182 560 66 441 66 273 C66 104 182 -15 345 -15 L345 -15 Z M345 27 C210 27 115 128 115 273 C115 417 210 518 345 518 C480 518 575 417 575 273 C575 128 480 27 345 27 L345 27 Z " />
<glyph glyph-name="oacute" unicode="&#xf3;" horiz-adv-x="690" d="M322 643 L369 643 L472 775 L414 775 L322 643 Z M345 -15 C508 -15 624 104 624 273 C624 441 508 560 345 560 C182 560 66 441 66 273 C66 104 182 -15 345 -15 L345 -15 Z M345 27 C210 27 115 128 115 273 C115 417 210 518 345 518 C480 518 575 417 575 273 C575 128 480 27 345 27 L345 27 Z " />
<glyph glyph-name="ocircumflex" unicode="&#xf4;" horiz-adv-x="690" d="M324 764 L215 640 L262 640 L345 734 L428 640 L477 640 L365 764 L324 764 Z M345 -15 C508 -15 624 104 624 273 C624 441 508 560 345 560 C182 560 66 441 66 273 C66 104 182 -15 345 -15 L345 -15 Z M345 27 C210 27 115 128 115 273 C115 417 210 518 345 518 C480 518 575 417 575 273 C575 128 480 27 345 27 L345 27 Z " />
<glyph glyph-name="otilde" unicode="&#xf5;" horiz-adv-x="690" d="M414 654 C464 654 494 696 494 749 L460 749 C458 711 440 691 412 691 C368 691 340 750 281 750 C229 750 196 711 196 656 L231 656 C232 693 253 714 283 714 C323 714 356 654 414 654 L414 654 Z M345 -15 C508 -15 624 104 624 273 C624 441 508 560 345 560 C182 560 66 441 66 273 C66 104 182 -15 345 -15 L345 -15 Z M345 27 C210 27 115 128 115 273 C115 417 210 518 345 518 C480 518 575 417 575 273 C575 128 480 27 345 27 L345 27 Z " />
<glyph glyph-name="odieresis" unicode="&#xf6;" horiz-adv-x="690" d="M250 670 C270 670 287 687 287 708 C287 728 270 744 250 744 C229 744 213 728 213 708 C213 687 229 670 250 670 L250 670 Z M439 670 C459 670 476 687 476 708 C476 728 459 744 439 744 C418 744 402 728 402 708 C402 687 418 670 439 670 L439 670 Z M345 -15 C508 -15 624 104 624 273 C624 441 508 560 345 560 C182 560 66 441 66 273 C66 104 182 -15 345 -15 L345 -15 Z M345 27 C210 27 115 128 115 273 C115 417 210 518 345 518 C480 518 575 417 575 273 C575 128 480 27 345 27 L345 27 Z " />
<glyph glyph-name="divide" unicode="&#xf7;" horiz-adv-x="543" d="M267 493 C289 493 305 510 305 532 C305 553 289 569 267 569 C246 569 229 553 229 532 C229 510 246 493 267 493 L267 493 Z M35 331 L502 331 L502 372 L35 372 L35 331 Z M270 133 C292 133 309 150 309 172 C309 193 292 209 270 209 C249 209 232 193 232 172 C232 150 249 133 270 133 L270 133 Z " />
<glyph glyph-name="oslash" unicode="&#xf8;" horiz-adv-x="699" d="M550 480 L608 547 L563 547 L525 503 C478 539 418 560 350 560 C187 560 71 441 71 273 C71 189 100 117 149 66 L91 -2 L137 -2 L175 42 C222 6 282 -15 350 -15 C513 -15 629 104 629 273 C629 357 600 429 550 480 L550 480 Z M120 273 C120 417 215 518 350 518 C407 518 457 500 495 468 L180 101 C142 144 120 203 120 273 L120 273 Z M350 27 C293 27 243 45 205 77 L520 445 C558 402 580 342 580 273 C580 128 485 27 350 27 L350 27 Z " />
<glyph glyph-name="ugrave" unicode="&#xf9;" horiz-adv-x="641" d="M335 644 L243 776 L185 776 L288 644 L335 644 Z M293 -15 C389 -15 464 33 501 114 L501 0 L548 0 L548 545 L501 545 L501 246 C501 116 422 28 303 28 C205 28 140 89 140 182 L140 545 L93 545 L93 178 C93 60 172 -15 293 -15 L293 -15 Z " />
<glyph glyph-name="uacute" unicode="&#xfa;" horiz-adv-x="641" d="M292 644 L339 644 L442 776 L384 776 L292 644 Z M293 -15 C389 -15 464 33 501 114 L501 0 L548 0 L548 545 L501 545 L501 246 C501 116 422 28 303 28 C205 28 140 89 140 182 L140 545 L93 545 L93 178 C93 60 172 -15 293 -15 L293 -15 Z " />
<glyph glyph-name="ucircumflex" unicode="&#xfb;" horiz-adv-x="641" d="M294 765 L185 641 L232 641 L315 735 L398 641 L447 641 L335 765 L294 765 Z M293 -15 C389 -15 464 33 501 114 L501 0 L548 0 L548 545 L501 545 L501 246 C501 116 422 28 303 28 C205 28 140 89 140 182 L140 545 L93 545 L93 178 C93 60 172 -15 293 -15 L293 -15 Z " />
<glyph glyph-name="udieresis" unicode="&#xfc;" horiz-adv-x="641" d="M220 671 C240 671 257 688 257 709 C257 729 240 745 220 745 C199 745 183 729 183 709 C183 688 199 671 220 671 L220 671 Z M409 671 C429 671 446 688 446 709 C446 729 429 745 409 745 C388 745 372 729 372 709 C372 688 388 671 409 671 L409 671 Z M293 -15 C389 -15 464 33 501 114 L501 0 L548 0 L548 545 L501 545 L501 246 C501 116 422 28 303 28 C205 28 140 89 140 182 L140 545 L93 545 L93 178 C93 60 172 -15 293 -15 L293 -15 Z " />
<glyph glyph-name="yacute" unicode="&#xfd;" horiz-adv-x="563" d="M412 775 L354 775 L262 643 L309 643 L412 775 Z M496 545 L277 63 L66 545 L16 545 L252 10 L155 -200 L205 -200 L546 545 L496 545 Z " />
<glyph glyph-name="thorn" unicode="&#xfe;" horiz-adv-x="676" d="M93 -200 L140 -200 L140 128 C178 39 255 -14 356 -14 C507 -14 609 102 610 273 C609 444 507 560 356 560 C255 560 178 506 140 418 L140 770 L93 770 L93 -200 Z M348 28 C224 28 140 127 140 273 C140 419 224 517 348 517 C475 517 561 419 562 273 C561 127 475 28 348 28 L348 28 Z " />
<glyph glyph-name="ydieresis" unicode="&#xff;" horiz-adv-x="563" d="M190 670 C210 670 227 687 227 708 C227 728 210 744 190 744 C169 744 153 728 153 708 C153 687 169 670 190 670 L190 670 Z M379 670 C399 670 416 687 416 708 C416 728 399 744 379 744 C358 744 342 728 342 708 C342 687 358 670 379 670 L379 670 Z M496 545 L277 63 L66 545 L16 545 L252 10 L155 -200 L205 -200 L546 545 L496 545 Z " />
<glyph glyph-name="Amacron" unicode="&#x100;" horiz-adv-x="750" d="M240 836 L505 836 L505 874 L240 874 L240 836 Z M29 0 L80 0 L164 193 L584 193 L667 0 L719 0 L400 730 L350 730 L29 0 Z M183 236 L375 677 L566 236 L183 236 Z " />
<glyph glyph-name="amacron" unicode="&#x101;" horiz-adv-x="676" d="M188 675 L453 675 L453 712 L188 712 L188 675 Z M321 -14 C421 -14 498 39 536 128 L536 0 L583 0 L583 545 L536 545 L536 418 C498 506 422 560 322 560 C171 560 67 444 66 273 C67 102 170 -14 321 -14 L321 -14 Z M328 28 C201 28 115 127 114 273 C114 419 201 517 328 517 C452 517 536 419 536 273 C536 127 452 28 328 28 L328 28 Z " />
<glyph glyph-name="Abreve" unicode="&#x102;" horiz-adv-x="750" d="M372 798 C444 798 494 846 500 919 L467 919 C460 866 425 832 372 832 C320 832 285 866 278 919 L245 919 C251 846 300 798 372 798 L372 798 Z M29 0 L80 0 L164 193 L584 193 L667 0 L719 0 L400 730 L350 730 L29 0 Z M183 236 L375 677 L566 236 L183 236 Z " />
<glyph glyph-name="abreve" unicode="&#x103;" horiz-adv-x="676" d="M320 642 C392 642 442 690 448 763 L415 763 C408 710 373 676 320 676 C268 676 233 710 226 763 L193 763 C199 690 248 642 320 642 L320 642 Z M321 -14 C421 -14 498 39 536 128 L536 0 L583 0 L583 545 L536 545 L536 418 C498 506 422 560 322 560 C171 560 67 444 66 273 C67 102 170 -14 321 -14 L321 -14 Z M328 28 C201 28 115 127 114 273 C114 419 201 517 328 517 C452 517 536 419 536 273 C536 127 452 28 328 28 L328 28 Z " />
<glyph glyph-name="Aogonek" unicode="&#x104;" horiz-adv-x="750" d="M706 -134 C677 -134 658 -118 658 -95 C658 -64 680 -34 719 0 L400 730 L350 730 L29 0 L80 0 L164 193 L584 193 L667 0 L680 0 C642 -30 619 -67 619 -102 C619 -142 651 -166 700 -166 C713 -166 728 -164 739 -160 L739 -131 C727 -133 714 -134 706 -134 L706 -134 Z M183 236 L375 677 L566 236 L183 236 Z " />
<glyph glyph-name="aogonek" unicode="&#x105;" horiz-adv-x="676" d="M570 -134 C541 -134 522 -118 522 -95 C522 -64 544 -34 583 0 L583 545 L536 545 L536 418 C498 506 422 560 322 560 C171 560 67 444 66 273 C67 102 170 -14 321 -14 C421 -14 498 39 536 128 L536 0 L544 0 C506 -30 483 -67 483 -102 C483 -142 515 -166 564 -166 C577 -166 592 -164 603 -160 L603 -131 C591 -133 578 -134 570 -134 L570 -134 Z M328 28 C201 28 115 127 114 273 C114 419 201 517 328 517 C452 517 536 419 536 273 C536 127 452 28 328 28 L328 28 Z " />
<glyph glyph-name="Cacute" unicode="&#x106;" horiz-adv-x="731" d="M419 799 L466 799 L569 931 L511 931 L419 799 Z M434 -15 C528 -15 606 2 685 41 L669 85 C609 51 523 30 437 30 C246 30 118 162 118 360 C118 564 251 700 450 700 C519 700 607 679 666 646 L683 689 C607 727 534 745 448 745 C220 745 68 591 68 360 C68 135 214 -15 434 -15 L434 -15 Z " />
<glyph glyph-name="cacute" unicode="&#x107;" horiz-adv-x="587" d="M309 643 L356 643 L459 775 L401 775 L309 643 Z M345 -15 C405 -15 468 -5 536 35 L522 75 C460 38 398 28 346 28 C212 28 114 125 114 273 C114 420 212 517 346 517 C396 517 454 509 523 470 L537 510 C466 551 404 560 346 560 C181 560 66 442 66 273 C66 103 181 -15 345 -15 L345 -15 Z " />
<glyph glyph-name="Cdotaccent" unicode="&#x10a;" horiz-adv-x="731" d="M444 818 C466 818 483 835 483 856 C483 877 466 894 444 894 C423 894 406 877 406 856 C406 835 423 818 444 818 L444 818 Z M434 -15 C528 -15 606 2 685 41 L669 85 C609 51 523 30 437 30 C246 30 118 162 118 360 C118 564 251 700 450 700 C519 700 607 679 666 646 L683 689 C607 727 534 745 448 745 C220 745 68 591 68 360 C68 135 214 -15 434 -15 L434 -15 Z " />
<glyph glyph-name="cdotaccent" unicode="&#x10b;" horiz-adv-x="587" d="M332 668 C354 668 371 685 371 706 C371 727 354 744 332 744 C311 744 294 727 294 706 C294 685 311 668 332 668 L332 668 Z M345 -15 C405 -15 468 -5 536 35 L522 75 C460 38 398 28 346 28 C212 28 114 125 114 273 C114 420 212 517 346 517 C396 517 454 509 523 470 L537 510 C466 551 404 560 346 560 C181 560 66 442 66 273 C66 103 181 -15 345 -15 L345 -15 Z " />
<glyph glyph-name="Ccaron" unicode="&#x10c;" horiz-adv-x="731" d="M423 794 L464 794 L576 918 L527 918 L444 824 L361 918 L314 918 L423 794 Z M434 -15 C528 -15 606 2 685 41 L669 85 C609 51 523 30 437 30 C246 30 118 162 118 360 C118 564 251 700 450 700 C519 700 607 679 666 646 L683 689 C607 727 534 745 448 745 C220 745 68 591 68 360 C68 135 214 -15 434 -15 L434 -15 Z " />
<glyph glyph-name="ccaron" unicode="&#x10d;" horiz-adv-x="587" d="M311 640 L352 640 L464 764 L415 764 L332 670 L249 764 L202 764 L311 640 Z M345 -15 C405 -15 468 -5 536 35 L522 75 C460 38 398 28 346 28 C212 28 114 125 114 273 C114 420 212 517 346 517 C396 517 454 509 523 470 L537 510 C466 551 404 560 346 560 C181 560 66 442 66 273 C66 103 181 -15 345 -15 L345 -15 Z " />
<glyph glyph-name="Dcaron" unicode="&#x10e;" horiz-adv-x="783" d="M275 794 L316 794 L428 918 L379 918 L296 824 L213 918 L166 918 L275 794 Z M96 0 L300 0 C541 0 715 147 715 360 C715 579 541 730 299 730 L96 730 L96 0 Z M144 45 L144 686 L300 686 C511 686 665 552 665 360 C665 174 511 44 300 44 L144 45 Z " />
<glyph glyph-name="dcaron" unicode="&#x10f;" horiz-adv-x="714" d="M655 614 C695 642 718 682 718 732 C718 764 702 785 675 785 C651 785 636 770 636 748 C636 726 651 712 673 712 L681 712 C678 682 660 656 630 634 L655 614 Z M321 -14 C421 -14 498 39 536 128 L536 0 L583 0 L583 770 L536 770 L536 418 C498 506 421 560 321 560 C170 560 67 444 66 273 C67 102 170 -14 321 -14 L321 -14 Z M328 28 C201 28 115 127 114 273 C114 419 201 517 328 517 C452 517 536 419 536 273 C536 127 452 28 328 28 L328 28 Z " />
<glyph glyph-name="Dcroat" unicode="&#x110;" horiz-adv-x="758" d="M308 730 L105 730 L105 383 L26 383 L26 344 L105 344 L105 0 L309 0 C550 0 724 147 724 360 C724 579 550 730 308 730 L308 730 Z M309 44 L153 45 L153 344 L365 344 L365 383 L153 383 L153 686 L309 686 C520 686 674 552 674 360 C674 174 520 44 309 44 L309 44 Z " />
<glyph glyph-name="dcroat" unicode="&#x111;" horiz-adv-x="664" d="M656 706 L583 706 L583 770 L536 770 L536 706 L393 706 L393 667 L536 667 L536 418 C498 506 421 560 321 560 C170 560 67 444 66 273 C67 102 170 -14 321 -14 C421 -14 498 39 536 128 L536 0 L583 0 L583 667 L656 667 L656 706 Z M328 28 C201 28 115 127 114 273 C114 419 201 517 328 517 C452 517 536 419 536 273 C536 127 452 28 328 28 L328 28 Z " />
<glyph glyph-name="Emacron" unicode="&#x112;" horiz-adv-x="679" d="M476 874 L211 874 L211 836 L476 836 L476 874 Z M144 44 L144 338 L562 338 L562 383 L144 383 L144 686 L606 686 L606 730 L96 730 L96 0 L607 0 L607 44 L144 44 Z " />
<glyph glyph-name="emacron" unicode="&#x113;" horiz-adv-x="632" d="M454 712 L189 712 L189 675 L454 675 L454 712 Z M566 301 C562 458 467 560 322 560 C170 560 66 444 66 273 C66 101 179 -15 345 -15 C420 -15 501 7 552 39 L537 76 C486 47 412 28 346 28 C209 28 117 124 114 267 L563 267 C565 277 566 291 566 301 L566 301 Z M321 517 C440 517 516 435 519 307 L116 307 C128 434 207 517 321 517 L321 517 Z " />
<glyph glyph-name="Edotaccent" unicode="&#x116;" horiz-adv-x="679" d="M344 818 C366 818 383 835 383 856 C383 877 366 894 344 894 C323 894 306 877 306 856 C306 835 323 818 344 818 L344 818 Z M144 44 L144 338 L562 338 L562 383 L144 383 L144 686 L606 686 L606 730 L96 730 L96 0 L607 0 L607 44 L144 44 Z " />
<glyph glyph-name="edotaccent" unicode="&#x117;" horiz-adv-x="632" d="M322 668 C344 668 361 685 361 706 C361 727 344 744 322 744 C301 744 284 727 284 706 C284 685 301 668 322 668 L322 668 Z M566 301 C562 458 467 560 322 560 C170 560 66 444 66 273 C66 101 179 -15 345 -15 C420 -15 501 7 552 39 L537 76 C486 47 412 28 346 28 C209 28 117 124 114 267 L563 267 C565 277 566 291 566 301 L566 301 Z M321 517 C440 517 516 435 519 307 L116 307 C128 434 207 517 321 517 L321 517 Z " />
<glyph glyph-name="Eogonek" unicode="&#x118;" horiz-adv-x="679" d="M594 -134 C565 -134 546 -118 546 -95 C546 -64 568 -34 607 0 L607 44 L144 44 L144 338 L562 338 L562 383 L144 383 L144 686 L606 686 L606 730 L96 730 L96 0 L568 0 C530 -30 507 -67 507 -102 C507 -142 539 -166 588 -166 C601 -166 616 -164 627 -160 L627 -131 C615 -133 602 -134 594 -134 L594 -134 Z " />
<glyph glyph-name="eogonek" unicode="&#x119;" horiz-adv-x="632" d="M539 -95 C510 -95 491 -79 491 -56 C491 -25 513 5 552 39 L537 76 C486 47 412 28 346 28 C209 28 117 124 114 267 L563 267 C565 277 566 291 566 301 C562 458 467 560 322 560 C170 560 66 444 66 273 C66 101 179 -15 345 -15 C391 -15 438 -7 480 7 C462 -16 452 -40 452 -63 C452 -103 484 -127 533 -127 C546 -127 561 -125 572 -121 L572 -92 C560 -94 547 -95 539 -95 L539 -95 Z M321 517 C440 517 516 435 519 307 L116 307 C128 434 207 517 321 517 L321 517 Z " />
<glyph glyph-name="Ecaron" unicode="&#x11a;" horiz-adv-x="679" d="M364 794 L476 918 L427 918 L344 824 L261 918 L214 918 L323 794 L364 794 Z M144 44 L144 338 L562 338 L562 383 L144 383 L144 686 L606 686 L606 730 L96 730 L96 0 L607 0 L607 44 L144 44 Z " />
<glyph glyph-name="ecaron" unicode="&#x11b;" horiz-adv-x="632" d="M342 640 L454 764 L405 764 L322 670 L239 764 L192 764 L301 640 L342 640 Z M566 301 C562 458 467 560 322 560 C170 560 66 444 66 273 C66 101 179 -15 345 -15 C420 -15 501 7 552 39 L537 76 C486 47 412 28 346 28 C209 28 117 124 114 267 L563 267 C565 277 566 291 566 301 L566 301 Z M321 517 C440 517 516 435 519 307 L116 307 C128 434 207 517 321 517 L321 517 Z " />
<glyph glyph-name="Gbreve" unicode="&#x11e;" horiz-adv-x="777" d="M453 798 C525 798 575 846 581 919 L548 919 C541 866 506 832 453 832 C401 832 366 866 359 919 L326 919 C332 846 381 798 453 798 L453 798 Z M439 -15 C542 -15 625 11 711 51 L711 359 L431 359 L431 315 L663 315 L663 80 C606 53 526 30 445 30 C252 30 118 159 118 359 C118 567 257 700 458 700 C532 700 615 678 675 645 L693 688 C616 727 544 745 455 745 C225 745 68 594 68 359 C68 131 220 -15 439 -15 L439 -15 Z " />
<glyph glyph-name="gbreve" unicode="&#x11f;" horiz-adv-x="673" d="M323 642 C395 642 445 690 451 763 L418 763 C411 710 376 676 323 676 C271 676 236 710 229 763 L196 763 C202 690 251 642 323 642 L323 642 Z M322 -215 C473 -215 579 -140 579 -8 L579 545 L532 545 L532 422 C493 507 417 560 319 560 C169 560 67 445 66 276 C67 107 169 -7 319 -7 C418 -7 494 46 532 133 L532 -8 C532 -114 448 -172 323 -172 C266 -172 203 -160 143 -135 L131 -176 C195 -202 261 -215 322 -215 L322 -215 Z M326 35 C200 35 115 132 114 276 C114 420 200 517 326 517 C449 517 532 420 532 276 C532 132 449 35 326 35 L326 35 Z " />
<glyph glyph-name="Gdotaccent" unicode="&#x120;" horiz-adv-x="777" d="M454 818 C476 818 493 835 493 856 C493 877 476 894 454 894 C433 894 416 877 416 856 C416 835 433 818 454 818 L454 818 Z M439 -15 C542 -15 625 11 711 51 L711 359 L431 359 L431 315 L663 315 L663 80 C606 53 526 30 445 30 C252 30 118 159 118 359 C118 567 257 700 458 700 C532 700 615 678 675 645 L693 688 C616 727 544 745 455 745 C225 745 68 594 68 359 C68 131 220 -15 439 -15 L439 -15 Z " />
<glyph glyph-name="gdotaccent" unicode="&#x121;" horiz-adv-x="673" d="M324 668 C346 668 363 685 363 706 C363 727 346 744 324 744 C303 744 286 727 286 706 C286 685 303 668 324 668 L324 668 Z M322 -215 C473 -215 579 -140 579 -8 L579 545 L532 545 L532 422 C493 507 417 560 319 560 C169 560 67 445 66 276 C67 107 169 -7 319 -7 C418 -7 494 46 532 133 L532 -8 C532 -114 448 -172 323 -172 C266 -172 203 -160 143 -135 L131 -176 C195 -202 261 -215 322 -215 L322 -215 Z M326 35 C200 35 115 132 114 276 C114 420 200 517 326 517 C449 517 532 420 532 276 C532 132 449 35 326 35 L326 35 Z " />
<glyph glyph-name="Gcommaaccent" unicode="&#x122;" horiz-adv-x="777" d="M439 -15 C542 -15 625 11 711 51 L711 359 L431 359 L431 315 L663 315 L663 80 C606 53 526 30 445 30 C252 30 118 159 118 359 C118 567 257 700 458 700 C532 700 615 678 675 645 L693 688 C616 727 544 745 455 745 C225 745 68 594 68 359 C68 131 220 -15 439 -15 L439 -15 Z M423 -210 C462 -182 486 -142 486 -92 C486 -60 469 -39 443 -39 C419 -39 404 -54 404 -76 C404 -98 419 -113 441 -113 C443 -113 446 -113 449 -112 C445 -143 428 -168 397 -190 L423 -210 Z " />
<glyph glyph-name="gcommaaccent" unicode="&#x123;" horiz-adv-x="673" d="M341 838 C302 810 278 770 278 720 C278 688 295 667 321 667 C345 667 360 682 360 704 C360 726 345 741 323 741 C321 741 318 741 315 740 C319 771 336 796 367 818 L341 838 Z M322 -215 C473 -215 579 -140 579 -8 L579 545 L532 545 L532 422 C493 507 417 560 319 560 C169 560 67 445 66 276 C67 107 169 -7 319 -7 C418 -7 494 46 532 133 L532 -8 C532 -114 448 -172 323 -172 C266 -172 203 -160 143 -135 L131 -176 C195 -202 261 -215 322 -215 L322 -215 Z M326 35 C200 35 115 132 114 276 C114 420 200 517 326 517 C449 517 532 420 532 276 C532 132 449 35 326 35 L326 35 Z " />
<glyph glyph-name="Hbar" unicode="&#x126;" horiz-adv-x="771" d="M738 581 L675 581 L675 730 L628 730 L628 581 L144 581 L144 730 L96 730 L96 581 L36 581 L36 542 L96 542 L96 0 L144 0 L144 337 L628 337 L627 0 L675 0 L675 542 L738 542 L738 581 Z M628 382 L144 382 L144 542 L628 542 L628 382 Z " />
<glyph glyph-name="hbar" unicode="&#x127;" horiz-adv-x="626" d="M341 560 C247 560 175 512 138 433 L138 667 L295 667 L295 706 L138 706 L138 770 L92 770 L92 706 L19 706 L19 667 L92 667 L92 0 L138 0 L138 299 C138 429 216 517 332 517 C425 517 486 458 486 363 L486 0 L533 0 L533 367 C533 485 457 560 341 560 L341 560 Z " />
<glyph glyph-name="Itilde" unicode="&#x128;" horiz-adv-x="239" d="M185 813 C235 813 265 855 265 908 L231 908 C229 870 211 850 183 850 C139 850 111 909 52 909 C0 909 -33 870 -33 815 L2 815 C3 852 24 873 54 873 C94 873 127 813 185 813 L185 813 Z M96 0 L144 0 L144 730 L96 730 L96 0 Z " />
<glyph glyph-name="itilde" unicode="&#x129;" horiz-adv-x="233" d="M185 654 C235 654 265 696 265 749 L231 749 C229 711 211 691 183 691 C139 691 111 750 52 750 C0 750 -33 711 -33 656 L2 656 C3 693 24 714 54 714 C94 714 127 654 185 654 L185 654 Z M93 0 L140 0 L140 545 L93 545 L93 0 Z " />
<glyph glyph-name="Imacron" unicode="&#x12a;" horiz-adv-x="239" d="M-12 836 L253 836 L253 874 L-12 874 L-12 836 Z M96 0 L144 0 L144 730 L96 730 L96 0 Z " />
<glyph glyph-name="imacron" unicode="&#x12b;" horiz-adv-x="233" d="M-17 675 L248 675 L248 712 L-17 712 L-17 675 Z M93 0 L140 0 L140 545 L93 545 L93 0 Z " />
<glyph glyph-name="Iogonek" unicode="&#x12e;" horiz-adv-x="239" d="M131 -134 C102 -134 83 -118 83 -95 C83 -64 105 -34 144 0 L144 730 L96 730 L96 0 L105 0 C67 -30 44 -67 44 -102 C44 -142 76 -166 125 -166 C138 -166 153 -164 164 -160 L164 -131 C152 -133 139 -134 131 -134 L131 -134 Z " />
<glyph glyph-name="iogonek" unicode="&#x12f;" horiz-adv-x="236" d="M118 670 C139 670 156 687 156 708 C156 729 139 746 118 746 C96 746 80 729 80 708 C80 687 96 670 118 670 L118 670 Z M128 -134 C99 -134 80 -118 80 -95 C80 -64 102 -34 141 0 L141 545 L95 545 L95 0 L102 0 C64 -30 41 -67 41 -102 C41 -142 73 -166 122 -166 C135 -166 150 -164 161 -160 L161 -131 C149 -133 136 -134 128 -134 L128 -134 Z " />
<glyph glyph-name="Idotaccent" unicode="&#x130;" horiz-adv-x="239" d="M121 818 C143 818 160 835 160 856 C160 877 143 894 121 894 C100 894 83 877 83 856 C83 835 100 818 121 818 L121 818 Z M96 0 L144 0 L144 730 L96 730 L96 0 Z " />
<glyph glyph-name="dotlessi" unicode="&#x131;" horiz-adv-x="233" d="M93 0 L140 0 L140 545 L93 545 L93 0 Z " />
<glyph glyph-name="IJ" unicode="&#x132;" horiz-adv-x="708" d="M96 0 L144 0 L144 730 L96 730 L96 0 Z M411 -15 C540 -14 613 50 612 174 L612 730 L565 730 L565 174 C565 81 508 30 411 30 C356 30 300 43 254 66 L252 64 L237 24 C288 -2 351 -15 411 -15 L411 -15 Z " />
<glyph glyph-name="ij" unicode="&#x133;" horiz-adv-x="469" d="M118 670 C139 670 156 687 156 708 C156 729 139 746 118 746 C96 746 80 729 80 708 C80 687 96 670 118 670 L118 670 Z M351 670 C372 670 389 687 389 708 C389 729 372 746 351 746 C329 746 312 729 312 708 C312 687 329 670 351 670 L351 670 Z M95 0 L141 0 L141 545 L95 545 L95 0 Z M244 -216 C326 -216 374 -163 374 -77 L374 545 L327 545 L327 -78 C327 -140 292 -175 239 -175 C223 -175 207 -173 190 -166 L179 -204 C199 -212 223 -216 244 -216 L244 -216 Z " />
<glyph glyph-name="Jcircumflex" unicode="&#x134;" horiz-adv-x="469" d="M218 793 L265 793 L348 886 L431 793 L480 793 L368 916 L327 916 L218 793 Z M172 -15 C301 -14 374 50 373 174 L373 730 L326 730 L326 174 C326 81 269 30 172 30 C117 30 61 43 15 66 L13 64 L-2 24 C49 -2 112 -15 172 -15 L172 -15 Z " />
<glyph glyph-name="jcircumflex" unicode="&#x135;" horiz-adv-x="231" d="M94 764 L-15 640 L32 640 L115 734 L198 640 L247 640 L135 764 L94 764 Z M8 -216 C90 -216 138 -163 138 -77 L138 545 L91 545 L91 -78 C91 -140 56 -175 3 -175 C-13 -175 -29 -173 -46 -166 L-57 -204 C-37 -212 -13 -216 8 -216 L8 -216 Z " />
<glyph glyph-name="Kcommaaccent" unicode="&#x136;" horiz-adv-x="697" d="M297 392 L626 730 L564 730 L144 297 L144 730 L96 730 L96 0 L144 0 L144 235 L263 357 L595 0 L656 0 L297 392 Z M349 -39 C325 -39 310 -54 310 -76 C310 -98 325 -113 347 -113 C349 -113 352 -113 355 -112 C351 -143 334 -168 303 -190 L329 -210 C368 -182 392 -142 392 -92 C392 -60 375 -39 349 -39 L349 -39 Z " />
<glyph glyph-name="kcommaaccent" unicode="&#x137;" horiz-adv-x="566" d="M286 302 L543 545 L484 545 L140 219 L140 770 L93 770 L93 0 L140 0 L140 163 L256 272 L491 0 L550 0 L286 302 Z M295 -39 C271 -39 256 -54 256 -76 C256 -98 271 -113 293 -113 C295 -113 298 -113 301 -112 C297 -143 280 -168 249 -190 L275 -210 C314 -182 338 -142 338 -92 C338 -60 321 -39 295 -39 L295 -39 Z " />
<glyph glyph-name="kgreenlandic" unicode="&#x138;" horiz-adv-x="566" d="M491 0 L550 0 L286 302 L543 545 L485 545 L140 218 L140 545 L93 545 L93 0 L140 0 L140 163 L256 272 L491 0 Z " />
<glyph glyph-name="Lacute" unicode="&#x139;" horiz-adv-x="633" d="M95 799 L142 799 L245 931 L187 931 L95 799 Z M96 0 L588 0 L588 44 L144 44 L144 730 L96 730 L96 0 Z " />
<glyph glyph-name="lacute" unicode="&#x13a;" horiz-adv-x="233" d="M90 838 L137 838 L240 970 L182 970 L90 838 Z M93 0 L140 0 L140 770 L93 770 L93 0 Z " />
<glyph glyph-name="Lcommaaccent" unicode="&#x13b;" horiz-adv-x="633" d="M96 0 L588 0 L588 44 L144 44 L144 730 L96 730 L96 0 Z M330 -210 C369 -182 393 -142 393 -92 C393 -60 376 -39 350 -39 C326 -39 311 -54 311 -76 C311 -98 326 -113 348 -113 C350 -113 353 -113 356 -112 C352 -143 335 -168 304 -190 L330 -210 Z " />
<glyph glyph-name="lcommaaccent" unicode="&#x13c;" horiz-adv-x="233" d="M93 0 L140 0 L140 770 L93 770 L93 0 Z M97 -210 C136 -182 160 -142 160 -92 C160 -60 143 -39 117 -39 C93 -39 78 -54 78 -76 C78 -98 93 -113 115 -113 C117 -113 120 -113 123 -112 C119 -143 102 -168 71 -190 L97 -210 Z " />
<glyph glyph-name="Lcaron" unicode="&#x13d;" horiz-adv-x="633" d="M356 574 C395 602 419 642 419 692 C419 724 402 745 376 745 C352 745 337 730 337 708 C337 686 352 671 374 671 C376 671 379 671 382 672 C378 641 361 616 330 594 L356 574 Z M96 0 L588 0 L588 44 L144 44 L144 730 L96 730 L96 0 Z " />
<glyph glyph-name="lcaron" unicode="&#x13e;" horiz-adv-x="273" d="M221 614 C261 642 285 682 285 732 C285 764 268 785 241 785 C218 785 203 770 203 748 C203 726 218 712 240 712 L247 712 C244 682 227 656 196 634 L221 614 Z M93 0 L140 0 L140 770 L93 770 L93 0 Z " />
<glyph glyph-name="Ldot" unicode="&#x13f;" horiz-adv-x="633" d="M96 0 L588 0 L588 44 L144 44 L144 730 L96 730 L96 0 Z M385 358 C408 358 426 376 426 399 C426 421 408 439 385 439 C362 439 344 421 344 399 C344 376 362 358 385 358 L385 358 Z " />
<glyph glyph-name="ldot" unicode="&#x140;" horiz-adv-x="284" d="M93 0 L140 0 L140 770 L93 770 L93 0 Z M247 230 C270 230 288 248 288 271 C288 293 270 312 247 312 C225 312 206 293 206 271 C206 248 225 230 247 230 L247 230 Z " />
<glyph glyph-name="Lslash" unicode="&#x141;" horiz-adv-x="633" d="M144 44 L144 348 L370 453 L370 496 L144 391 L144 730 L96 730 L96 368 L-1 323 L-1 281 L96 326 L96 0 L588 0 L588 44 L144 44 Z " />
<glyph glyph-name="lslash" unicode="&#x142;" horiz-adv-x="244" d="M263 431 L143 374 L143 770 L96 770 L96 351 L-19 296 L-19 253 L96 308 L96 0 L143 0 L143 331 L263 388 L263 431 Z " />
<glyph glyph-name="Nacute" unicode="&#x143;" horiz-adv-x="795" d="M523 931 L465 931 L373 799 L420 799 L523 931 Z M652 730 L652 75 L143 730 L96 730 L96 0 L144 0 L144 654 L654 0 L699 0 L699 730 L652 730 Z " />
<glyph glyph-name="nacute" unicode="&#x144;" horiz-adv-x="641" d="M301 642 L348 642 L451 774 L393 774 L301 642 Z M93 0 L140 0 L140 299 C140 429 220 517 338 517 C437 517 501 456 501 363 L501 0 L548 0 L548 367 C548 485 469 560 348 560 C252 560 177 512 140 431 L140 545 L93 545 L93 0 Z " />
<glyph glyph-name="Ncommaaccent" unicode="&#x145;" horiz-adv-x="795" d="M652 730 L652 75 L143 730 L96 730 L96 0 L144 0 L144 654 L654 0 L699 0 L699 730 L652 730 Z M401 -39 C377 -39 362 -54 362 -76 C362 -98 377 -113 399 -113 C401 -113 404 -113 407 -112 C403 -143 386 -168 355 -190 L381 -210 C420 -182 444 -142 444 -92 C444 -60 427 -39 401 -39 L401 -39 Z " />
<glyph glyph-name="ncommaaccent" unicode="&#x146;" horiz-adv-x="641" d="M93 0 L140 0 L140 299 C140 429 220 517 338 517 C437 517 501 456 501 363 L501 0 L548 0 L548 367 C548 485 469 560 348 560 C252 560 177 512 140 431 L140 545 L93 545 L93 0 Z M305 -210 C344 -182 368 -142 368 -92 C368 -60 351 -39 325 -39 C301 -39 286 -54 286 -76 C286 -98 301 -113 323 -113 C325 -113 328 -113 331 -112 C327 -143 310 -168 279 -190 L305 -210 Z " />
<glyph glyph-name="Ncaron" unicode="&#x147;" horiz-adv-x="795" d="M418 794 L530 918 L481 918 L398 824 L315 918 L268 918 L377 794 L418 794 Z M652 730 L652 75 L143 730 L96 730 L96 0 L144 0 L144 654 L654 0 L699 0 L699 730 L652 730 Z " />
<glyph glyph-name="ncaron" unicode="&#x148;" horiz-adv-x="641" d="M303 639 L344 639 L456 763 L407 763 L324 669 L241 763 L194 763 L303 639 Z M93 0 L140 0 L140 299 C140 429 220 517 338 517 C437 517 501 456 501 363 L501 0 L548 0 L548 367 C548 485 469 560 348 560 C252 560 177 512 140 431 L140 545 L93 545 L93 0 Z " />
<glyph glyph-name="Eng" unicode="&#x14a;" horiz-adv-x="795" d="M699 -26 L699 730 L652 730 L652 75 L143 730 L96 730 L96 0 L144 0 L144 654 L653 1 L653 -26 C653 -119 596 -170 499 -170 C445 -170 389 -157 343 -134 L342 -136 L327 -176 C378 -202 440 -215 500 -215 C627 -214 700 -150 699 -26 L699 -26 Z " />
<glyph glyph-name="eng" unicode="&#x14b;" horiz-adv-x="641" d="M418 -216 C500 -216 548 -163 548 -77 L548 367 C548 485 469 560 348 560 C252 560 177 512 140 431 L140 545 L93 545 L93 0 L140 0 L140 299 C140 429 220 517 338 517 C437 517 501 456 501 363 L501 -78 C501 -140 466 -175 413 -175 C397 -175 381 -173 364 -166 L353 -204 C373 -212 397 -216 418 -216 L418 -216 Z " />
<glyph glyph-name="Omacron" unicode="&#x14c;" horiz-adv-x="869" d="M302 837 L567 837 L567 875 L302 875 L302 837 Z M435 -15 C647 -15 801 145 801 365 C801 585 647 745 435 745 C222 745 68 585 68 365 C68 145 222 -15 435 -15 L435 -15 Z M435 29 C251 29 117 170 117 365 C117 560 251 701 435 701 C618 701 752 560 752 365 C752 170 618 29 435 29 L435 29 Z " />
<glyph glyph-name="omacron" unicode="&#x14d;" horiz-adv-x="690" d="M212 675 L477 675 L477 712 L212 712 L212 675 Z M345 -15 C508 -15 624 104 624 273 C624 441 508 560 345 560 C182 560 66 441 66 273 C66 104 182 -15 345 -15 L345 -15 Z M345 27 C210 27 115 128 115 273 C115 417 210 518 345 518 C480 518 575 417 575 273 C575 128 480 27 345 27 L345 27 Z " />
<glyph glyph-name="Ohungarumlaut" unicode="&#x150;" horiz-adv-x="869" d="M356 791 L400 791 L486 930 L434 930 L356 791 Z M475 791 L519 791 L605 930 L553 930 L475 791 Z M435 -15 C647 -15 801 145 801 365 C801 585 647 745 435 745 C222 745 68 585 68 365 C68 145 222 -15 435 -15 L435 -15 Z M435 29 C251 29 117 170 117 365 C117 560 251 701 435 701 C618 701 752 560 752 365 C752 170 618 29 435 29 L435 29 Z " />
<glyph glyph-name="ohungarumlaut" unicode="&#x151;" horiz-adv-x="690" d="M263 639 L307 639 L393 778 L341 778 L263 639 Z M382 639 L426 639 L512 778 L460 778 L382 639 Z M345 -15 C508 -15 624 104 624 273 C624 441 508 560 345 560 C182 560 66 441 66 273 C66 104 182 -15 345 -15 L345 -15 Z M345 27 C210 27 115 128 115 273 C115 417 210 518 345 518 C480 518 575 417 575 273 C575 128 480 27 345 27 L345 27 Z " />
<glyph glyph-name="OE" unicode="&#x152;" horiz-adv-x="1204" d="M466 0 L1133 0 L1133 43 L666 43 L666 340 L1075 340 L1075 382 L666 382 L666 688 L1131 688 L1131 730 L466 730 C237 730 68 580 68 360 C68 146 237 0 466 0 L466 0 Z M466 42 C266 42 118 172 118 360 C118 554 266 688 466 688 L618 688 L618 43 L466 42 Z " />
<glyph glyph-name="oe" unicode="&#x153;" horiz-adv-x="1136" d="M1067 267 C1069 277 1070 291 1070 301 C1066 459 973 560 834 560 C721 560 636 500 598 402 C555 499 462 560 345 560 C182 560 66 441 66 273 C66 104 182 -15 345 -15 C462 -15 555 47 598 144 C638 44 729 -15 851 -15 C926 -15 1005 7 1056 39 L1041 76 C991 47 917 28 852 28 C718 28 631 115 623 253 C624 258 624 262 624 267 L1067 267 Z M345 27 C210 27 115 128 115 273 C115 417 210 518 345 518 C480 518 575 417 575 273 C575 128 480 27 345 27 L345 27 Z M833 517 C947 517 1020 437 1024 307 L624 307 C635 434 713 517 833 517 L833 517 Z " />
<glyph glyph-name="Racute" unicode="&#x154;" horiz-adv-x="693" d="M428 931 L370 931 L278 799 L325 799 L428 931 Z M685 0 L431 327 C544 346 618 420 618 523 C618 648 519 730 374 730 L96 730 L96 0 L144 0 L144 322 L371 322 L378 322 L627 0 L685 0 Z M144 365 L144 686 L374 686 C490 686 570 623 570 523 C570 427 490 365 374 365 L144 365 Z " />
<glyph glyph-name="racute" unicode="&#x155;" horiz-adv-x="393" d="M308 775 L250 775 L158 643 L205 643 L308 775 Z M140 416 L140 545 L93 545 L93 0 L140 0 L140 260 C140 403 213 511 361 511 L376 511 L376 560 C262 560 181 507 140 416 L140 416 Z " />
<glyph glyph-name="Rcommaaccent" unicode="&#x156;" horiz-adv-x="693" d="M431 327 C544 346 618 420 618 523 C618 648 519 730 374 730 L96 730 L96 0 L144 0 L144 322 L371 322 L378 322 L627 0 L685 0 L431 327 Z M144 365 L144 686 L374 686 C490 686 570 623 570 523 C570 427 490 365 374 365 L144 365 Z M370 -39 C346 -39 331 -54 331 -76 C331 -98 346 -113 368 -113 C370 -113 373 -113 376 -112 C372 -143 355 -168 324 -190 L350 -210 C389 -182 413 -142 413 -92 C413 -60 396 -39 370 -39 L370 -39 Z " />
<glyph glyph-name="rcommaaccent" unicode="&#x157;" horiz-adv-x="393" d="M140 416 L140 545 L93 545 L93 0 L140 0 L140 260 C140 403 213 511 361 511 L376 511 L376 560 C262 560 181 507 140 416 L140 416 Z M115 -39 C91 -39 76 -54 76 -76 C76 -98 91 -113 113 -113 C115 -113 118 -113 121 -112 C117 -143 100 -168 69 -190 L95 -210 C134 -182 158 -142 158 -92 C158 -60 141 -39 115 -39 L115 -39 Z " />
<glyph glyph-name="Rcaron" unicode="&#x158;" horiz-adv-x="693" d="M323 794 L435 918 L386 918 L303 824 L220 918 L173 918 L282 794 L323 794 Z M685 0 L431 327 C544 346 618 420 618 523 C618 648 519 730 374 730 L96 730 L96 0 L144 0 L144 322 L371 322 L378 322 L627 0 L685 0 Z M144 365 L144 686 L374 686 C490 686 570 623 570 523 C570 427 490 365 374 365 L144 365 Z " />
<glyph glyph-name="rcaron" unicode="&#x159;" horiz-adv-x="393" d="M201 640 L313 764 L264 764 L181 670 L98 764 L51 764 L160 640 L201 640 Z M140 416 L140 545 L93 545 L93 0 L140 0 L140 260 C140 403 213 511 361 511 L376 511 L376 560 C262 560 181 507 140 416 L140 416 Z " />
<glyph glyph-name="Sacute" unicode="&#x15a;" horiz-adv-x="667" d="M307 799 L354 799 L457 931 L399 931 L307 799 Z M329 -15 C472 -15 591 61 591 190 C591 323 467 369 346 400 C234 428 127 459 127 560 C127 651 217 701 338 701 C405 701 484 680 547 646 L563 689 C491 723 423 744 341 745 C186 746 78 679 78 559 C78 423 208 385 325 355 C440 326 542 287 542 190 C542 87 446 29 330 29 C241 29 160 54 87 95 L67 53 C152 10 229 -15 329 -15 L329 -15 Z " />
<glyph glyph-name="sacute" unicode="&#x15b;" horiz-adv-x="534" d="M238 643 L285 643 L388 775 L330 775 L238 643 Z M255 -15 C380 -15 465 45 465 143 C465 243 359 273 269 300 C192 323 112 350 112 419 C112 482 171 517 265 517 C323 517 375 504 426 474 L442 515 C392 544 329 560 266 560 C140 560 65 503 65 418 C65 317 168 283 256 257 C335 234 418 212 418 141 C418 69 355 28 252 28 C190 28 125 48 73 82 L55 43 C111 5 186 -15 255 -15 L255 -15 Z " />
<glyph glyph-name="Scircumflex" unicode="&#x15c;" horiz-adv-x="667" d="M200 793 L247 793 L330 886 L413 793 L462 793 L350 916 L309 916 L200 793 Z M329 -15 C472 -15 591 61 591 190 C591 323 467 369 346 400 C234 428 127 459 127 560 C127 651 217 701 338 701 C405 701 484 680 547 646 L563 689 C491 723 423 744 341 745 C186 746 78 679 78 559 C78 423 208 385 325 355 C440 326 542 287 542 190 C542 87 446 29 330 29 C241 29 160 54 87 95 L67 53 C152 10 229 -15 329 -15 L329 -15 Z " />
<glyph glyph-name="scircumflex" unicode="&#x15d;" horiz-adv-x="534" d="M240 764 L131 640 L178 640 L261 734 L344 640 L393 640 L281 764 L240 764 Z M255 -15 C380 -15 465 45 465 143 C465 243 359 273 269 300 C192 323 112 350 112 419 C112 482 171 517 265 517 C323 517 375 504 426 474 L442 515 C392 544 329 560 266 560 C140 560 65 503 65 418 C65 317 168 283 256 257 C335 234 418 212 418 141 C418 69 355 28 252 28 C190 28 125 48 73 82 L55 43 C111 5 186 -15 255 -15 L255 -15 Z " />
<glyph glyph-name="Scedilla" unicode="&#x15e;" horiz-adv-x="667" d="M329 -15 C472 -15 591 61 591 190 C591 323 467 369 346 400 C234 428 127 459 127 560 C127 651 217 701 338 701 C405 701 484 680 547 646 L563 689 C491 723 423 744 341 745 C186 746 78 679 78 559 C78 423 208 385 325 355 C440 326 542 287 542 190 C542 87 446 29 330 29 C241 29 160 54 87 95 L67 53 C152 10 229 -15 329 -15 L329 -15 Z M266 -201 L307 -201 L356 -51 L311 -51 L266 -201 Z " />
<glyph glyph-name="scedilla" unicode="&#x15f;" horiz-adv-x="534" d="M255 -15 C380 -15 465 45 465 143 C465 243 359 273 269 300 C192 323 112 350 112 419 C112 482 171 517 265 517 C323 517 375 504 426 474 L442 515 C392 544 329 560 266 560 C140 560 65 503 65 418 C65 317 168 283 256 257 C335 234 418 212 418 141 C418 69 355 28 252 28 C190 28 125 48 73 82 L55 43 C111 5 186 -15 255 -15 L255 -15 Z M194 -201 L235 -201 L284 -51 L239 -51 L194 -201 Z " />
<glyph glyph-name="Scaron" unicode="&#x160;" horiz-adv-x="667" d="M311 794 L352 794 L464 918 L415 918 L332 824 L249 918 L202 918 L311 794 Z M329 -15 C472 -15 591 61 591 190 C591 323 467 369 346 400 C234 428 127 459 127 560 C127 651 217 701 338 701 C405 701 484 680 547 646 L563 689 C491 723 423 744 341 745 C186 746 78 679 78 559 C78 423 208 385 325 355 C440 326 542 287 542 190 C542 87 446 29 330 29 C241 29 160 54 87 95 L67 53 C152 10 229 -15 329 -15 L329 -15 Z " />
<glyph glyph-name="scaron" unicode="&#x161;" horiz-adv-x="534" d="M240 640 L281 640 L393 764 L344 764 L261 670 L178 764 L131 764 L240 640 Z M255 -15 C380 -15 465 45 465 143 C465 243 359 273 269 300 C192 323 112 350 112 419 C112 482 171 517 265 517 C323 517 375 504 426 474 L442 515 C392 544 329 560 266 560 C140 560 65 503 65 418 C65 317 168 283 256 257 C335 234 418 212 418 141 C418 69 355 28 252 28 C190 28 125 48 73 82 L55 43 C111 5 186 -15 255 -15 L255 -15 Z " />
<glyph glyph-name="uni0162" unicode="&#x162;" horiz-adv-x="728" d="M680 730 L48 730 L48 686 L341 686 L341 0 L388 0 L388 686 L680 686 L680 730 Z M298 -201 L339 -201 L388 -51 L343 -51 L298 -201 Z " />
<glyph glyph-name="uni0163" unicode="&#x163;" horiz-adv-x="452" d="M297 -15 C338 -15 396 -4 426 13 L426 57 C395 38 342 28 303 28 C243 28 203 64 203 120 L203 503 L415 503 L415 545 L203 545 L203 703 L157 703 L157 545 L26 545 L26 503 L157 503 L157 117 C157 39 213 -15 297 -15 L297 -15 Z M229 -201 L270 -201 L319 -51 L274 -51 L229 -201 Z " />
<glyph glyph-name="Tcaron" unicode="&#x164;" horiz-adv-x="728" d="M381 794 L493 918 L444 918 L361 824 L278 918 L231 918 L340 794 L381 794 Z M680 730 L48 730 L48 686 L341 686 L341 0 L388 0 L388 686 L680 686 L680 730 Z " />
<glyph glyph-name="tcaron" unicode="&#x165;" horiz-adv-x="455" d="M341 612 C380 640 404 680 404 730 C404 762 387 783 361 783 C337 783 322 768 322 746 C322 724 337 709 359 709 C361 709 364 709 367 710 C363 679 346 654 315 632 L341 612 Z M297 -15 C338 -15 396 -4 426 13 L426 57 C395 38 342 28 303 28 C243 28 203 64 203 120 L203 503 L415 503 L415 545 L203 545 L203 703 L157 703 L157 545 L26 545 L26 503 L157 503 L157 117 C157 39 213 -15 297 -15 L297 -15 Z " />
<glyph glyph-name="Tbar" unicode="&#x166;" horiz-adv-x="728" d="M680 686 L680 730 L48 730 L48 686 L341 686 L341 407 L185 407 L185 366 L341 366 L341 0 L388 0 L388 366 L545 366 L545 407 L388 407 L388 686 L680 686 Z " />
<glyph glyph-name="tbar" unicode="&#x167;" horiz-adv-x="452" d="M303 28 C243 28 203 64 203 120 L203 306 L367 306 L367 346 L203 346 L203 503 L415 503 L415 545 L203 545 L203 703 L157 703 L157 545 L26 545 L26 503 L157 503 L157 346 L26 346 L26 306 L157 306 L157 117 C157 39 213 -15 297 -15 C338 -15 396 -4 426 13 L426 57 C395 38 342 28 303 28 L303 28 Z " />
<glyph glyph-name="Utilde" unicode="&#x168;" horiz-adv-x="775" d="M453 813 C503 813 533 855 533 908 L499 908 C497 870 479 850 451 850 C407 850 379 909 320 909 C268 909 235 870 235 815 L270 815 C271 852 292 873 322 873 C362 873 395 813 453 813 L453 813 Z M387 -15 C571 -15 679 85 679 258 L679 730 L632 730 L632 258 C632 112 542 30 387 30 C234 30 144 112 144 258 L144 730 L96 730 L96 258 C96 85 204 -15 387 -15 L387 -15 Z " />
<glyph glyph-name="utilde" unicode="&#x169;" horiz-adv-x="641" d="M384 655 C434 655 464 697 464 750 L430 750 C428 712 410 692 382 692 C338 692 310 751 251 751 C199 751 166 712 166 657 L201 657 C202 694 223 715 253 715 C293 715 326 655 384 655 L384 655 Z M293 -15 C389 -15 464 33 501 114 L501 0 L548 0 L548 545 L501 545 L501 246 C501 116 422 28 303 28 C205 28 140 89 140 182 L140 545 L93 545 L93 178 C93 60 172 -15 293 -15 L293 -15 Z " />
<glyph glyph-name="Umacron" unicode="&#x16a;" horiz-adv-x="775" d="M256 836 L521 836 L521 874 L256 874 L256 836 Z M387 -15 C571 -15 679 85 679 258 L679 730 L632 730 L632 258 C632 112 542 30 387 30 C234 30 144 112 144 258 L144 730 L96 730 L96 258 C96 85 204 -15 387 -15 L387 -15 Z " />
<glyph glyph-name="umacron" unicode="&#x16b;" horiz-adv-x="641" d="M182 676 L447 676 L447 713 L182 713 L182 676 Z M293 -15 C389 -15 464 33 501 114 L501 0 L548 0 L548 545 L501 545 L501 246 C501 116 422 28 303 28 C205 28 140 89 140 182 L140 545 L93 545 L93 178 C93 60 172 -15 293 -15 L293 -15 Z " />
<glyph glyph-name="Uring" unicode="&#x16e;" horiz-adv-x="775" d="M390 765 C443 765 480 801 480 851 C480 902 443 938 390 938 C336 938 299 902 299 851 C299 801 336 765 390 765 L390 765 Z M390 796 C356 796 333 818 332 851 C333 884 356 907 390 907 C423 907 446 884 446 851 C446 818 423 796 390 796 L390 796 Z M387 -15 C571 -15 679 85 679 258 L679 730 L632 730 L632 258 C632 112 542 30 387 30 C234 30 144 112 144 258 L144 730 L96 730 L96 258 C96 85 204 -15 387 -15 L387 -15 Z " />
<glyph glyph-name="uring" unicode="&#x16f;" horiz-adv-x="641" d="M316 628 C369 628 406 664 406 714 C406 765 369 801 316 801 C262 801 225 765 225 714 C225 664 262 628 316 628 L316 628 Z M316 659 C282 659 259 681 258 714 C259 747 282 770 316 770 C349 770 372 747 372 714 C372 681 349 659 316 659 L316 659 Z M293 -15 C389 -15 464 33 501 114 L501 0 L548 0 L548 545 L501 545 L501 246 C501 116 422 28 303 28 C205 28 140 89 140 182 L140 545 L93 545 L93 178 C93 60 172 -15 293 -15 L293 -15 Z " />
<glyph glyph-name="Uhungarumlaut" unicode="&#x170;" horiz-adv-x="775" d="M280 790 L324 790 L410 929 L358 929 L280 790 Z M399 790 L443 790 L529 929 L477 929 L399 790 Z M387 -15 C571 -15 679 85 679 258 L679 730 L632 730 L632 258 C632 112 542 30 387 30 C234 30 144 112 144 258 L144 730 L96 730 L96 258 C96 85 204 -15 387 -15 L387 -15 Z " />
<glyph glyph-name="uhungarumlaut" unicode="&#x171;" horiz-adv-x="641" d="M233 640 L277 640 L363 779 L311 779 L233 640 Z M352 640 L396 640 L482 779 L430 779 L352 640 Z M293 -15 C389 -15 464 33 501 114 L501 0 L548 0 L548 545 L501 545 L501 246 C501 116 422 28 303 28 C205 28 140 89 140 182 L140 545 L93 545 L93 178 C93 60 172 -15 293 -15 L293 -15 Z " />
<glyph glyph-name="Uogonek" unicode="&#x172;" horiz-adv-x="775" d="M632 730 L632 258 C632 112 542 30 387 30 C234 30 144 112 144 258 L144 730 L96 730 L96 258 C96 89 200 -11 376 -15 C349 -42 332 -73 332 -102 C332 -142 364 -166 413 -166 C426 -166 441 -164 452 -160 L452 -131 C440 -133 427 -134 419 -134 C390 -134 371 -118 371 -95 C371 -68 387 -42 417 -14 C583 -4 679 94 679 258 L679 730 L632 730 Z " />
<glyph glyph-name="uogonek" unicode="&#x173;" horiz-adv-x="641" d="M535 -134 C506 -134 487 -118 487 -95 C487 -64 509 -34 548 0 L548 545 L501 545 L501 246 C501 116 422 28 303 28 C205 28 140 89 140 182 L140 545 L93 545 L93 178 C93 60 172 -15 293 -15 C389 -15 464 33 501 114 L501 0 L509 0 C471 -30 448 -67 448 -102 C448 -142 480 -166 529 -166 C542 -166 557 -164 568 -160 L568 -131 C556 -133 543 -134 535 -134 L535 -134 Z " />
<glyph glyph-name="Wcircumflex" unicode="&#x174;" horiz-adv-x="1135" d="M436 793 L483 793 L566 886 L649 793 L698 793 L586 916 L545 916 L436 793 Z M294 0 L350 0 L567 672 L783 0 L838 0 L1099 730 L1047 730 L811 56 L595 731 L538 731 L322 55 L85 730 L33 730 L294 0 Z " />
<glyph glyph-name="wcircumflex" unicode="&#x175;" horiz-adv-x="858" d="M408 764 L299 640 L346 640 L429 734 L512 640 L561 640 L449 764 L408 764 Z M212 0 L261 0 L429 490 L597 0 L647 0 L842 545 L792 545 L621 56 L455 545 L405 545 L239 56 L66 545 L16 545 L212 0 Z " />
<glyph glyph-name="Ycircumflex" unicode="&#x176;" horiz-adv-x="666" d="M201 793 L248 793 L331 886 L414 793 L463 793 L351 916 L310 916 L201 793 Z M309 0 L357 0 L357 313 L647 730 L591 730 L334 356 L74 730 L20 730 L309 313 L309 0 Z " />
<glyph glyph-name="ycircumflex" unicode="&#x177;" horiz-adv-x="563" d="M285 734 L368 640 L417 640 L305 764 L264 764 L155 640 L202 640 L285 734 Z M496 545 L277 63 L66 545 L16 545 L252 10 L155 -200 L205 -200 L546 545 L496 545 Z " />
<glyph glyph-name="Ydieresis" unicode="&#x178;" horiz-adv-x="666" d="M238 825 C258 825 275 842 275 863 C275 883 258 899 238 899 C217 899 201 883 201 863 C201 842 217 825 238 825 L238 825 Z M427 825 C447 825 464 842 464 863 C464 883 447 899 427 899 C406 899 390 883 390 863 C390 842 406 825 427 825 L427 825 Z M309 0 L357 0 L357 313 L647 730 L591 730 L334 356 L74 730 L20 730 L309 313 L309 0 Z " />
<glyph glyph-name="Zacute" unicode="&#x179;" horiz-adv-x="714" d="M482 931 L424 931 L332 799 L379 799 L482 931 Z M125 42 L645 698 L645 730 L84 730 L84 687 L582 687 L63 32 L63 0 L651 0 L651 42 L125 42 Z " />
<glyph glyph-name="zacute" unicode="&#x17a;" horiz-adv-x="593" d="M426 775 L368 775 L276 643 L323 643 L426 775 Z M130 40 L525 517 L525 545 L81 545 L81 505 L460 505 L66 29 L66 0 L528 0 L528 40 L130 40 Z " />
<glyph glyph-name="Zdotaccent" unicode="&#x17b;" horiz-adv-x="714" d="M357 818 C379 818 396 835 396 856 C396 877 379 894 357 894 C336 894 319 877 319 856 C319 835 336 818 357 818 L357 818 Z M125 42 L645 698 L645 730 L84 730 L84 687 L582 687 L63 32 L63 0 L651 0 L651 42 L125 42 Z " />
<glyph glyph-name="zdotaccent" unicode="&#x17c;" horiz-adv-x="593" d="M299 668 C321 668 338 685 338 706 C338 727 321 744 299 744 C278 744 261 727 261 706 C261 685 278 668 299 668 L299 668 Z M130 40 L525 517 L525 545 L81 545 L81 505 L460 505 L66 29 L66 0 L528 0 L528 40 L130 40 Z " />
<glyph glyph-name="Zcaron" unicode="&#x17d;" horiz-adv-x="714" d="M377 794 L489 918 L440 918 L357 824 L274 918 L227 918 L336 794 L377 794 Z M125 42 L645 698 L645 730 L84 730 L84 687 L582 687 L63 32 L63 0 L651 0 L651 42 L125 42 Z " />
<glyph glyph-name="zcaron" unicode="&#x17e;" horiz-adv-x="593" d="M319 640 L431 764 L382 764 L299 670 L216 764 L169 764 L278 640 L319 640 Z M130 40 L525 517 L525 545 L81 545 L81 505 L460 505 L66 29 L66 0 L528 0 L528 40 L130 40 Z " />
<glyph glyph-name="florin" unicode="&#x192;" horiz-adv-x="491" d="M398 745 C429 745 460 737 489 722 L508 757 C475 774 441 785 402 785 C298 785 236 723 213 626 L194 545 L63 545 L63 503 L184 503 L33 -148 L80 -148 L232 503 L417 503 L417 545 L242 545 L261 628 C277 698 319 745 398 745 L398 745 Z " />
<glyph glyph-name="uni01CD" unicode="&#x1cd;" horiz-adv-x="750" d="M352 794 L393 794 L505 918 L456 918 L373 824 L290 918 L243 918 L352 794 Z M29 0 L80 0 L164 193 L584 193 L667 0 L719 0 L400 730 L350 730 L29 0 Z M183 236 L375 677 L566 236 L183 236 Z " />
<glyph glyph-name="uni01CE" unicode="&#x1ce;" horiz-adv-x="676" d="M300 640 L341 640 L453 764 L404 764 L321 670 L238 764 L191 764 L300 640 Z M321 -14 C421 -14 498 39 536 128 L536 0 L583 0 L583 545 L536 545 L536 418 C498 506 422 560 322 560 C171 560 67 444 66 273 C67 102 170 -14 321 -14 L321 -14 Z M328 28 C201 28 115 127 114 273 C114 419 201 517 328 517 C452 517 536 419 536 273 C536 127 452 28 328 28 L328 28 Z " />
<glyph glyph-name="uni01CF" unicode="&#x1cf;" horiz-adv-x="239" d="M100 794 L141 794 L253 918 L204 918 L121 824 L38 918 L-9 918 L100 794 Z M96 0 L144 0 L144 730 L96 730 L96 0 Z " />
<glyph glyph-name="uni01D0" unicode="&#x1d0;" horiz-adv-x="233" d="M95 640 L136 640 L248 764 L199 764 L116 670 L33 764 L-14 764 L95 640 Z M93 0 L140 0 L140 545 L93 545 L93 0 Z " />
<glyph glyph-name="uni01D1" unicode="&#x1d1;" horiz-adv-x="869" d="M414 795 L455 795 L567 919 L518 919 L435 825 L352 919 L305 919 L414 795 Z M435 -15 C647 -15 801 145 801 365 C801 585 647 745 435 745 C222 745 68 585 68 365 C68 145 222 -15 435 -15 L435 -15 Z M435 29 C251 29 117 170 117 365 C117 560 251 701 435 701 C618 701 752 560 752 365 C752 170 618 29 435 29 L435 29 Z " />
<glyph glyph-name="uni01D2" unicode="&#x1d2;" horiz-adv-x="690" d="M324 640 L365 640 L477 764 L428 764 L345 670 L262 764 L215 764 L324 640 Z M345 -15 C508 -15 624 104 624 273 C624 441 508 560 345 560 C182 560 66 441 66 273 C66 104 182 -15 345 -15 L345 -15 Z M345 27 C210 27 115 128 115 273 C115 417 210 518 345 518 C480 518 575 417 575 273 C575 128 480 27 345 27 L345 27 Z " />
<glyph glyph-name="uni01D3" unicode="&#x1d3;" horiz-adv-x="775" d="M368 794 L409 794 L521 918 L472 918 L389 824 L306 918 L259 918 L368 794 Z M387 -15 C571 -15 679 85 679 258 L679 730 L632 730 L632 258 C632 112 542 30 387 30 C234 30 144 112 144 258 L144 730 L96 730 L96 258 C96 85 204 -15 387 -15 L387 -15 Z " />
<glyph glyph-name="uni01D4" unicode="&#x1d4;" horiz-adv-x="641" d="M294 641 L335 641 L447 765 L398 765 L315 671 L232 765 L185 765 L294 641 Z M293 -15 C389 -15 464 33 501 114 L501 0 L548 0 L548 545 L501 545 L501 246 C501 116 422 28 303 28 C205 28 140 89 140 182 L140 545 L93 545 L93 178 C93 60 172 -15 293 -15 L293 -15 Z " />
<glyph glyph-name="uni01EA" unicode="&#x1ea;" horiz-adv-x="869" d="M458 -14 C658 -3 801 153 801 365 C801 585 647 745 435 745 C222 745 68 585 68 365 C68 151 214 -6 418 -15 C391 -42 374 -73 374 -102 C374 -142 406 -166 455 -166 C468 -166 483 -164 494 -160 L494 -131 C482 -133 469 -134 461 -134 C432 -134 413 -118 413 -95 C413 -68 429 -43 458 -14 L458 -14 Z M117 365 C117 560 251 701 435 701 C618 701 752 560 752 365 C752 170 618 29 435 29 C251 29 117 170 117 365 L117 365 Z " />
<glyph glyph-name="uni01EB" unicode="&#x1eb;" horiz-adv-x="690" d="M367 -14 C519 -4 624 112 624 273 C624 441 508 560 345 560 C182 560 66 441 66 273 C66 110 174 -6 327 -15 C300 -42 283 -73 283 -102 C283 -142 315 -166 364 -166 C377 -166 392 -164 403 -160 L403 -131 C391 -133 378 -134 370 -134 C341 -134 322 -118 322 -95 C322 -68 338 -43 367 -14 L367 -14 Z M115 273 C115 417 210 518 345 518 C480 518 575 417 575 273 C575 128 480 27 345 27 C210 27 115 128 115 273 L115 273 Z " />
<glyph glyph-name="AEacute" unicode="&#x1fc;" horiz-adv-x="1104" d="M714 799 L761 799 L864 931 L806 931 L714 799 Z M29 0 L81 0 L214 193 L554 193 L554 0 L1032 0 L1032 44 L602 44 L602 338 L995 338 L995 383 L602 383 L602 686 L1031 686 L1031 730 L524 730 L29 0 Z M243 236 L552 687 L554 687 L554 236 L243 236 Z " />
<glyph glyph-name="aeacute" unicode="&#x1fd;" horiz-adv-x="1102" d="M532 643 L579 643 L682 775 L624 775 L532 643 Z M321 -14 C421 -14 498 39 536 128 L536 0 L583 0 L583 114 C628 33 710 -15 815 -15 C890 -15 971 7 1022 39 L1007 76 C956 47 882 28 816 28 C680 28 588 123 585 267 L1033 267 C1035 277 1036 291 1036 301 C1033 458 937 560 792 560 C698 560 623 514 583 437 L583 545 L536 545 L536 418 C498 506 421 560 321 560 C170 560 67 444 66 273 C67 102 170 -14 321 -14 L321 -14 Z M328 28 C201 28 115 127 114 273 C114 419 201 517 328 517 C452 517 536 419 536 273 C536 127 452 28 328 28 L328 28 Z M586 307 C597 434 677 517 791 517 C909 517 986 435 990 307 L586 307 Z " />
<glyph glyph-name="Oslashacute" unicode="&#x1fe;" horiz-adv-x="869" d="M539 931 L481 931 L389 799 L436 799 L539 931 Z M703 632 L791 730 L738 730 L674 659 C611 714 529 745 435 745 C222 745 68 585 68 365 C68 258 105 165 167 97 L79 0 L133 0 L196 70 C259 16 341 -15 435 -15 C647 -15 801 145 801 365 C801 472 765 565 703 632 L703 632 Z M117 365 C117 560 251 701 435 701 C517 701 588 673 643 625 L199 133 C147 192 117 272 117 365 L117 365 Z M435 29 C353 29 282 57 227 104 L671 597 C722 538 752 457 752 365 C752 170 618 29 435 29 L435 29 Z " />
<glyph glyph-name="oslashacute" unicode="&#x1ff;" horiz-adv-x="699" d="M479 775 L421 775 L329 643 L376 643 L479 775 Z M550 480 L608 547 L563 547 L525 503 C478 539 418 560 350 560 C187 560 71 441 71 273 C71 189 100 117 149 66 L91 -2 L137 -2 L175 42 C222 6 282 -15 350 -15 C513 -15 629 104 629 273 C629 357 600 429 550 480 L550 480 Z M120 273 C120 417 215 518 350 518 C407 518 457 500 495 468 L180 101 C142 144 120 203 120 273 L120 273 Z M350 27 C293 27 243 45 205 77 L520 445 C558 402 580 342 580 273 C580 128 485 27 350 27 L350 27 Z " />
<glyph glyph-name="Scommaaccent" unicode="&#x218;" horiz-adv-x="667" d="M329 -15 C472 -15 591 61 591 190 C591 323 467 369 346 400 C234 428 127 459 127 560 C127 651 217 701 338 701 C405 701 484 680 547 646 L563 689 C491 723 423 744 341 745 C186 746 78 679 78 559 C78 423 208 385 325 355 C440 326 542 287 542 190 C542 87 446 29 330 29 C241 29 160 54 87 95 L67 53 C152 10 229 -15 329 -15 L329 -15 Z M314 -210 C353 -182 377 -142 377 -92 C377 -60 360 -39 334 -39 C310 -39 295 -54 295 -76 C295 -98 310 -113 332 -113 C334 -113 337 -113 340 -112 C336 -143 319 -168 288 -190 L314 -210 Z " />
<glyph glyph-name="scommaaccent" unicode="&#x219;" horiz-adv-x="534" d="M255 -15 C380 -15 465 45 465 143 C465 243 359 273 269 300 C192 323 112 350 112 419 C112 482 171 517 265 517 C323 517 375 504 426 474 L442 515 C392 544 329 560 266 560 C140 560 65 503 65 418 C65 317 168 283 256 257 C335 234 418 212 418 141 C418 69 355 28 252 28 C190 28 125 48 73 82 L55 43 C111 5 186 -15 255 -15 L255 -15 Z M242 -210 C281 -182 305 -142 305 -92 C305 -60 288 -39 262 -39 C238 -39 223 -54 223 -76 C223 -98 238 -113 260 -113 C262 -113 265 -113 268 -112 C264 -143 247 -168 216 -190 L242 -210 Z " />
<glyph glyph-name="uni021A" unicode="&#x21a;" horiz-adv-x="728" d="M48 730 L48 686 L341 686 L341 0 L388 0 L388 686 L680 686 L680 730 L48 730 Z M366 -39 C342 -39 327 -54 327 -76 C327 -98 342 -113 364 -113 C366 -113 369 -113 372 -112 C368 -143 351 -168 320 -190 L346 -210 C385 -182 409 -142 409 -92 C409 -60 392 -39 366 -39 L366 -39 Z " />
<glyph glyph-name="uni021B" unicode="&#x21b;" horiz-adv-x="452" d="M297 -15 C338 -15 396 -4 426 13 L426 57 C395 38 342 28 303 28 C243 28 203 64 203 120 L203 503 L415 503 L415 545 L203 545 L203 703 L157 703 L157 545 L26 545 L26 503 L157 503 L157 117 C157 39 213 -15 297 -15 L297 -15 Z M277 -210 C316 -182 340 -142 340 -92 C340 -60 323 -39 297 -39 C273 -39 258 -54 258 -76 C258 -98 273 -113 295 -113 C297 -113 300 -113 303 -112 C299 -143 282 -168 251 -190 L277 -210 Z " />
<glyph glyph-name="uni0237" unicode="&#x237;" horiz-adv-x="231" d="M8 -216 C90 -216 138 -163 138 -77 L138 545 L91 545 L91 -78 C91 -140 56 -175 3 -175 C-13 -175 -29 -173 -46 -166 L-57 -204 C-37 -212 -13 -216 8 -216 L8 -216 Z " />
<glyph glyph-name="circumflex" unicode="&#x2c6;" horiz-adv-x="362" d="M159 764 L50 640 L97 640 L180 734 L263 640 L312 640 L200 764 L159 764 Z " />
<glyph glyph-name="caron" unicode="&#x2c7;" horiz-adv-x="362" d="M159 640 L200 640 L312 764 L263 764 L180 670 L97 764 L50 764 L159 640 Z " />
<glyph glyph-name="breve" unicode="&#x2d8;" horiz-adv-x="355" d="M177 642 C249 642 299 690 305 763 L272 763 C265 710 230 676 177 676 C125 676 90 710 83 763 L50 763 C56 690 105 642 177 642 L177 642 Z " />
<glyph glyph-name="dotaccent" unicode="&#x2d9;" horiz-adv-x="177" d="M88 668 C110 668 127 685 127 706 C127 727 110 744 88 744 C67 744 50 727 50 706 C50 685 67 668 88 668 L88 668 Z " />
<glyph glyph-name="ring" unicode="&#x2da;" horiz-adv-x="281" d="M141 627 C194 627 231 663 231 713 C231 764 194 800 141 800 C87 800 50 764 50 713 C50 663 87 627 141 627 L141 627 Z M141 658 C107 658 84 680 83 713 C84 746 107 769 141 769 C174 769 197 746 197 713 C197 680 174 658 141 658 L141 658 Z " />
<glyph glyph-name="ogonek" unicode="&#x2db;" horiz-adv-x="220" d="M131 -166 C144 -166 159 -164 170 -160 L170 -131 C158 -133 145 -134 137 -134 C108 -134 89 -118 89 -95 C89 -64 111 -34 150 0 L128 13 C81 -19 50 -62 50 -102 C50 -142 82 -166 131 -166 L131 -166 Z " />
<glyph glyph-name="tilde" unicode="&#x2dc;" horiz-adv-x="398" d="M268 654 C318 654 348 696 348 749 L314 749 C312 711 294 691 266 691 C222 691 194 750 135 750 C83 750 50 711 50 656 L85 656 C86 693 107 714 137 714 C177 714 210 654 268 654 L268 654 Z " />
<glyph glyph-name="hungarumlaut" unicode="&#x2dd;" horiz-adv-x="349" d="M50 639 L94 639 L180 778 L128 778 L50 639 Z M169 639 L213 639 L299 778 L247 778 L169 639 Z " />
<glyph glyph-name="uni0326" unicode="&#x326;" d="M-113 -210 C-74 -182 -50 -142 -50 -92 C-50 -60 -67 -39 -93 -39 C-117 -39 -132 -54 -132 -76 C-132 -98 -117 -113 -95 -113 C-93 -113 -90 -113 -87 -112 C-91 -143 -108 -168 -139 -190 L-113 -210 Z " />
<glyph glyph-name="uni0394" unicode="&#x394;" horiz-adv-x="787" d="M29 0 L757 0 L423 730 L370 730 L29 0 Z M101 43 L397 673 L685 43 L101 43 Z " />
<glyph glyph-name="uni03A9" unicode="&#x3a9;" horiz-adv-x="869" d="M93 0 L361 0 L361 44 C213 95 117 234 117 384 C117 570 248 701 435 701 C621 701 752 570 752 384 C752 234 656 95 507 44 L507 0 L775 0 L775 43 L590 43 C722 113 800 245 800 386 C800 598 650 745 435 745 C218 745 68 598 68 386 C68 245 147 113 279 43 L93 43 L93 0 Z " />
<glyph glyph-name="pi" unicode="&#x3c0;" horiz-adv-x="726" d="M152 0 L199 0 L199 502 L526 502 L526 0 L573 0 L573 502 L694 502 L694 545 L32 545 L32 502 L152 502 L152 0 Z " />
<glyph glyph-name="Wgrave" unicode="&#x1e80;" horiz-adv-x="1135" d="M536 801 L583 801 L491 933 L433 933 L536 801 Z M294 0 L350 0 L567 672 L783 0 L838 0 L1099 730 L1047 730 L811 56 L595 731 L538 731 L322 55 L85 730 L33 730 L294 0 Z " />
<glyph glyph-name="wgrave" unicode="&#x1e81;" horiz-adv-x="858" d="M449 643 L357 775 L299 775 L402 643 L449 643 Z M212 0 L261 0 L429 490 L597 0 L647 0 L842 545 L792 545 L621 56 L455 545 L405 545 L239 56 L66 545 L16 545 L212 0 Z " />
<glyph glyph-name="Wacute" unicode="&#x1e82;" horiz-adv-x="1135" d="M543 799 L590 799 L693 931 L635 931 L543 799 Z M294 0 L350 0 L567 672 L783 0 L838 0 L1099 730 L1047 730 L811 56 L595 731 L538 731 L322 55 L85 730 L33 730 L294 0 Z " />
<glyph glyph-name="wacute" unicode="&#x1e83;" horiz-adv-x="858" d="M406 643 L453 643 L556 775 L498 775 L406 643 Z M212 0 L261 0 L429 490 L597 0 L647 0 L842 545 L792 545 L621 56 L455 545 L405 545 L239 56 L66 545 L16 545 L212 0 Z " />
<glyph glyph-name="Wdieresis" unicode="&#x1e84;" horiz-adv-x="1135" d="M473 825 C493 825 510 842 510 863 C510 883 493 899 473 899 C452 899 436 883 436 863 C436 842 452 825 473 825 L473 825 Z M662 825 C682 825 699 842 699 863 C699 883 682 899 662 899 C641 899 625 883 625 863 C625 842 641 825 662 825 L662 825 Z M294 0 L350 0 L567 672 L783 0 L838 0 L1099 730 L1047 730 L811 56 L595 731 L538 731 L322 55 L85 730 L33 730 L294 0 Z " />
<glyph glyph-name="wdieresis" unicode="&#x1e85;" horiz-adv-x="858" d="M334 670 C354 670 371 687 371 708 C371 728 354 744 334 744 C313 744 297 728 297 708 C297 687 313 670 334 670 L334 670 Z M523 670 C543 670 560 687 560 708 C560 728 543 744 523 744 C502 744 486 728 486 708 C486 687 502 670 523 670 L523 670 Z M212 0 L261 0 L429 490 L597 0 L647 0 L842 545 L792 545 L621 56 L455 545 L405 545 L239 56 L66 545 L16 545 L212 0 Z " />
<glyph glyph-name="uni1E9E" unicode="&#x1e9e;" horiz-adv-x="730" d="M386 399 L376 399 L582 628 L588 670 C518 717 427 745 348 745 C190 745 96 666 96 533 L96 -7 L144 -7 L144 532 C144 637 219 700 344 700 C409 700 481 679 539 647 L318 399 L318 356 L375 356 C520 356 606 291 606 179 C606 85 547 28 450 28 C387 28 316 49 256 86 L238 43 C305 6 383 -15 452 -15 C578 -15 656 59 656 179 C656 313 552 399 386 399 L386 399 Z " />
<glyph glyph-name="Ygrave" unicode="&#x1ef2;" horiz-adv-x="666" d="M301 801 L348 801 L256 933 L198 933 L301 801 Z M309 0 L357 0 L357 313 L647 730 L591 730 L334 356 L74 730 L20 730 L309 313 L309 0 Z " />
<glyph glyph-name="ygrave" unicode="&#x1ef3;" horiz-adv-x="563" d="M305 643 L213 775 L155 775 L258 643 L305 643 Z M496 545 L277 63 L66 545 L16 545 L252 10 L155 -200 L205 -200 L546 545 L496 545 Z " />
<glyph glyph-name="uni1EF8" unicode="&#x1ef8;" horiz-adv-x="666" d="M397 813 C447 813 477 855 477 908 L443 908 C441 870 423 850 395 850 C351 850 323 909 264 909 C212 909 179 870 179 815 L214 815 C215 852 236 873 266 873 C306 873 339 813 397 813 L397 813 Z M309 0 L357 0 L357 313 L647 730 L591 730 L334 356 L74 730 L20 730 L309 313 L309 0 Z " />
<glyph glyph-name="uni1EF9" unicode="&#x1ef9;" horiz-adv-x="563" d="M223 714 C263 714 296 654 354 654 C404 654 434 696 434 749 L400 749 C398 711 380 691 352 691 C308 691 280 750 221 750 C169 750 136 711 136 656 L171 656 C172 693 193 714 223 714 L223 714 Z M496 545 L277 63 L66 545 L16 545 L252 10 L155 -200 L205 -200 L546 545 L496 545 Z " />
<glyph glyph-name="endash" unicode="&#x2013;" horiz-adv-x="536" d="M40 265 L496 265 L496 307 L40 307 L40 265 Z " />
<glyph glyph-name="emdash" unicode="&#x2014;" horiz-adv-x="901" d="M40 265 L859 265 L859 307 L40 307 L40 265 Z " />
<glyph glyph-name="quoteleft" unicode="&#x2018;" horiz-adv-x="206" d="M122 745 C81 714 57 671 57 617 C57 582 74 560 102 560 C125 560 142 577 142 600 C142 623 126 640 103 640 L96 640 C99 673 117 699 148 722 L122 745 Z " />
<glyph glyph-name="quoteright" unicode="&#x2019;" horiz-adv-x="206" d="M85 560 C126 590 149 634 149 687 C149 723 132 745 105 745 C82 745 65 728 65 705 C65 682 81 664 103 664 C106 664 108 664 111 665 C107 632 90 605 58 582 L85 560 Z " />
<glyph glyph-name="quotesinglbase" unicode="&#x201a;" horiz-adv-x="206" d="M85 -109 C126 -78 149 -34 149 19 C149 54 132 77 105 77 C82 77 65 59 65 36 C65 14 81 -4 103 -4 L111 -4 C107 -36 90 -63 58 -86 L85 -109 Z " />
<glyph glyph-name="quotedblleft" unicode="&#x201c;" horiz-adv-x="336" d="M102 560 C125 560 142 577 142 600 C142 623 126 640 103 640 L96 640 C99 673 117 699 148 722 L122 745 C81 714 57 671 57 617 C57 582 74 560 102 560 L102 560 Z M232 560 C255 560 272 577 272 600 C272 623 256 640 233 640 L226 640 C229 673 247 699 278 722 L252 745 C211 714 187 671 187 617 C187 582 204 560 232 560 L232 560 Z " />
<glyph glyph-name="quotedblright" unicode="&#x201d;" horiz-adv-x="336" d="M85 559 C126 590 149 633 149 687 C149 722 132 744 105 744 C82 744 65 727 65 704 C65 681 81 664 103 664 L111 664 C107 632 90 605 58 582 L85 559 Z M214 559 C255 590 279 633 279 687 C279 722 262 744 234 744 C211 744 194 727 194 704 C194 681 210 664 233 664 L240 664 C237 632 219 605 188 582 L214 559 Z " />
<glyph glyph-name="quotedblbase" unicode="&#x201e;" horiz-adv-x="336" d="M85 -109 C126 -78 149 -34 149 19 C149 54 132 77 105 77 C82 77 65 59 65 36 C65 14 81 -4 103 -4 L111 -4 C107 -36 90 -63 58 -86 L85 -109 Z M214 -109 C255 -78 279 -34 279 19 C279 54 262 77 235 77 C212 77 195 59 195 36 C195 14 210 -4 233 -4 L241 -4 C237 -36 220 -63 188 -86 L214 -109 Z " />
<glyph glyph-name="dagger" unicode="&#x2020;" horiz-adv-x="494" d="M227 0 L268 0 L268 499 L450 498 L450 543 L269 541 L271 743 L223 743 L225 541 L44 543 L44 498 L227 499 L227 0 Z " />
<glyph glyph-name="daggerdbl" unicode="&#x2021;" horiz-adv-x="494" d="M223 0 L271 0 L269 202 L450 201 L450 246 L268 244 L268 500 L450 498 L450 543 L269 541 L271 743 L223 743 L225 541 L44 543 L44 498 L227 500 L227 244 L44 246 L44 201 L225 202 L223 0 Z " />
<glyph glyph-name="bullet" unicode="&#x2022;" horiz-adv-x="378" d="M189 172 C251 172 302 223 302 285 C302 347 251 398 189 398 C127 398 76 347 76 285 C76 223 127 172 189 172 L189 172 Z " />
<glyph glyph-name="uni2023" unicode="&#x2023;" horiz-adv-x="448" d="M58 165 L400 334 L58 514 L58 165 Z " />
<glyph glyph-name="ellipsis" unicode="&#x2026;" horiz-adv-x="573" d="M118 -5 C141 -5 159 13 159 36 C159 59 141 77 118 77 C95 77 77 59 77 36 C77 13 95 -5 118 -5 L118 -5 Z M291 -5 C314 -5 332 13 332 36 C332 59 314 77 291 77 C268 77 250 59 250 36 C250 13 268 -5 291 -5 L291 -5 Z M454 -5 C477 -5 495 13 495 36 C495 59 477 77 454 77 C432 77 413 59 413 36 C413 13 432 -5 454 -5 L454 -5 Z " />
<glyph glyph-name="perthousand" unicode="&#x2030;" horiz-adv-x="1260" d="M228 401 C326 401 395 476 395 572 C395 667 326 742 228 742 C131 742 63 667 63 572 C63 476 131 401 228 401 L228 401 Z M228 0 L275 0 L653 730 L606 730 L228 0 Z M228 438 C155 438 103 498 103 572 C103 645 155 705 228 705 C302 705 354 646 354 572 C354 498 302 438 228 438 L228 438 Z M653 -12 C751 -12 820 63 820 158 C820 254 751 329 653 329 C556 329 488 254 488 158 C488 63 556 -12 653 -12 L653 -12 Z M1031 -12 C1129 -12 1198 63 1198 158 C1198 254 1129 329 1031 329 C934 329 866 254 866 158 C866 63 934 -12 1031 -12 L1031 -12 Z M1031 22 C956 22 904 84 904 158 C904 233 956 295 1031 295 C1107 295 1159 234 1159 158 C1159 84 1107 22 1031 22 L1031 22 Z M653 24 C579 24 527 84 527 158 C527 233 579 293 653 293 C728 293 779 233 779 158 C779 84 728 24 653 24 L653 24 Z " />
<glyph glyph-name="guilsinglleft" unicode="&#x2039;" horiz-adv-x="276" d="M192 93 L240 93 L84 273 L238 450 L189 450 L36 273 L192 93 Z " />
<glyph glyph-name="guilsinglright" unicode="&#x203a;" horiz-adv-x="276" d="M36 93 L84 93 L240 273 L87 450 L39 450 L192 273 L36 93 Z " />
<glyph glyph-name="fraction" unicode="&#x2044;" horiz-adv-x="253" d="M-118 0 L-76 0 L371 730 L329 730 L-118 0 Z " />
<glyph glyph-name="uni2070" unicode="&#x2070;" horiz-adv-x="409" d="M205 466 C304 466 373 552 373 677 C373 803 304 889 205 889 C105 889 36 803 36 677 C36 552 105 466 205 466 L205 466 Z M205 497 C125 497 72 572 72 677 C72 783 125 857 205 857 C283 858 336 783 336 677 C336 571 283 497 205 497 L205 497 Z " />
<glyph glyph-name="uni2074" unicode="&#x2074;" horiz-adv-x="413" d="M264 472 L300 472 L300 587 L371 587 L371 618 L300 618 L300 880 L255 880 L43 613 L43 587 L264 587 L264 472 Z M85 618 L264 841 L264 618 L85 618 Z " />
<glyph glyph-name="uni2075" unicode="&#x2075;" horiz-adv-x="379" d="M192 465 C273 465 332 519 332 596 C332 673 276 724 202 724 C166 724 131 712 102 688 L129 848 L317 848 L317 881 L100 881 L64 664 L90 653 C121 680 158 694 194 694 C253 694 296 652 296 595 C296 539 252 498 192 498 C151 498 101 513 62 540 L48 510 C88 482 142 465 192 465 L192 465 Z " />
<glyph glyph-name="uni2076" unicode="&#x2076;" horiz-adv-x="375" d="M197 730 C145 730 99 704 78 664 C80 784 141 857 230 857 C261 857 287 850 304 840 L315 871 C296 882 265 890 231 890 C119 890 43 795 43 660 C43 540 99 466 193 466 C275 466 332 521 332 599 C332 676 277 730 197 730 L197 730 Z M191 499 C129 499 86 540 86 598 C86 657 130 697 192 697 C254 697 296 657 296 598 C296 539 253 499 191 499 L191 499 Z " />
<glyph glyph-name="uni2077" unicode="&#x2077;" horiz-adv-x="375" d="M106 471 L144 471 C171 635 259 776 331 859 L331 879 L36 879 L36 847 L285 847 C202 751 122 600 106 471 L106 471 Z " />
<glyph glyph-name="uni2078" unicode="&#x2078;" horiz-adv-x="386" d="M193 466 C278 465 338 513 338 580 C338 627 307 667 259 684 C303 701 331 738 331 780 C331 844 274 890 193 889 C113 889 55 844 55 780 C55 738 84 701 127 684 C79 667 48 627 48 580 C48 513 108 466 193 466 L193 466 Z M193 698 C134 698 91 732 91 779 C91 825 134 858 193 858 C253 858 296 825 296 779 C296 732 253 698 193 698 L193 698 Z M193 496 C129 496 83 532 83 581 C83 632 129 669 193 669 C258 669 303 632 303 581 C303 532 258 496 193 496 L193 496 Z " />
<glyph glyph-name="uni2079" unicode="&#x2079;" horiz-adv-x="375" d="M183 889 C100 889 43 835 43 757 C43 680 98 626 178 626 C230 626 276 651 297 692 C295 571 235 498 145 498 C114 498 88 505 71 515 L60 485 C79 473 110 466 144 466 C256 466 332 560 332 696 C332 817 278 889 183 889 L183 889 Z M183 658 C121 658 79 699 79 758 C79 816 122 857 184 857 C246 857 289 816 289 758 C289 699 246 658 183 658 L183 658 Z " />
<glyph glyph-name="uni2080" unicode="&#x2080;" horiz-adv-x="409" d="M205 -158 C304 -158 373 -71 373 54 C373 179 304 266 205 266 C105 266 36 179 36 54 C36 -71 105 -158 205 -158 L205 -158 Z M205 -126 C125 -126 72 -52 72 54 C72 159 125 233 205 234 C283 235 336 160 336 54 C336 -52 283 -126 205 -126 L205 -126 Z " />
<glyph glyph-name="uni2081" unicode="&#x2081;" horiz-adv-x="241" d="M149 257 L18 204 L31 177 L146 222 L146 -151 L182 -151 L182 257 L149 257 Z " />
<glyph glyph-name="uni2082" unicode="&#x2082;" horiz-adv-x="387" d="M54 -151 L335 -151 L335 -119 L111 -119 L225 -25 C314 44 330 97 330 144 C330 217 273 263 193 265 C146 265 97 246 52 218 L65 189 C106 214 149 232 193 232 C250 232 294 196 294 143 C294 102 278 55 198 -7 L54 -123 L54 -151 Z " />
<glyph glyph-name="uni2083" unicode="&#x2083;" horiz-adv-x="368" d="M189 -160 C272 -160 329 -111 329 -41 C329 10 288 51 234 59 C285 67 323 105 323 154 C323 219 268 264 188 264 C145 264 96 250 54 227 L66 197 C100 216 145 232 184 232 C244 232 288 199 288 152 C288 104 243 73 179 73 L126 73 L126 40 L179 40 C246 40 293 10 293 -39 C293 -91 249 -128 187 -128 C140 -128 97 -109 62 -85 L47 -115 C88 -143 138 -160 189 -160 L189 -160 Z " />
<glyph glyph-name="uni2084" unicode="&#x2084;" horiz-adv-x="413" d="M264 -151 L300 -151 L300 -37 L371 -37 L371 -6 L300 -6 L300 257 L255 257 L43 -10 L43 -37 L264 -37 L264 -151 Z M85 -6 L264 217 L264 -6 L85 -6 Z " />
<glyph glyph-name="uni2085" unicode="&#x2085;" horiz-adv-x="379" d="M192 -159 C273 -159 332 -105 332 -28 C332 49 276 100 202 100 C166 100 131 88 102 64 L129 224 L317 224 L317 257 L100 257 L64 40 L90 29 C121 56 158 69 194 69 C253 69 296 28 296 -29 C296 -85 252 -126 192 -126 C151 -126 101 -111 62 -84 L48 -114 C88 -142 142 -159 192 -159 L192 -159 Z " />
<glyph glyph-name="uni2086" unicode="&#x2086;" horiz-adv-x="375" d="M197 104 C145 104 99 79 78 38 C80 159 141 232 230 232 C261 232 287 225 304 215 L315 245 C296 257 265 265 231 265 C119 265 43 170 43 34 C43 -86 99 -159 193 -159 C275 -159 332 -105 332 -27 C332 51 277 104 197 104 L197 104 Z M191 -126 C129 -126 86 -85 86 -27 C86 32 130 72 192 72 C254 72 296 32 296 -27 C296 -86 253 -126 191 -126 L191 -126 Z " />
<glyph glyph-name="uni2087" unicode="&#x2087;" horiz-adv-x="375" d="M106 -151 L144 -151 C171 13 259 154 331 236 L331 257 L36 257 L36 224 L285 224 C202 129 122 -23 106 -151 L106 -151 Z " />
<glyph glyph-name="uni2088" unicode="&#x2088;" horiz-adv-x="386" d="M193 -158 C278 -159 338 -111 338 -44 C338 3 307 43 259 60 C303 77 331 114 331 156 C331 220 274 266 193 265 C113 265 55 220 55 156 C55 114 84 77 127 60 C79 43 48 3 48 -44 C48 -111 108 -158 193 -158 L193 -158 Z M193 74 C134 74 91 108 91 155 C91 201 134 235 193 234 C253 235 296 201 296 155 C296 108 253 74 193 74 L193 74 Z M193 -128 C129 -128 83 -93 83 -43 C83 8 129 45 193 45 C258 45 303 8 303 -43 C303 -93 258 -128 193 -128 L193 -128 Z " />
<glyph glyph-name="uni2089" unicode="&#x2089;" horiz-adv-x="375" d="M183 265 C100 265 43 210 43 132 C43 55 98 1 178 1 C230 1 276 27 297 67 C295 -53 234 -126 145 -126 C114 -126 88 -119 71 -109 L60 -140 C79 -151 110 -159 144 -159 C256 -159 332 -64 332 71 C332 193 278 265 183 265 L183 265 Z M183 34 C121 34 79 74 79 133 C79 192 122 232 184 232 C246 232 289 191 289 133 C289 74 246 34 183 34 L183 34 Z " />
<glyph glyph-name="Euro" unicode="&#x20ac;" horiz-adv-x="690" d="M631 85 C577 51 498 30 420 30 C276 30 172 123 143 270 L512 270 L512 308 L137 308 C135 325 134 342 134 360 C134 379 135 398 137 416 L512 416 L512 454 L143 454 C174 605 281 700 431 700 C495 700 574 679 628 646 L643 689 C574 727 507 745 429 745 C252 745 125 632 92 454 L19 454 L19 416 L87 416 C85 398 84 379 84 360 C84 342 85 325 86 308 L19 308 L19 270 L92 270 C123 96 245 -15 417 -15 C502 -15 574 2 645 41 L631 85 Z " />
<glyph glyph-name="uni20B9" unicode="&#x20b9;" horiz-adv-x="568" d="M531 730 L45 730 L45 686 L193 686 C300 686 377 632 388 545 L45 545 L45 507 L388 507 C380 420 302 365 193 365 L45 365 L45 322 L185 322 L197 322 L446 0 L504 0 L250 328 C357 347 429 414 436 507 L531 507 L531 545 L436 545 C429 609 393 660 336 692 L531 692 L531 730 Z " />
<glyph glyph-name="uni20BD" unicode="&#x20bd;" horiz-adv-x="644" d="M97 0 L145 0 L145 168 L351 168 L351 212 L145 212 L145 296 L352 296 C496 296 596 385 596 513 C596 641 496 730 352 730 L97 730 L97 340 L14 340 L14 296 L97 296 L97 212 L14 212 L14 168 L97 168 L97 0 Z M145 340 L145 686 L351 686 C467 686 547 616 547 513 C547 409 467 340 351 340 L145 340 Z " />
<glyph glyph-name="uni2116" unicode="&#x2116;" horiz-adv-x="1142" d="M961 745 C889 745 831 687 831 614 C831 542 889 483 961 483 C1034 483 1092 542 1092 614 C1092 687 1034 745 961 745 L961 745 Z M652 75 L143 730 L96 730 L96 0 L144 0 L144 654 L654 0 L699 0 L699 730 L652 730 L652 75 Z M961 522 C911 522 870 563 870 614 C870 667 911 708 961 708 C1013 708 1054 667 1054 614 C1054 563 1013 522 961 522 L961 522 Z " />
<glyph glyph-name="trademark" unicode="&#x2122;" horiz-adv-x="608" d="M131 461 L159 461 L159 703 L264 703 L264 730 L26 730 L26 703 L131 703 L131 461 Z M305 463 L332 463 L332 690 L432 533 L438 533 L537 690 L537 463 L565 463 L565 730 L533 730 L435 575 L337 730 L305 730 L305 463 Z " />
<glyph glyph-name="estimated" unicode="&#x212e;" horiz-adv-x="871" d="M184 106 L184 355 L831 355 L831 364 C835 568 648 749 435 745 C222 749 35 568 39 364 C35 161 222 -20 435 -15 C561 -15 716 41 789 132 L731 132 C668 54 537 8 437 8 C342 8 256 39 184 106 L184 106 Z M437 722 C536 722 613 688 685 629 L685 376 L184 376 L184 629 C255 684 333 722 437 722 L437 722 Z " />
<glyph glyph-name="uni2153" unicode="&#x2153;" horiz-adv-x="796" d="M145 323 L182 323 L182 731 L149 731 L17 679 L30 651 L145 694 L145 323 Z M116 0 L158 0 L605 730 L563 730 L116 0 Z M606 -7 C688 -7 745 42 745 112 C745 163 704 203 650 211 C701 220 740 258 740 307 C740 372 684 417 604 417 C561 417 512 403 470 380 L483 349 C517 369 561 385 600 385 C660 385 704 351 704 305 C704 256 660 226 595 226 L542 226 L542 193 L596 193 C662 193 709 163 709 114 C709 62 665 25 604 25 C556 25 514 44 478 68 L463 38 C504 10 554 -7 606 -7 L606 -7 Z " />
<glyph glyph-name="oneeighth" unicode="&#x215b;" horiz-adv-x="807" d="M145 323 L182 323 L182 731 L149 731 L17 679 L30 651 L145 694 L145 323 Z M116 0 L158 0 L605 730 L563 730 L116 0 Z M616 -7 C700 -7 760 41 760 107 C760 154 729 194 681 211 C725 228 753 265 753 308 C753 371 696 417 616 417 C535 416 477 371 477 308 C477 265 506 228 549 211 C501 194 470 154 470 107 C470 41 530 -7 616 -7 L616 -7 Z M616 225 C556 225 513 259 513 306 C513 353 556 386 616 386 C675 386 718 353 718 306 C718 259 675 225 616 225 L616 225 Z M616 23 C551 23 505 59 505 108 C505 159 551 196 616 196 C680 196 725 159 725 108 C725 59 680 23 616 23 L616 23 Z " />
<glyph glyph-name="threeeighths" unicode="&#x215c;" horiz-adv-x="908" d="M189 314 C272 314 328 363 328 433 C328 484 287 525 233 533 C285 541 323 579 323 628 C323 693 267 738 187 738 C144 738 95 724 53 701 L66 671 C100 690 145 706 183 706 C243 706 287 673 287 626 C287 578 243 547 178 547 L125 547 L125 514 L179 514 C245 514 292 484 292 435 C292 383 248 346 187 346 C139 346 97 365 61 389 L47 359 C87 331 137 314 189 314 L189 314 Z M218 0 L261 0 L708 730 L666 730 L218 0 Z M717 -7 C801 -7 862 41 862 107 C862 154 830 194 783 211 C826 228 854 265 854 308 C854 371 797 417 717 417 C637 416 579 371 579 308 C579 265 608 228 651 211 C603 194 571 154 571 107 C571 41 632 -7 717 -7 L717 -7 Z M717 225 C657 225 614 259 614 306 C614 353 657 386 717 386 C777 386 819 353 819 306 C819 259 777 225 717 225 L717 225 Z M717 23 C653 23 607 59 607 108 C607 159 653 196 717 196 C781 196 827 159 827 108 C827 59 781 23 717 23 L717 23 Z " />
<glyph glyph-name="fiveeighths" unicode="&#x215d;" horiz-adv-x="909" d="M191 315 C272 315 331 369 331 446 C331 523 275 574 201 574 C166 574 130 562 102 538 L128 698 L317 698 L317 731 L100 731 L63 514 L89 503 C120 530 157 544 193 544 C252 544 295 502 295 445 C295 389 251 348 191 348 C150 348 100 363 62 390 L47 360 C87 332 141 315 191 315 L191 315 Z M234 0 L276 0 L724 730 L682 730 L234 0 Z M717 -7 C801 -7 862 41 862 107 C862 154 830 194 783 211 C826 228 854 265 854 308 C854 371 797 417 717 417 C637 416 579 371 579 308 C579 265 608 228 651 211 C603 194 571 154 571 107 C571 41 632 -7 717 -7 L717 -7 Z M717 225 C657 225 614 259 614 306 C614 353 657 386 717 386 C777 386 819 353 819 306 C819 259 777 225 717 225 L717 225 Z M717 23 C653 23 607 59 607 108 C607 159 653 196 717 196 C781 196 827 159 827 108 C827 59 781 23 717 23 L717 23 Z " />
<glyph glyph-name="seveneighths" unicode="&#x215e;" horiz-adv-x="820" d="M145 0 L187 0 L634 730 L592 730 L145 0 Z M106 321 L143 321 C170 485 259 626 330 709 L330 729 L36 729 L36 697 L284 697 C202 601 121 450 106 321 L106 321 Z M629 -7 C713 -7 774 41 774 107 C774 154 742 194 694 211 C738 228 766 265 766 308 C766 371 709 417 629 417 C548 416 491 371 491 308 C491 265 519 228 562 211 C515 194 483 154 483 107 C483 41 544 -7 629 -7 L629 -7 Z M629 225 C569 225 526 259 526 306 C526 353 569 386 629 386 C688 386 731 353 731 306 C731 259 688 225 629 225 L629 225 Z M629 23 C564 23 518 59 518 108 C518 159 564 196 629 196 C693 196 739 159 739 108 C739 59 693 23 629 23 L629 23 Z " />
<glyph glyph-name="arrowleft" unicode="&#x2190;" horiz-adv-x="872" d="M383 -15 L417 19 L94 342 L822 341 L822 389 L94 389 L417 711 L383 745 L3 366 L383 -15 Z " />
<glyph glyph-name="arrowup" unicode="&#x2191;" horiz-adv-x="781" d="M368 0 L415 0 L415 654 L712 356 L745 391 L391 745 L36 391 L70 356 L367 654 L368 0 Z " />
<glyph glyph-name="arrowright" unicode="&#x2192;" horiz-adv-x="872" d="M489 -15 L869 366 L489 745 L455 711 L778 389 L49 389 L50 341 L777 342 L455 19 L489 -15 Z " />
<glyph glyph-name="arrowdown" unicode="&#x2193;" horiz-adv-x="781" d="M391 -5 L745 349 L712 384 L415 86 L415 740 L368 740 L367 86 L70 384 L36 349 L391 -5 Z " />
<glyph glyph-name="arrowboth" unicode="&#x2194;" horiz-adv-x="1184" d="M383 -15 L417 19 L94 342 L1090 342 L767 19 L801 -15 L1181 366 L801 745 L767 711 L1090 389 L94 389 L417 711 L383 745 L3 366 L383 -15 Z " />
<glyph glyph-name="arrowupdn" unicode="&#x2195;" horiz-adv-x="832" d="M416 -171 L796 209 L762 243 L440 -80 L440 810 L762 487 L796 522 L415 902 L36 522 L70 487 L392 811 L392 -81 L70 244 L36 209 L416 -171 Z " />
<glyph glyph-name="uni2196" unicode="&#x2196;" horiz-adv-x="863" d="M793 0 L827 33 L178 682 L744 682 L744 730 L97 730 L97 84 L144 84 L145 649 L793 0 Z " />
<glyph glyph-name="uni2197" unicode="&#x2197;" horiz-adv-x="863" d="M70 0 L718 649 L719 84 L766 84 L766 730 L119 730 L119 682 L685 682 L36 33 L70 0 Z " />
<glyph glyph-name="uni2198" unicode="&#x2198;" horiz-adv-x="863" d="M119 1 L766 0 L766 647 L719 647 L718 82 L70 730 L36 697 L685 48 L119 49 L119 1 Z " />
<glyph glyph-name="uni2199" unicode="&#x2199;" horiz-adv-x="863" d="M721 1 L721 49 L156 48 L804 697 L771 730 L122 82 L122 647 L74 647 L75 0 L721 1 Z " />
<glyph glyph-name="partialdiff" unicode="&#x2202;" horiz-adv-x="697" d="M350 -15 C526 -15 631 117 631 290 C631 483 492 680 301 799 L252 780 C380 693 488 594 542 476 C494 527 428 560 341 560 C183 560 66 436 66 272 C66 105 182 -15 350 -15 L350 -15 Z M350 26 C212 26 113 128 113 272 C113 411 211 519 348 519 C486 519 583 420 583 282 C583 135 487 26 350 26 L350 26 Z " />
<glyph glyph-name="product" unicode="&#x220f;" horiz-adv-x="700" d="M175 -90 L222 -90 L222 686 L475 686 L474 -90 L522 -90 L522 686 L659 686 L659 730 L41 730 L41 686 L175 686 L175 -90 Z " />
<glyph glyph-name="summation" unicode="&#x2211;" horiz-adv-x="582" d="M66 -90 L516 -90 L516 -46 L120 -46 L396 320 L120 687 L516 687 L516 730 L66 730 L65 689 L342 320 L65 -49 L66 -90 Z " />
<glyph glyph-name="minus" unicode="&#x2212;" horiz-adv-x="531" d="M41 332 L490 332 L490 372 L41 372 L41 332 Z " />
<glyph glyph-name="radical" unicode="&#x221a;" horiz-adv-x="804" d="M405 0 L462 0 L771 729 L721 729 L434 50 L224 545 L59 545 L59 502 L191 502 L405 0 Z " />
<glyph glyph-name="infinity" unicode="&#x221e;" horiz-adv-x="801" d="M207 172 C299 171 352 238 401 311 C449 238 502 172 594 172 C696 172 765 244 765 351 C765 457 696 529 594 530 C502 530 449 463 401 390 C352 463 299 530 207 530 C104 529 36 457 36 351 C36 244 104 173 207 172 L207 172 Z M205 212 C128 212 77 268 78 351 C77 433 128 489 205 489 C285 489 332 417 377 351 C332 284 285 212 205 212 L205 212 Z M595 212 C516 212 469 284 424 351 C469 417 516 489 595 489 C672 489 723 434 722 351 C722 267 672 212 595 212 L595 212 Z " />
<glyph glyph-name="integral" unicode="&#x222b;" horiz-adv-x="445" d="M23 -204 L105 -204 C194 -204 246 -149 247 -52 L247 604 C247 680 280 724 338 724 L422 724 L422 764 L340 764 C251 764 198 709 198 613 L198 -43 C198 -120 165 -163 107 -163 L23 -163 L23 -204 Z " />
<glyph glyph-name="approxequal" unicode="&#x2248;" horiz-adv-x="531" d="M153 413 C267 413 274 470 377 470 C417 470 460 457 490 435 L490 482 C459 500 416 511 377 511 C265 511 255 454 153 454 C113 454 73 466 41 489 L41 441 C73 423 115 413 153 413 L153 413 Z M153 193 C267 193 274 251 377 250 C418 251 460 238 490 216 L490 262 C459 280 416 292 377 292 C265 292 255 234 153 234 C113 234 73 246 41 269 L41 222 C73 203 115 193 153 193 L153 193 Z " />
<glyph glyph-name="notequal" unicode="&#x2260;" horiz-adv-x="531" d="M490 441 L490 482 L349 482 L424 641 L378 641 L303 482 L41 482 L41 441 L284 441 L199 262 L41 262 L41 222 L180 222 L99 50 L144 50 L225 222 L490 222 L490 262 L244 262 L329 441 L490 441 Z " />
<glyph glyph-name="lessequal" unicode="&#x2264;" horiz-adv-x="538" d="M491 97 L491 147 L97 352 L491 557 L491 608 L45 374 L45 330 L491 97 Z M46 0 L491 0 L491 40 L46 40 L46 0 Z " />
<glyph glyph-name="greaterequal" unicode="&#x2265;" horiz-adv-x="538" d="M45 97 L491 330 L491 374 L45 608 L45 557 L440 352 L45 147 L45 97 Z M45 0 L491 0 L491 40 L45 40 L45 0 Z " />
<glyph glyph-name="uni2318" unicode="&#x2318;" horiz-adv-x="743" d="M171 42 C246 42 296 92 296 166 L296 255 L448 255 L448 166 C448 92 498 42 572 42 C646 42 695 92 695 166 C695 239 646 288 572 288 L484 288 L484 439 L572 439 C646 439 695 489 695 563 C695 636 646 685 572 685 C498 685 448 636 448 563 L448 472 L296 472 L296 563 C296 636 246 685 172 685 C98 685 48 636 48 563 C48 489 98 439 172 439 L260 439 L260 288 L171 288 C97 288 48 239 48 166 C48 92 97 42 171 42 L171 42 Z M172 472 C118 472 82 509 82 563 C82 616 118 652 172 652 C225 652 260 616 260 563 L260 472 L172 472 Z M484 472 L484 563 C484 616 519 652 572 652 C625 652 661 616 661 563 C661 509 625 472 573 472 L484 472 Z M296 288 L296 439 L448 439 L448 288 L296 288 Z M171 76 C118 76 82 112 82 166 C82 219 117 255 170 255 L260 255 L260 166 C260 112 224 76 171 76 L171 76 Z M572 76 C519 76 484 112 484 166 L484 255 L573 255 C625 255 661 219 661 166 C661 112 625 76 572 76 L572 76 Z " />
<glyph glyph-name="filledbox" unicode="&#x25a0;" horiz-adv-x="654" d="M20 61 L616 61 L616 657 L20 657 L20 61 Z " />
<glyph glyph-name="uni25A1" unicode="&#x25a1;" horiz-adv-x="661" d="M31 61 L627 61 L627 657 L31 657 L31 61 Z M78 106 L78 612 L580 612 L580 106 L78 106 Z " />
<glyph glyph-name="triagup" unicode="&#x25b2;" horiz-adv-x="704" d="M-1 76 L698 76 L348 638 L-1 76 Z " />
<glyph glyph-name="uni25B6" unicode="&#x25b6;" horiz-adv-x="575" d="M26 77 L575 348 L26 637 L26 77 Z " />
<glyph glyph-name="triagdn" unicode="&#x25bc;" horiz-adv-x="758" d="M29 639 L378 77 L728 639 L29 639 Z " />
<glyph glyph-name="uni25C0" unicode="&#x25c0;" horiz-adv-x="575" d="M549 77 L549 637 L0 348 L549 77 Z " />
<glyph glyph-name="uni25C6" unicode="&#x25c6;" horiz-adv-x="715" d="M357 14 L702 359 L357 704 L12 359 L357 14 Z " />
<glyph glyph-name="uni25C7" unicode="&#x25c7;" horiz-adv-x="727" d="M364 15 L708 359 L364 703 L19 359 L364 15 Z M363 75 L79 358 L365 643 L648 360 L363 75 Z " />
<glyph glyph-name="lozenge" unicode="&#x25ca;" horiz-adv-x="529" d="M240 0 L288 0 L504 358 L291 730 L243 730 L25 358 L240 0 Z M265 34 L68 358 L265 694 L462 358 L265 34 Z " />
<glyph glyph-name="circle" unicode="&#x25cb;" horiz-adv-x="801" d="M400 14 C588 14 741 167 741 355 C741 543 588 696 400 696 C212 696 59 543 59 355 C59 167 212 14 400 14 L400 14 Z M400 60 C238 60 107 193 107 355 C107 520 238 650 400 650 C563 650 694 517 694 355 C694 193 563 60 400 60 L400 60 Z " />
<glyph glyph-name="uni25CF" unicode="&#x25cf;" horiz-adv-x="775" d="M387 27 C568 27 715 174 715 355 C715 536 568 683 387 683 C206 683 59 536 59 355 C59 174 206 27 387 27 L387 27 Z " />
<glyph glyph-name="uni25D0" unicode="&#x25d0;" horiz-adv-x="801" d="M400 14 C588 14 741 167 741 355 C741 543 588 696 400 696 C212 696 59 543 59 355 C59 167 212 14 400 14 L400 14 Z M408 60 L409 650 C567 645 694 515 694 355 C694 195 567 65 408 60 L408 60 Z " />
<glyph glyph-name="uni25D2" unicode="&#x25d2;" horiz-adv-x="837" d="M419 23 C615 23 759 163 759 364 C759 563 618 705 419 705 C220 705 78 563 78 364 C78 168 218 23 419 23 L419 23 Z M129 364 C129 533 249 653 419 653 C590 653 708 532 708 364 L129 364 Z " />
<glyph glyph-name="uni25D3" unicode="&#x25d3;" horiz-adv-x="837" d="M419 23 C618 23 759 164 759 364 C759 564 615 705 419 705 C218 705 78 559 78 364 C78 164 220 23 419 23 L419 23 Z M419 74 C249 74 129 194 129 364 L708 364 C708 195 590 74 419 74 L419 74 Z " />
<glyph glyph-name="uni25D6" unicode="&#x25d6;" horiz-adv-x="801" d="M400 14 C588 14 741 167 741 355 C741 543 588 696 400 696 C212 696 59 543 59 355 C59 167 212 14 400 14 L400 14 Z M396 60 C236 62 107 194 107 355 C107 519 235 647 396 650 L396 60 Z " />
<glyph glyph-name="uni2605" unicode="&#x2605;" horiz-adv-x="954" d="M622 277 L860 449 L567 449 L476 728 L386 449 L93 449 L330 277 L240 -1 L476 171 L713 -1 L622 277 Z " />
<glyph glyph-name="uni2661" unicode="&#x2661;" horiz-adv-x="717" d="M356 50 L360 50 C380 104 667 279 667 450 C667 550 598 617 498 617 C409 617 374 547 358 547 C342 547 307 617 218 617 C118 617 49 550 49 450 C49 279 336 104 356 50 L356 50 Z " />
<glyph glyph-name="uni274F" unicode="&#x274f;" horiz-adv-x="785" d="M626 562 L626 655 L96 655 L96 125 L189 125 L189 62 L689 62 L689 562 L626 562 Z M140 613 L583 613 L583 167 L140 167 L140 613 Z " />
<glyph glyph-name="uni2750" unicode="&#x2750;" horiz-adv-x="785" d="M689 655 L189 655 L189 592 L96 592 L96 62 L626 62 L626 155 L689 155 L689 655 Z M583 104 L140 104 L140 550 L583 550 L583 104 Z " />
<glyph glyph-name="uni2751" unicode="&#x2751;" horiz-adv-x="785" d="M689 655 L159 655 L159 562 L96 562 L96 62 L596 62 L596 125 L689 125 L689 655 Z M646 167 L203 167 L203 613 L646 613 L646 167 Z " />
<glyph glyph-name="uni2752" unicode="&#x2752;" horiz-adv-x="785" d="M596 592 L596 655 L96 655 L96 155 L159 155 L159 62 L689 62 L689 592 L596 592 Z M646 104 L203 104 L203 550 L646 550 L646 104 Z " />
<glyph glyph-name="uni2780" unicode="&#x2780;" horiz-adv-x="812" d="M406 -15 C612 -15 768 149 768 365 C768 581 612 745 406 745 C200 745 44 581 44 365 C44 149 200 -15 406 -15 L406 -15 Z M406 21 C220 21 80 169 80 365 C80 561 220 709 406 709 C592 709 732 561 732 365 C732 169 592 21 406 21 L406 21 Z M405 162 L442 162 L442 570 L409 570 L277 518 L290 490 L405 533 L405 162 Z " />
<glyph glyph-name="uni2781" unicode="&#x2781;" horiz-adv-x="812" d="M406 -15 C612 -15 768 149 768 365 C768 581 612 745 406 745 C200 745 44 581 44 365 C44 149 200 -15 406 -15 L406 -15 Z M406 21 C220 21 80 169 80 365 C80 561 220 709 406 709 C592 709 732 561 732 365 C732 169 592 21 406 21 L406 21 Z M261 164 L549 164 L549 196 L318 196 L432 294 C517 361 538 416 538 463 C538 536 480 579 401 580 C353 580 304 561 259 533 L272 504 C313 529 356 546 400 546 C458 546 501 515 501 462 C501 421 480 372 405 312 L261 192 L261 164 Z " />
<glyph glyph-name="uni2782" unicode="&#x2782;" horiz-adv-x="812" d="M406 -15 C612 -15 768 149 768 365 C768 581 612 745 406 745 C200 745 44 581 44 365 C44 149 200 -15 406 -15 L406 -15 Z M406 21 C220 21 80 169 80 365 C80 561 220 709 406 709 C592 709 732 561 732 365 C732 169 592 21 406 21 L406 21 Z M405 154 C488 154 545 203 545 273 C545 324 504 364 450 372 C501 381 541 419 541 468 C541 533 484 578 403 578 C361 578 312 564 269 541 L282 510 C316 530 361 545 400 545 C460 545 504 512 504 466 C504 417 459 387 395 387 L342 387 L342 354 L395 354 C462 354 509 324 509 275 C509 223 465 186 403 186 C363 186 313 202 276 226 L263 196 C304 170 359 154 405 154 L405 154 Z " />
<glyph glyph-name="uni2783" unicode="&#x2783;" horiz-adv-x="812" d="M406 -15 C612 -15 768 149 768 365 C768 581 612 745 406 745 C200 745 44 581 44 365 C44 149 200 -15 406 -15 L406 -15 Z M406 21 C220 21 80 169 80 365 C80 561 220 709 406 709 C592 709 732 561 732 365 C732 169 592 21 406 21 L406 21 Z M435 162 L470 162 L470 276 L541 276 L541 307 L470 307 L470 570 L425 570 L206 303 L206 276 L435 276 L435 162 Z M248 307 L435 530 L435 307 L248 307 Z " />
<glyph glyph-name="uni2784" unicode="&#x2784;" horiz-adv-x="812" d="M406 -15 C612 -15 768 149 768 365 C768 581 612 745 406 745 C200 745 44 581 44 365 C44 149 200 -15 406 -15 L406 -15 Z M406 21 C220 21 80 169 80 365 C80 561 220 709 406 709 C592 709 732 561 732 365 C732 169 592 21 406 21 L406 21 Z M408 152 C489 152 548 206 548 283 C548 360 492 411 418 411 C382 411 347 399 318 375 L345 535 L533 535 L533 568 L316 568 L280 351 L306 340 C337 367 374 381 410 381 C469 381 512 339 512 282 C512 226 468 185 408 185 C367 185 317 200 279 227 L264 197 C304 169 358 152 408 152 L408 152 Z " />
<glyph glyph-name="uni2785" unicode="&#x2785;" horiz-adv-x="812" d="M406 745 C200 745 44 581 44 365 C44 149 200 -15 406 -15 C612 -15 768 149 768 365 C768 581 612 745 406 745 L406 745 Z M406 21 C220 21 80 169 80 365 C80 561 220 709 406 709 C592 709 732 561 732 365 C732 169 592 21 406 21 L406 21 Z M405 418 C353 418 307 392 286 352 C288 472 349 545 438 545 C470 545 495 538 512 528 L523 559 C504 570 473 578 439 578 C328 578 251 483 251 348 C251 228 307 154 401 154 C483 154 541 209 541 287 C541 364 485 418 405 418 L405 418 Z M399 187 C337 187 294 228 294 286 C294 345 338 385 400 385 C462 385 504 345 504 286 C504 227 462 187 399 187 L399 187 Z " />
<glyph glyph-name="uni2786" unicode="&#x2786;" horiz-adv-x="812" d="M406 -15 C612 -15 768 149 768 365 C768 581 612 745 406 745 C200 745 44 581 44 365 C44 149 200 -15 406 -15 L406 -15 Z M406 21 C220 21 80 169 80 365 C80 561 220 709 406 709 C592 709 732 561 732 365 C732 169 592 21 406 21 L406 21 Z M333 162 L371 162 C398 326 486 467 558 549 L558 570 L270 570 L270 537 L512 537 C429 442 349 291 333 162 L333 162 Z " />
<glyph glyph-name="uni2787" unicode="&#x2787;" horiz-adv-x="812" d="M406 -15 C612 -15 768 149 768 365 C768 581 612 745 406 745 C200 745 44 581 44 365 C44 149 200 -15 406 -15 L406 -15 Z M406 21 C220 21 80 169 80 365 C80 561 220 709 406 709 C592 709 732 561 732 365 C732 169 592 21 406 21 L406 21 Z M406 154 C490 154 551 202 551 268 C551 315 519 355 471 372 C515 389 543 426 543 469 C543 532 486 578 406 578 C325 578 267 532 267 469 C267 426 296 389 339 372 C291 355 260 315 260 268 C260 202 321 154 406 154 L406 154 Z M406 386 C346 386 303 420 303 467 C303 514 346 547 406 547 C465 547 508 514 508 467 C508 420 465 386 406 386 L406 386 Z M406 184 C341 184 295 220 295 269 C295 320 341 357 406 357 C470 357 516 320 516 269 C516 220 470 184 406 184 L406 184 Z " />
<glyph glyph-name="uni2788" unicode="&#x2788;" horiz-adv-x="812" d="M406 745 C200 745 44 581 44 365 C44 149 200 -15 406 -15 C612 -15 768 149 768 365 C768 581 612 745 406 745 L406 745 Z M406 21 C220 21 80 169 80 365 C80 561 220 709 406 709 C592 709 732 561 732 365 C732 169 592 21 406 21 L406 21 Z M400 577 C317 577 260 523 260 445 C260 367 316 314 396 314 C448 314 494 339 515 380 C513 259 452 186 363 186 C331 186 305 193 289 203 L278 173 C297 161 328 153 362 153 C473 153 550 248 550 384 C550 505 496 577 400 577 L400 577 Z M401 346 C339 346 297 386 297 445 C297 504 339 544 402 544 C464 544 507 503 507 445 C507 386 463 346 401 346 L401 346 Z " />
<glyph glyph-name="uni278A" unicode="&#x278a;" horiz-adv-x="812" d="M406 -14 C612 -14 768 150 768 366 C768 582 612 745 406 745 C200 745 44 582 44 366 C44 150 200 -14 406 -14 L406 -14 Z M407 162 L407 533 L292 490 L279 518 L411 570 L444 570 L444 162 L407 162 Z " />
<glyph glyph-name="uni278B" unicode="&#x278b;" horiz-adv-x="812" d="M406 -14 C612 -14 768 150 768 366 C768 582 612 745 406 745 C200 745 44 582 44 366 C44 150 200 -14 406 -14 L406 -14 Z M261 164 L261 192 L405 311 C481 371 501 421 501 461 C501 515 458 546 400 546 C356 546 313 529 272 504 L259 533 C304 561 353 580 401 580 C480 579 538 535 538 462 C538 415 517 360 432 294 L318 196 L549 196 L549 164 L261 164 Z " />
<glyph glyph-name="uni278C" unicode="&#x278c;" horiz-adv-x="812" d="M406 -14 C612 -14 768 150 768 366 C768 582 612 745 406 745 C200 745 44 582 44 366 C44 150 200 -14 406 -14 L406 -14 Z M405 154 C359 154 304 170 263 196 L276 226 C313 202 363 186 403 186 C465 186 509 223 509 275 C509 324 462 354 395 354 L342 354 L342 387 L395 387 C459 387 504 417 504 466 C504 512 460 545 400 545 C361 545 316 530 282 510 L269 541 C312 564 361 578 403 578 C484 578 541 533 541 468 C541 419 501 381 450 372 C503 364 545 325 545 273 C545 203 488 154 405 154 L405 154 Z " />
<glyph glyph-name="uni278D" unicode="&#x278d;" horiz-adv-x="812" d="M406 -14 C612 -14 768 150 768 366 C768 582 612 745 406 745 C200 745 44 582 44 366 C44 150 200 -14 406 -14 L406 -14 Z M435 162 L435 276 L206 276 L206 303 L425 570 L470 570 L470 307 L541 307 L541 276 L470 276 L470 162 L435 162 Z M248 307 L435 307 L435 530 L248 307 Z " />
<glyph glyph-name="uni278E" unicode="&#x278e;" horiz-adv-x="812" d="M406 -14 C612 -14 768 150 768 366 C768 582 612 745 406 745 C200 745 44 582 44 366 C44 150 200 -14 406 -14 L406 -14 Z M408 152 C358 152 304 169 264 197 L279 227 C317 200 367 185 408 185 C468 185 512 226 512 282 C512 339 469 381 410 381 C374 381 337 367 306 340 L280 351 L316 568 L533 568 L533 535 L345 535 L318 375 C347 399 382 411 418 411 C492 411 548 360 548 283 C548 206 489 152 408 152 L408 152 Z " />
<glyph glyph-name="uni278F" unicode="&#x278f;" horiz-adv-x="812" d="M406 -14 C612 -14 768 150 768 366 C768 582 612 745 406 745 C200 745 44 582 44 366 C44 150 200 -14 406 -14 L406 -14 Z M401 154 C307 154 251 228 251 348 C251 483 328 578 439 578 C473 578 504 570 523 559 L512 528 C495 538 470 545 438 545 C349 545 289 473 287 354 C308 393 354 418 405 418 C485 418 541 364 541 287 C541 209 483 154 401 154 L401 154 Z M399 187 C462 187 504 227 504 286 C504 345 462 385 400 385 C338 385 294 345 294 286 C294 228 337 187 399 187 L399 187 Z " />
<glyph glyph-name="uni2790" unicode="&#x2790;" horiz-adv-x="812" d="M406 -14 C612 -14 768 150 768 366 C768 582 612 745 406 745 C200 745 44 582 44 366 C44 150 200 -14 406 -14 L406 -14 Z M333 162 C349 291 429 442 512 537 L270 537 L270 570 L558 570 L558 549 C486 467 398 326 371 162 L333 162 Z " />
<glyph glyph-name="uni2791" unicode="&#x2791;" horiz-adv-x="812" d="M406 -14 C612 -14 768 150 768 366 C768 582 612 745 406 745 C200 745 44 582 44 366 C44 150 200 -14 406 -14 L406 -14 Z M406 154 C321 154 260 202 260 268 C260 315 291 355 339 372 C296 389 267 426 267 469 C267 532 325 578 406 578 C486 578 543 532 543 469 C543 426 515 389 471 372 C519 355 551 315 551 268 C551 202 490 154 406 154 L406 154 Z M406 386 C465 386 508 420 508 467 C508 514 465 547 406 547 C346 547 303 514 303 467 C303 420 346 386 406 386 L406 386 Z M406 184 C470 184 516 220 516 269 C516 320 470 357 406 357 C341 357 295 320 295 269 C295 220 341 184 406 184 L406 184 Z " />
<glyph glyph-name="uni2792" unicode="&#x2792;" horiz-adv-x="812" d="M406 -14 C612 -14 768 150 768 366 C768 582 612 745 406 745 C200 745 44 582 44 366 C44 150 200 -14 406 -14 L406 -14 Z M366 153 C331 153 300 161 281 173 L293 203 C309 193 335 186 367 186 C455 186 512 258 514 378 C493 338 447 314 396 314 C316 314 260 367 260 445 C260 523 317 577 400 577 C496 577 550 505 550 384 C550 248 477 153 366 153 L366 153 Z M401 346 C463 346 507 386 507 445 C507 503 464 544 402 544 C339 544 297 504 297 445 C297 386 339 346 401 346 L401 346 Z " />
<glyph glyph-name="uni2B52" unicode="&#x2b52;" horiz-adv-x="954" d="M240 -1 L476 171 L713 -1 L622 277 L860 449 L567 449 L476 728 L386 449 L93 449 L330 277 L240 -1 Z M307 91 L372 290 L201 414 L413 414 L476 614 L541 414 L752 414 L582 290 L646 91 L476 213 L307 91 Z " />
<glyph glyph-name="uniF8FF" unicode="&#xf8ff;" horiz-adv-x="743" d="M171 42 C246 42 296 92 296 166 L296 255 L448 255 L448 166 C448 92 498 42 572 42 C646 42 695 92 695 166 C695 239 646 288 572 288 L484 288 L484 439 L572 439 C646 439 695 489 695 563 C695 636 646 685 572 685 C498 685 448 636 448 563 L448 472 L296 472 L296 563 C296 636 246 685 172 685 C98 685 48 636 48 563 C48 489 98 439 172 439 L260 439 L260 288 L171 288 C97 288 48 239 48 166 C48 92 97 42 171 42 L171 42 Z M172 472 C118 472 82 509 82 563 C82 616 118 652 172 652 C225 652 260 616 260 563 L260 472 L172 472 Z M484 472 L484 563 C484 616 519 652 572 652 C625 652 661 616 661 563 C661 509 625 472 573 472 L484 472 Z M296 288 L296 439 L448 439 L448 288 L296 288 Z M171 76 C118 76 82 112 82 166 C82 219 117 255 170 255 L260 255 L260 166 C260 112 224 76 171 76 L171 76 Z M572 76 C519 76 484 112 484 166 L484 255 L573 255 C625 255 661 219 661 166 C661 112 625 76 572 76 L572 76 Z " />
<glyph glyph-name="fi" unicode="&#xfb01;" horiz-adv-x="650" d="M156 617 L156 545 L26 545 L26 503 L156 503 L156 0 L202 0 L202 503 L382 503 L382 545 L202 545 L202 618 C202 704 240 745 314 745 C343 745 374 740 418 726 L431 763 C385 779 347 785 312 785 C214 785 156 730 156 617 L156 617 Z M532 746 C511 746 494 729 494 708 C494 687 511 670 532 670 C553 670 570 687 570 708 C570 729 553 746 532 746 L532 746 Z M509 0 L555 0 L555 545 L509 545 L509 0 Z " />
<glyph glyph-name="fl" unicode="&#xfb02;" horiz-adv-x="645" d="M156 617 L156 545 L26 545 L26 503 L156 503 L156 0 L202 0 L202 503 L382 503 L382 545 L202 545 L202 618 C202 704 240 745 314 745 C343 745 374 740 418 726 L431 763 C385 779 347 785 312 785 C214 785 156 730 156 617 L156 617 Z M505 770 L505 0 L552 0 L552 770 L505 770 Z " />
<glyph glyph-name="u1F10B" unicode="&#x1f10b;" horiz-adv-x="812" d="M406 -15 C612 -15 768 149 768 365 C768 581 612 745 406 745 C200 745 44 581 44 365 C44 149 200 -15 406 -15 L406 -15 Z M406 21 C220 21 80 169 80 365 C80 561 220 709 406 709 C592 709 732 561 732 365 C732 169 592 21 406 21 L406 21 Z M401 154 C500 154 570 241 570 366 C570 491 500 578 401 578 C302 578 232 491 232 366 C232 241 302 154 401 154 L401 154 Z M401 187 C323 188 270 261 270 366 C270 471 323 544 401 545 C479 545 532 471 532 366 C532 261 479 187 401 187 L401 187 Z " />
<glyph glyph-name="u1F10C" unicode="&#x1f10c;" horiz-adv-x="812" d="M406 -14 C612 -14 768 150 768 366 C768 582 612 745 406 745 C200 745 44 582 44 366 C44 150 200 -14 406 -14 L406 -14 Z M401 154 C302 154 232 241 232 366 C232 491 302 578 401 578 C500 578 570 491 570 366 C570 241 500 154 401 154 L401 154 Z M401 187 C479 187 532 261 532 366 C532 471 479 545 401 545 C323 544 270 471 270 366 C270 261 323 188 401 187 L401 187 Z " />
</font>
</svg>
